<?xml version="1.0" encoding="UTF-8"?>
<!DOCTYPE svg PUBLIC "-//W3C//DTD SVG 1.1//EN" "http://www.w3.org/Graphics/SVG/1.1/DTD/svg11.dtd">
<!-- Creator: CorelDRAW X8 -->
<svg xmlns="http://www.w3.org/2000/svg" xml:space="preserve" width="323px" height="86px" version="1.1" style="shape-rendering:geometricPrecision; text-rendering:geometricPrecision; image-rendering:optimizeQuality; fill-rule:evenodd; clip-rule:evenodd"
viewBox="0 0 27028 7196"
 xmlns:xlink="http://www.w3.org/1999/xlink">
 <defs>
  <style type="text/css">
   <![CDATA[
    .fil3 {fill:none}
    .fil4 {fill:black}
    .fil0 {fill:#666666}
    .fil2 {fill:black;fill-rule:nonzero}
    .fil1 {fill:url(#id1)}
   ]]>
  </style>
   <clipPath id="id0">
    <path d="M1185 460l24658 0c652,0 1185,534 1185,1185l0 3906c0,652 -533,1185 -1185,1185l-24658 0c-652,0 -1185,-533 -1185,-1185l0 -3906c0,-651 533,-1185 1185,-1185z"/>
   </clipPath>
  <linearGradient id="id1" gradientUnits="userSpaceOnUse" x1="12691.2" y1="669.401" x2="12691.2" y2="6736.11">
   <stop offset="0" style="stop-opacity:1; stop-color:#F4D113"/>
   <stop offset="0.341176" style="stop-opacity:1; stop-color:#F4D014"/>
   <stop offset="1" style="stop-opacity:1; stop-color:#FCB922"/>
  </linearGradient>
 </defs>
 <g id="Слой_x0020_1">
  <metadata id="CorelCorpID_0Corel-Layer"/>
  <path class="fil0" d="M1772 1297l23485 0c974,0 1771,797 1771,1772l0 2272c0,974 -797,1772 -1771,1772l-23485 0c-975,0 -1772,-798 -1772,-1772l0 -2272c0,-975 797,-1772 1772,-1772z"/>
  <path class="fil1" d="M1185 460l24658 0c652,0 1185,534 1185,1185l0 3906c0,652 -533,1185 -1185,1185l-24658 0c-652,0 -1185,-533 -1185,-1185l0 -3906c0,-651 533,-1185 1185,-1185z"/>
  <g style="clip-path:url(#id0)">
   <g id="_783078696048">
    <g>
     <polygon id="1" class="fil2" points="27831,3047 26223,3047 25638,2474 24277,2474 24277,2226 25750,2226 26324,2811 27798,2811 "/>
     <polygon class="fil2" points="27831,4160 27786,4407 26156,4407 25581,4982 24109,4982 24109,4745 25481,4745 26054,4160 "/>
     <polygon class="fil2" points="27865,3598 27854,3733 25279,3733 25279,3486 27854,3486 "/>
     <polygon class="fil2" points="27663,2125 25785,2125 25109,1450 25042,1382 25210,1214 25300,1292 25886,1889 27606,1889 "/>
     <polygon class="fil2" points="27663,5083 27595,5330 26077,5330 25481,5914 25391,6004 25223,5837 25313,5746 25964,5083 "/>
     <path class="fil2" d="M23794 5139c-146,0 -258,-113 -258,-247 0,-136 112,-248 258,-248 135,0 247,112 247,248 0,134 -112,247 -247,247zm405 -394c-45,-180 -214,-292 -405,-292 -247,0 -450,191 -450,439 0,247 203,449 450,449 214,0 394,-157 438,-359l0 -90 -33 -147z"/>
     <path class="fil2" d="M24919 3857c-147,0 -259,-112 -259,-248 0,-134 112,-259 259,-259 135,0 246,125 246,259 0,136 -111,248 -246,248zm416 -371c-45,-191 -214,-327 -416,-327 -259,0 -450,203 -450,450 0,248 191,450 450,450 202,0 371,-135 416,-326l21 -124 -21 -123z"/>
     <polygon class="fil2" points="27599,5974 27404,6181 26630,6181 26630,5974 "/>
     <path class="fil2" d="M26369 6252l-180 -169 180 -179 180 179 -180 169zm292 -258l-11 -23c-34,-124 -156,-203 -281,-203 -180,0 -326,136 -326,315 0,169 146,316 326,316 125,0 247,-90 281,-214l11 -22 12 -80 -12 -89z"/>
     <polygon class="fil2" points="27370,1214 26628,1214 26628,1011 27269,1011 "/>
     <path class="fil2" d="M26369 1292l-180 -179c0,-102 79,-180 180,-180 90,0 180,78 180,180l-180 179zm304 -259l-12 -22c-45,-134 -157,-214 -292,-214 -180,0 -326,147 -326,316 0,179 146,315 326,315 135,0 247,-91 292,-214l12 -23 12 -78 -12 -80z"/>
     <path class="fil2" d="M23973 2575c-134,0 -258,-124 -258,-247 0,-147 124,-259 258,-259 136,0 248,112 248,259 0,123 -112,247 -248,247zm439 -349c-45,-202 -224,-349 -439,-349 -246,0 -450,203 -450,451 0,235 204,438 450,438 192,0 361,-124 417,-292l34 -146 -12 -102z"/>
     <path class="fil2" d="M24671 1056c0,-146 112,-259 248,-259 135,0 259,113 259,259 0,135 -124,248 -259,248 -136,0 -248,-113 -248,-248zm248 -450c-237,0 -450,203 -450,450 0,248 213,439 450,439l190 -45 191 -158 69 -236c0,-247 -204,-450 -450,-450z"/>
     <path class="fil2" d="M25098 6387c-135,0 -247,-112 -247,-248 0,-145 112,-247 247,-247 146,0 258,102 258,247 0,136 -112,248 -258,248zm383 -473l-168 -168 -215 -56c-247,0 -438,202 -438,449 0,248 191,451 438,451 248,0 451,-203 451,-451l-68 -225z"/>
    </g>
    <g>
     <polygon class="fil2" points="3043,2226 3043,2474 1671,2474 1098,3047 -533,3047 -511,2811 997,2811 1570,2226 "/>
     <polygon class="fil2" points="-533,4160 1266,4160 1840,4745 3201,4745 3201,4982 1738,4982 1154,4407 -499,4407 "/>
     <polygon class="fil2" points="2042,3486 2042,3733 -556,3733 -567,3598 -556,3486 "/>
     <polygon class="fil2" points="2267,1382 1525,2125 -364,2125 -308,1889 1424,1889 2019,1292 2099,1214 "/>
     <polygon class="fil2" points="2087,5837 1918,6004 1828,5914 1244,5330 -308,5330 -364,5083 1346,5083 2009,5746 "/>
     <path class="fil2" d="M3527 5139c-135,0 -258,-113 -258,-247 0,-136 123,-248 258,-248 135,0 247,112 247,248 0,134 -112,247 -247,247zm0 -686c-191,0 -360,112 -416,292l-34 147 11 90c45,202 226,359 439,359 247,0 450,-202 450,-449 0,-248 -203,-439 -450,-439z"/>
     <path class="fil2" d="M2403 3857c-136,0 -259,-112 -259,-248 0,-134 123,-259 259,-259 134,0 246,125 246,259 0,136 -112,248 -246,248zm0 -698c-203,0 -384,136 -428,327l-22 123 22 124c44,191 225,326 428,326 246,0 449,-202 449,-450 0,-247 -203,-450 -449,-450z"/>
     <polygon class="fil2" points="681,5971 681,6185 41,6185 -60,5971 "/>
     <path class="fil2" d="M951 6252c-101,0 -180,-79 -180,-169 0,-100 79,-179 180,-179l180 179 -180 169zm0 -484c-134,0 -258,79 -292,203l-11 23 -11 89 11 80 11 22c34,124 158,214 292,214 180,0 315,-147 315,-316 0,-179 -135,-315 -315,-315z"/>
     <polygon class="fil2" points="-282,1217 687,1217 687,1010 -94,1010 "/>
     <path class="fil2" d="M951 1292c-101,0 -180,-78 -180,-179 0,-102 79,-180 180,-180 102,0 180,78 180,180l-180 179zm0 -495c-134,0 -247,80 -292,214l-11 22 -11 80 11 78 11 23c45,123 158,214 292,214 180,0 315,-136 315,-315 0,-169 -135,-316 -315,-316z"/>
     <path class="fil2" d="M3347 2575c-146,0 -259,-124 -259,-247 0,-147 113,-259 259,-259 135,0 248,112 248,259 0,123 -113,247 -248,247zm0 -698c-225,0 -405,147 -439,349l-11 102 23 146c67,168 224,292 427,292 248,0 439,-203 439,-438 0,-248 -191,-451 -439,-451z"/>
     <path class="fil2" d="M2391 1304c-135,0 -247,-113 -247,-248 0,-146 112,-259 247,-259 146,0 258,113 258,259 0,135 -112,248 -258,248zm0 -698c-247,0 -438,203 -438,450l66 236 181 158 191 45c248,0 449,-191 449,-439 0,-247 -201,-450 -449,-450z"/>
     <path class="fil2" d="M2211 6387c-135,0 -247,-112 -247,-248 0,-145 112,-247 247,-247 135,0 259,102 259,247 0,136 -124,248 -259,248zm0 -697l-202 56 -181 168 -67 225c0,248 203,451 450,451 247,0 450,-203 450,-451 0,-247 -203,-449 -450,-449z"/>
    </g>
   </g>
  </g>
  <path class="fil3" d="M1185 460l24658 0c652,0 1185,534 1185,1185l0 3906c0,652 -533,1185 -1185,1185l-24658 0c-652,0 -1185,-533 -1185,-1185l0 -3906c0,-651 533,-1185 1185,-1185z"/>
  <g id="_782999330128">
   <polygon class="fil4" points="1767,6736 2590,6736 2590,7196 1767,7196 "/>
   <polygon class="fil4" points="3657,6736 4479,6736 4479,7196 3657,7196 "/>
   <polygon class="fil4" points="5546,6736 6368,6736 6368,7196 5546,7196 "/>
   <polygon class="fil4" points="7435,6736 8258,6736 8258,7196 7435,7196 "/>
   <polygon class="fil4" points="9324,6736 10147,6736 10147,7196 9324,7196 "/>
   <polygon class="fil4" points="11214,6736 12036,6736 12036,7196 11214,7196 "/>
   <polygon class="fil4" points="13103,6736 13925,6736 13925,7196 13103,7196 "/>
   <polygon class="fil4" points="14992,6736 15815,6736 15815,7196 14992,7196 "/>
   <polygon class="fil4" points="16881,6736 17704,6736 17704,7196 16881,7196 "/>
   <polygon class="fil4" points="18771,6736 19593,6736 19593,7196 18771,7196 "/>
   <polygon class="fil4" points="20660,6736 21482,6736 21482,7196 20660,7196 "/>
   <polygon class="fil4" points="22549,6736 23372,6736 23372,7196 22549,7196 "/>
   <polygon class="fil4" points="24438,6736 25261,6736 25261,7196 24438,7196 "/>
  </g>
  <g id="_782999335472">
   <polygon class="fil4" points="1767,0 2590,0 2590,460 1767,460 "/>
   <polygon class="fil4" points="3657,0 4479,0 4479,460 3657,460 "/>
   <polygon class="fil4" points="5546,0 6368,0 6368,460 5546,460 "/>
   <polygon class="fil4" points="7435,0 8258,0 8258,460 7435,460 "/>
   <polygon class="fil4" points="9324,0 10147,0 10147,460 9324,460 "/>
   <polygon class="fil4" points="11214,0 12036,0 12036,460 11214,460 "/>
   <polygon class="fil4" points="13103,0 13925,0 13925,460 13103,460 "/>
   <polygon class="fil4" points="14992,0 15815,0 15815,460 14992,460 "/>
   <polygon class="fil4" points="16881,0 17704,0 17704,460 16881,460 "/>
   <polygon class="fil4" points="18771,0 19593,0 19593,460 18771,460 "/>
   <polygon class="fil4" points="20660,0 21482,0 21482,460 20660,460 "/>
   <polygon class="fil4" points="22549,0 23372,0 23372,460 22549,460 "/>
   <polygon class="fil4" points="24438,0 25261,0 25261,460 24438,460 "/>
  </g>
 </g>
</svg>
