<?xml version="1.0" encoding="UTF-8"?>
<!DOCTYPE svg PUBLIC "-//W3C//DTD SVG 1.1//EN" "http://www.w3.org/Graphics/SVG/1.1/DTD/svg11.dtd">
<!-- Creator: CorelDRAW X8 -->
<svg xmlns="http://www.w3.org/2000/svg" xml:space="preserve" width="438px" height="86px" version="1.1" style="shape-rendering:geometricPrecision; text-rendering:geometricPrecision; image-rendering:optimizeQuality; fill-rule:evenodd; clip-rule:evenodd"
viewBox="0 0 24638 4837"
 xmlns:xlink="http://www.w3.org/1999/xlink">
 <defs>
  <style type="text/css">
   <![CDATA[
    .fil3 {fill:none}
    .fil4 {fill:black}
    .fil0 {fill:#666666}
    .fil2 {fill:black;fill-rule:nonzero}
    .fil1 {fill:url(#id1)}
   ]]>
  </style>
   <clipPath id="id0">
    <path d="M797 309l23044 0c438,0 797,359 797,797l0 2625c0,439 -359,797 -797,797l-23044 0c-438,0 -797,-358 -797,-797l0 -2625c0,-438 359,-797 797,-797z"/>
   </clipPath>
  <linearGradient id="id1" gradientUnits="userSpaceOnUse" x1="11568.6" y1="449.981" x2="11568.6" y2="4528.12">
   <stop offset="0" style="stop-opacity:1; stop-color:#F4D113"/>
   <stop offset="0.341176" style="stop-opacity:1; stop-color:#F4D014"/>
   <stop offset="1" style="stop-opacity:1; stop-color:#FCB922"/>
  </linearGradient>
 </defs>
 <g id="Слой_x0020_1">
  <metadata id="CorelCorpID_0Corel-Layer"/>
  <path class="fil0" d="M1191 872l22256 0c655,0 1191,536 1191,1191l0 1527c0,655 -536,1191 -1191,1191l-22256 0c-655,0 -1191,-536 -1191,-1191l0 -1527c0,-655 536,-1191 1191,-1191z"/>
  <path class="fil1" d="M797 309l23044 0c438,0 797,359 797,797l0 2625c0,439 -359,797 -797,797l-23044 0c-438,0 -797,-358 -797,-797l0 -2625c0,-438 359,-797 797,-797z"/>
  <g style="clip-path:url(#id0)">
   <g id="_783017022496">
    <g>
     <polygon id="1" class="fil2" points="24917,2048 23837,2048 23443,1663 22529,1663 22529,1496 23519,1496 23905,1890 24895,1890 "/>
     <polygon class="fil2" points="24917,2797 24887,2963 23792,2963 23405,3349 22416,3349 22416,3190 23338,3190 23723,2797 "/>
     <polygon class="fil2" points="24941,2419 24933,2510 23202,2510 23202,2343 24933,2343 "/>
     <polygon class="fil2" points="24805,1428 23542,1428 23088,975 23043,929 23156,816 23216,869 23610,1270 24766,1270 "/>
     <polygon class="fil2" points="24805,3417 24759,3583 23739,3583 23338,3976 23277,4036 23164,3923 23225,3863 23663,3417 "/>
     <path class="fil2" d="M22204 3455c-98,0 -174,-76 -174,-167 0,-91 76,-166 174,-166 91,0 166,75 166,166 0,91 -75,167 -166,167zm272 -265c-30,-121 -144,-197 -272,-197 -166,0 -302,129 -302,295 0,167 136,303 302,303 144,0 265,-106 294,-242l0 -61 -22 -98z"/>
     <path class="fil2" d="M22960 2593c-98,0 -174,-76 -174,-167 0,-90 76,-174 174,-174 91,0 166,84 166,174 0,91 -75,167 -166,167zm280 -250c-31,-128 -144,-219 -280,-219 -174,0 -302,136 -302,302 0,167 128,303 302,303 136,0 249,-91 280,-219l14 -84 -14 -83z"/>
     <polygon class="fil2" points="24761,4016 24630,4155 24110,4155 24110,4016 "/>
     <path class="fil2" d="M23935 4203l-121 -114 121 -120 121 120 -121 114zm196 -174l-7 -15c-23,-83 -105,-136 -189,-136 -121,0 -219,91 -219,211 0,114 98,212 219,212 84,0 166,-60 189,-144l7 -14 8 -54 -8 -60z"/>
     <polygon class="fil2" points="24608,816 24109,816 24109,680 24540,680 "/>
     <path class="fil2" d="M23935 869l-121 -121c0,-68 53,-121 121,-121 60,0 121,53 121,121l-121 121zm204 -174l-8 -15c-30,-91 -105,-144 -196,-144 -121,0 -219,99 -219,212 0,121 98,212 219,212 91,0 166,-61 196,-144l8 -15 8 -53 -8 -53z"/>
     <path class="fil2" d="M22325 1731c-91,0 -174,-83 -174,-166 0,-99 83,-174 174,-174 91,0 166,75 166,174 0,83 -75,166 -166,166zm294 -235c-30,-136 -150,-234 -294,-234 -166,0 -303,136 -303,303 0,158 137,294 303,294 128,0 242,-83 280,-196l22 -98 -8 -69z"/>
     <path class="fil2" d="M22794 710c0,-98 75,-174 166,-174 91,0 174,76 174,174 0,91 -83,167 -174,167 -91,0 -166,-76 -166,-167zm166 -302c-159,0 -302,136 -302,302 0,167 143,295 302,295l128 -30 128 -106 47 -159c0,-166 -137,-302 -303,-302z"/>
     <path class="fil2" d="M23081 4293c-91,0 -166,-75 -166,-166 0,-98 75,-166 166,-166 98,0 173,68 173,166 0,91 -75,166 -173,166zm257 -317l-113 -113 -144 -38c-166,0 -295,136 -295,302 0,166 129,303 295,303 166,0 302,-137 302,-303l-45 -151z"/>
    </g>
    <g>
     <polygon class="fil2" points="2308,1496 2308,1663 1386,1663 1000,2048 -96,2048 -81,1890 932,1890 1318,1496 "/>
     <polygon class="fil2" points="-96,2797 1113,2797 1499,3190 2414,3190 2414,3349 1431,3349 1038,2963 -73,2963 "/>
     <polygon class="fil2" points="1635,2343 1635,2510 -111,2510 -119,2419 -111,2343 "/>
     <polygon class="fil2" points="1786,929 1287,1428 17,1428 55,1270 1219,1270 1620,869 1673,816 "/>
     <polygon class="fil2" points="1665,3923 1552,4036 1491,3976 1098,3583 55,3583 17,3417 1167,3417 1613,3863 "/>
     <path class="fil2" d="M2633 3455c-91,0 -174,-76 -174,-167 0,-91 83,-166 174,-166 91,0 166,75 166,166 0,91 -75,167 -166,167zm0 -462c-128,0 -242,76 -280,197l-22 98 7 61c30,136 152,242 295,242 166,0 302,-136 302,-303 0,-166 -136,-295 -302,-295z"/>
     <path class="fil2" d="M1877 2593c-91,0 -174,-76 -174,-167 0,-90 83,-174 174,-174 91,0 166,84 166,174 0,91 -75,167 -166,167zm0 -469c-136,0 -257,91 -287,219l-15 83 15 84c30,128 151,219 287,219 166,0 302,-136 302,-303 0,-166 -136,-302 -302,-302z"/>
     <polygon class="fil2" points="720,4014 720,4157 290,4157 222,4014 "/>
     <path class="fil2" d="M902 4203c-68,0 -121,-53 -121,-114 0,-67 53,-120 121,-120l121 120 -121 114zm0 -325c-91,0 -174,53 -197,136l-7 15 -8 60 8 54 7 14c23,84 106,144 197,144 121,0 211,-98 211,-212 0,-120 -90,-211 -211,-211z"/>
     <polygon class="fil2" points="72,818 724,818 724,679 199,679 "/>
     <path class="fil2" d="M902 869c-68,0 -121,-53 -121,-121 0,-68 53,-121 121,-121 68,0 121,53 121,121l-121 121zm0 -333c-91,0 -167,53 -197,144l-7 15 -8 53 8 53 7 15c30,83 106,144 197,144 121,0 211,-91 211,-212 0,-113 -90,-212 -211,-212z"/>
     <path class="fil2" d="M2512 1731c-98,0 -174,-83 -174,-166 0,-99 76,-174 174,-174 91,0 167,75 167,174 0,83 -76,166 -167,166zm0 -469c-151,0 -272,98 -295,234l-7 69 15 98c45,113 151,196 287,196 167,0 295,-136 295,-294 0,-167 -128,-303 -295,-303z"/>
     <path class="fil2" d="M1869 877c-90,0 -166,-76 -166,-167 0,-98 76,-174 166,-174 99,0 174,76 174,174 0,91 -75,167 -174,167zm0 -469c-166,0 -294,136 -294,302l45 159 121 106 128 30c167,0 303,-128 303,-295 0,-166 -136,-302 -303,-302z"/>
     <path class="fil2" d="M1749 4293c-91,0 -167,-75 -167,-166 0,-98 76,-166 167,-166 90,0 174,68 174,166 0,91 -84,166 -174,166zm0 -468l-136 38 -122 113 -45 151c0,166 136,303 303,303 166,0 302,-137 302,-303 0,-166 -136,-302 -302,-302z"/>
    </g>
   </g>
  </g>
  <path class="fil3" d="M797 309l23044 0c438,0 797,359 797,797l0 2625c0,439 -359,797 -797,797l-23044 0c-438,0 -797,-358 -797,-797l0 -2625c0,-438 359,-797 797,-797z"/>
  <g id="_783017037568">
   <polygon class="fil4" points="4422,4528 4975,4528 4975,4837 4422,4837 "/>
   <polygon class="fil4" points="5692,4528 6245,4528 6245,4837 5692,4837 "/>
   <polygon class="fil4" points="6962,4528 7515,4528 7515,4837 6962,4837 "/>
   <polygon class="fil4" points="8232,4528 8785,4528 8785,4837 8232,4837 "/>
   <polygon class="fil4" points="9502,4528 10055,4528 10055,4837 9502,4837 "/>
   <polygon class="fil4" points="10772,4528 11325,4528 11325,4837 10772,4837 "/>
   <polygon class="fil4" points="12042,4528 12595,4528 12595,4837 12042,4837 "/>
   <polygon class="fil4" points="13312,4528 13865,4528 13865,4837 13312,4837 "/>
   <polygon class="fil4" points="14582,4528 15135,4528 15135,4837 14582,4837 "/>
   <polygon class="fil4" points="15852,4528 16405,4528 16405,4837 15852,4837 "/>
   <polygon class="fil4" points="17122,4528 17675,4528 17675,4837 17122,4837 "/>
   <polygon class="fil4" points="18392,4528 18945,4528 18945,4837 18392,4837 "/>
   <polygon class="fil4" points="19662,4528 20215,4528 20215,4837 19662,4837 "/>
  </g>
  <g id="_783017041152">
   <polygon class="fil4" points="4422,0 4975,0 4975,309 4422,309 "/>
   <polygon class="fil4" points="5692,0 6245,0 6245,309 5692,309 "/>
   <polygon class="fil4" points="6962,0 7515,0 7515,309 6962,309 "/>
   <polygon class="fil4" points="8232,0 8785,0 8785,309 8232,309 "/>
   <polygon class="fil4" points="9502,0 10055,0 10055,309 9502,309 "/>
   <polygon class="fil4" points="10772,0 11325,0 11325,309 10772,309 "/>
   <polygon class="fil4" points="12042,0 12595,0 12595,309 12042,309 "/>
   <polygon class="fil4" points="13312,0 13865,0 13865,309 13312,309 "/>
   <polygon class="fil4" points="14582,0 15135,0 15135,309 14582,309 "/>
   <polygon class="fil4" points="15852,0 16405,0 16405,309 15852,309 "/>
   <polygon class="fil4" points="17122,0 17675,0 17675,309 17122,309 "/>
   <polygon class="fil4" points="18392,0 18945,0 18945,309 18392,309 "/>
   <polygon class="fil4" points="19662,0 20215,0 20215,309 19662,309 "/>
  </g>
 </g>
</svg>
