<?xml version="1.0" encoding="UTF-8"?>
<!DOCTYPE svg PUBLIC "-//W3C//DTD SVG 1.1//EN" "http://www.w3.org/Graphics/SVG/1.1/DTD/svg11.dtd">
<!-- Creator: CorelDRAW X8 -->
<svg xmlns="http://www.w3.org/2000/svg" xml:space="preserve" width="89px" height="87px" version="1.1" style="shape-rendering:geometricPrecision; text-rendering:geometricPrecision; image-rendering:optimizeQuality; fill-rule:evenodd; clip-rule:evenodd"
viewBox="0 0 2165 2105"
 xmlns:xlink="http://www.w3.org/1999/xlink">
 <defs>
  <style type="text/css">
   <![CDATA[
    .fil3 {fill:#F4D113}
    .fil1 {fill:#F4D113;fill-rule:nonzero}
    .fil0 {fill:#F4D113;fill-rule:nonzero}
    .fil2 {fill:url(#id0)}
   ]]>
  </style>
  <linearGradient id="id0" gradientUnits="userSpaceOnUse" x1="1037.76" y1="373.979" x2="1037.76" y2="1784.87">
   <stop offset="0" style="stop-opacity:1; stop-color:#F4D113"/>
   <stop offset="0.341176" style="stop-opacity:1; stop-color:#F4D014"/>
   <stop offset="1" style="stop-opacity:1; stop-color:#FCB922"/>
  </linearGradient>
 </defs>
 <g id="Слой_x0020_1">
  <metadata id="CorelCorpID_0Corel-Layer"/>
  <polygon class="fil0" points="2037,1376 2007,1367 2009,1186 1807,993 1797,982 1817,962 1828,973 2039,1173 "/>
  <g id="_782987207632">
   <polygon class="fil1" points="2104,825 2101,1301 2032,1370 2030,1533 2001,1532 2002,1356 2073,1288 2076,829 "/>
   <path class="fil1" d="M2118 777c0,-17 -13,-31 -29,-31 -16,0 -31,13 -31,31 0,16 14,29 31,29 16,0 29,-13 29,-29zm-44 49c-23,-5 -39,-25 -39,-50 0,-30 25,-53 54,-53 30,0 54,23 54,54 -1,24 -17,44 -40,50l-15 2 -14 -3z"/>
   <path class="fil1" d="M2042 1569c0,16 -15,31 -29,31 -18,-1 -31,-15 -31,-31 0,-17 13,-30 31,-30 15,0 29,14 29,30zm-41 -53c-24,5 -42,27 -42,52 0,30 24,54 53,55 29,0 53,-24 53,-54 0,-23 -14,-43 -34,-50l-18 -4 -12 1z"/>
  </g>
  <rect class="fil2" x="348" y="325" width="1469" height="1460" rx="77" ry="73"/>
  <polygon class="fil0" points="1817,554 1825,526 2001,526 2070,458 2080,447 2100,467 2089,477 2014,554 "/>
  <path class="fil0" d="M2114 403c16,0 29,13 29,29 0,17 -13,28 -29,28 -17,0 -30,-11 -30,-28 0,-16 13,-29 30,-29zm-44 55l19 19 25 7c29,0 51,-24 51,-52 0,-29 -22,-52 -51,-52 -28,0 -52,23 -52,52l8 26z"/>
  <polygon class="fil0" points="348,1610 340,1639 164,1639 95,1707 85,1717 65,1698 76,1687 151,1610 "/>
  <path class="fil0" d="M51 1761c-16,0 -29,-13 -29,-28 0,-17 13,-29 29,-29 17,0 30,12 30,29 0,15 -13,28 -30,28zm44 -54l-19 -20 -25 -6c-29,0 -51,23 -51,52 0,28 22,52 51,52 28,0 52,-24 52,-52l-8 -26z"/>
  <path class="fil0" d="M52 747c16,0 29,13 29,28 0,17 -13,29 -29,29 -17,0 -30,-12 -30,-29 0,-15 13,-28 30,-28zm-44 54l19 20 25 6c29,0 51,-23 51,-52 0,-28 -22,-52 -51,-52 -28,0 -52,24 -52,52l8 26z"/>
  <rect class="fil3" x="96" y="767" width="245.042" height="25.8646"/>
  <path class="fil0" d="M733 52c-1,16 -14,29 -29,29 -17,0 -29,-13 -29,-29 0,-17 12,-30 29,-30 16,0 29,13 29,30zm-55 -44l-19 19 -7 25c0,28 23,51 51,51 29,0 53,-22 53,-50 0,-29 -23,-53 -52,-53l-26 8z"/>
  <rect class="fil3" transform="matrix(-0.00781868 0.999969 -0.999969 -0.00781868 712.354 95.8132)" width="245.042" height="25.8646"/>
  <path class="fil0" d="M1111 52c0,16 -13,29 -29,29 -17,0 -28,-13 -28,-29 0,-17 12,-30 29,-30 15,0 28,13 28,30zm-54 -44l-20 19 -7 25c0,28 23,51 52,51 29,0 52,-22 53,-50 0,-29 -24,-53 -52,-53l-26 8z"/>
  <rect class="fil3" transform="matrix(-0.00781868 0.999969 -0.999969 -0.00781868 1096.37 80.3055)" width="245.042" height="25.8646"/>
  <path class="fil0" d="M1502 52c0,16 -13,29 -29,29 -17,0 -28,-13 -28,-29 0,-17 12,-30 29,-30 15,0 28,13 28,30zm-54 -44l-20 19 -7 25c0,28 24,51 52,51 29,0 53,-22 53,-50 0,-29 -23,-53 -52,-53l-26 8z"/>
  <rect class="fil3" transform="matrix(-0.00781868 0.999969 -0.999969 -0.00781868 1487.51 80.3055)" width="245.042" height="25.8646"/>
  <path class="fil0" d="M736 2052c0,-15 -13,-28 -29,-28 -17,0 -28,13 -28,29 0,17 12,30 29,29 15,0 28,-13 28,-30zm-54 45l-20 -19 -7 -25c0,-29 23,-51 52,-51 29,0 52,22 53,50 0,29 -24,53 -52,53l-26 -8z"/>
  <rect class="fil3" transform="matrix(-0.00781868 -0.999969 -0.999969 0.00781868 715.781 2008.92)" width="245.042" height="25.8646"/>
  <path class="fil0" d="M1111 2052c0,-15 -13,-28 -29,-28 -17,0 -28,13 -28,29 0,17 12,30 29,29 15,0 28,-13 28,-30zm-54 45l-20 -19 -7 -25c0,-29 23,-51 52,-51 29,0 52,22 53,50 0,29 -24,53 -52,53l-26 -8z"/>
  <rect class="fil3" transform="matrix(-0.00781868 -0.999969 -0.999969 0.00781868 1096.37 2024.42)" width="245.042" height="25.8646"/>
  <path class="fil0" d="M1502 2052c0,-15 -13,-28 -29,-28 -17,0 -28,13 -28,29 0,17 12,30 29,29 15,0 28,-13 28,-30zm-54 45l-20 -19 -7 -25c0,-29 24,-51 52,-51 29,0 53,22 53,50 0,29 -23,53 -52,53l-26 -8z"/>
  <rect class="fil3" transform="matrix(-0.00781868 -0.999969 -0.999969 0.00781868 1487.51 2024.42)" width="245.042" height="25.8646"/>
 </g>
</svg>
