<?xml version="1.0" encoding="UTF-8"?>
<!DOCTYPE svg PUBLIC "-//W3C//DTD SVG 1.1//EN" "http://www.w3.org/Graphics/SVG/1.1/DTD/svg11.dtd">
<!-- Creator: CorelDRAW X8 -->
<svg xmlns="http://www.w3.org/2000/svg" xml:space="preserve" width="755px" height="557px" version="1.1" style="shape-rendering:geometricPrecision; text-rendering:geometricPrecision; image-rendering:optimizeQuality; fill-rule:evenodd; clip-rule:evenodd"
viewBox="0 0 24459 18055"
 xmlns:xlink="http://www.w3.org/1999/xlink">
 <defs>
  <style type="text/css">
   <![CDATA[
    .str0 {stroke:#F4D113;stroke-width:162.079}
    .fil2 {fill:#1E1C27}
    .fil3 {fill:#F4D113}
    .fil1 {fill:#F4D113;fill-rule:nonzero}
    .fil0 {fill:#F4D113;fill-rule:nonzero}
   ]]>
  </style>
 </defs>
 <g id="Слой_x0020_1">
  <metadata id="CorelCorpID_0Corel-Layer"/>
  <polygon class="fil0" points="23388,10692 23141,10622 23153,9106 21548,7521 21459,7430 21548,7231 21637,7322 23401,8995 "/>
  <g id="_783075909216">
   <polygon class="fil1" points="23953,6086 23922,10066 23345,10646 23334,12005 23087,12003 23098,10531 23687,9962 23717,6117 "/>
   <path class="fil1" d="M24069 5685c1,-146 -110,-259 -245,-260 -135,-1 -260,110 -261,256 -1,135 122,247 257,248 135,1 248,-110 249,-244zm-374 412c-191,-46 -324,-216 -323,-418 2,-258 206,-447 453,-445 247,2 448,194 446,452 -1,202 -138,370 -329,413l-124 21 -123 -23z"/>
   <path class="fil1" d="M23433 12309c-1,135 -126,257 -249,256 -147,-1 -258,-125 -257,-260 2,-135 114,-246 261,-245 123,1 246,113 245,249zm-345 -441c-203,44 -351,221 -353,435 -1,247 200,452 447,454 236,1 439,-200 441,-447 2,-191 -120,-361 -288,-418l-146 -35 -101 11z"/>
  </g>
  <path class="fil2 str0" d="M3491 1906l17391 0c405,0 736,339 736,752l0 12878c0,414 -331,752 -736,752l-17391 0c-405,0 -735,-338 -735,-752l0 -12878c0,-413 330,-752 735,-752z"/>
  <polygon class="fil0" points="21548,3821 21614,3582 23085,3582 23663,3015 23751,2928 23914,3090 23826,3178 23195,3821 "/>
  <path class="fil0" d="M24034 2557c131,0 239,109 239,240 0,141 -108,239 -239,239 -142,0 -250,-98 -250,-239 0,-131 108,-240 250,-240zm-371 458l163 163 208 54c239,0 425,-196 425,-435 0,-240 -186,-437 -425,-437 -240,0 -436,197 -436,437l65 218z"/>
  <polygon class="fil0" points="2782,12653 2845,12893 1374,12893 796,13460 708,13547 545,13384 633,13297 1264,12653 "/>
  <path class="fil0" d="M425 13918c-131,0 -240,-109 -240,-240 0,-141 109,-240 240,-240 141,0 250,99 250,240 0,131 -109,240 -250,240zm371 -458l-163 -163 -208 -55c-240,0 -425,196 -425,436 0,240 185,436 425,436 239,0 436,-196 436,-436l-65 -218z"/>
  <path class="fil0" d="M437 5431c130,0 239,108 239,239 0,142 -109,240 -239,240 -142,0 -251,-98 -251,-240 0,-131 109,-239 251,-239zm-371 458l163 163 208 54c239,0 424,-196 424,-436 0,-239 -185,-436 -424,-436 -240,0 -437,197 -437,436l66 219z"/>
  <polygon class="fil3" points="762,5597 2811,5597 2811,5813 762,5813 "/>
  <g id="_783075914080">
   <path class="fil0" d="M10310 439c-1,130 -111,238 -242,237 -141,-1 -239,-110 -238,-241 1,-142 101,-250 242,-249 131,1 239,111 238,253zm-455 -375l-165 162 -56 207c-1,239 193,426 433,428 239,2 438,-182 440,-421 1,-240 -194,-438 -434,-440l-218 64z"/>
   <polygon class="fil3" points="10141,749 10125,1906 9908,1905 9924,748 "/>
  </g>
  <g id="_783075912192">
   <path class="fil0" d="M13493 439c-1,130 -110,238 -242,237 -141,-1 -238,-110 -237,-241 1,-142 100,-250 241,-249 131,1 239,111 238,253zm-455 -375l-164 162 -56 207c-2,239 192,426 432,428 240,2 438,-182 440,-421 2,-240 -194,-438 -433,-440l-219 64z"/>
   <polygon class="fil3" points="13370,671 13354,1906 13138,1905 13154,670 "/>
  </g>
  <g id="_783075914272">
   <path class="fil0" d="M16676 439c-1,130 -110,238 -241,237 -142,-1 -239,-110 -238,-241 1,-142 100,-250 241,-249 132,1 239,111 238,253zm-455 -375l-164 162 -56 207c-2,239 193,426 432,428 240,2 438,-182 440,-421 2,-240 -193,-438 -433,-440l-219 64z"/>
   <polygon class="fil3" points="16553,671 16537,1906 16321,1905 16337,670 "/>
  </g>
  <g id="_783075915392">
   <path class="fil0" d="M10310 17616c-1,-131 -111,-238 -242,-237 -141,1 -239,110 -238,241 1,142 101,249 242,248 131,-1 239,-110 238,-252zm-455 375l-165 -162 -56 -208c-1,-239 193,-426 433,-428 239,-1 438,182 440,422 1,239 -194,438 -434,440l-218 -64z"/>
   <polygon class="fil3" points="10141,17314 10126,16313 9910,16313 9924,17315 "/>
  </g>
  <g id="_783075916896">
   <path class="fil0" d="M13493 17616c-1,-131 -110,-238 -242,-237 -141,1 -238,110 -237,241 1,142 100,249 241,248 131,-1 239,-110 238,-252zm-455 375l-164 -162 -56 -208c-2,-239 192,-426 432,-428 240,-1 438,182 440,422 2,239 -194,438 -433,440l-219 -64z"/>
   <polygon class="fil3" points="13370,17384 13354,16288 13138,16289 13154,17385 "/>
  </g>
  <g id="_783075916704">
   <path class="fil0" d="M16676 17616c-1,-131 -110,-238 -241,-237 -142,1 -239,110 -238,241 1,142 100,249 241,248 132,-1 239,-110 238,-252zm-455 375l-164 -162 -56 -208c-2,-239 193,-426 432,-428 240,-1 438,182 440,422 2,239 -193,438 -433,440l-219 -64z"/>
   <polygon class="fil3" points="16553,17384 16537,16288 16321,16289 16337,17385 "/>
  </g>
  <g id="_783075919872">
   <path class="fil0" d="M7126 439c-1,130 -110,238 -241,237 -142,-1 -239,-110 -238,-241 1,-142 100,-250 241,-249 132,1 239,111 238,253zm-455 -375l-164 162 -56 207c-2,239 193,426 432,428 240,2 438,-182 440,-421 2,-240 -193,-438 -433,-440l-219 64z"/>
   <polygon class="fil3" points="6957,749 6941,1906 6725,1905 6741,748 "/>
  </g>
  <g id="_783075918624">
   <path class="fil0" d="M7126 17616c-1,-131 -110,-238 -241,-237 -142,1 -239,110 -238,241 1,142 100,249 241,248 132,-1 239,-110 238,-252zm-455 375l-164 -162 -56 -208c-2,-239 193,-426 432,-428 240,-1 438,182 440,422 2,239 -193,438 -433,440l-219 -64z"/>
   <polygon class="fil3" points="6957,17314 6943,16313 6726,16313 6741,17315 "/>
  </g>
 </g>
</svg>
