<?xml version="1.0" encoding="UTF-8"?>
<!DOCTYPE svg PUBLIC "-//W3C//DTD SVG 1.1//EN" "http://www.w3.org/Graphics/SVG/1.1/DTD/svg11.dtd">
<!-- Creator: CorelDRAW X8 -->
<svg xmlns="http://www.w3.org/2000/svg" xml:space="preserve" width="75px" height="141px" version="1.1" style="shape-rendering:geometricPrecision; text-rendering:geometricPrecision; image-rendering:optimizeQuality; fill-rule:evenodd; clip-rule:evenodd"
viewBox="0 0 88 165"
 xmlns:xlink="http://www.w3.org/1999/xlink">
 <defs>
  <style type="text/css">
   <![CDATA[
    .fil0 {fill:black;fill-rule:nonzero}
   ]]>
  </style>
 </defs>
 <g id="Слой_x0020_1">
  <metadata id="CorelCorpID_0Corel-Layer"/>
  <g id="_783375261584">
   <g>
    <polygon class="fil0" points="45,149 44,148 48,144 38,135 38,40 0,0 0,0 1,0 39,40 39,134 49,144 "/>
   </g>
   <g>
    <g>
     <path class="fil0" d="M41 146c-1,1 -1,4 1,6 1,1 4,1 6,-1 1,-2 1,-4 -1,-6 -2,-1 -4,-1 -6,1z"/>
    </g>
   </g>
  </g>
  <g id="_783375263824">
   <g>
    <polygon class="fil0" points="63,154 62,154 62,145 48,130 49,38 14,0 14,0 15,0 50,37 49,130 63,145 "/>
   </g>
   <g>
    <g>
     <path class="fil0" d="M58 154c0,2 2,4 5,4 2,0 4,-2 4,-4 0,-3 -2,-5 -4,-5 -3,0 -5,2 -5,5z"/>
    </g>
   </g>
  </g>
  <g id="_783375262640">
   <g>
    <polygon class="fil0" points="74,161 73,161 73,143 58,128 59,36 26,1 26,0 27,0 60,35 60,128 74,143 "/>
   </g>
   <g>
    <g>
     <path class="fil0" d="M69 160c0,3 2,5 4,5 3,0 5,-2 5,-5 0,-2 -2,-4 -5,-4 -2,0 -4,2 -4,4z"/>
    </g>
   </g>
  </g>
  <g id="_783375265200">
   <g>
    <polygon class="fil0" points="84,145 83,145 83,141 69,126 69,33 39,0 39,0 40,0 71,33 70,126 84,140 "/>
   </g>
   <g>
    <g>
     <path class="fil0" d="M79 145c0,2 2,4 5,4 2,0 4,-2 4,-4 0,-3 -2,-5 -4,-5 -3,0 -5,2 -5,5z"/>
    </g>
   </g>
  </g>
 </g>
</svg>
