<?xml version="1.0" encoding="UTF-8"?>
<!DOCTYPE svg PUBLIC "-//W3C//DTD SVG 1.1//EN" "http://www.w3.org/Graphics/SVG/1.1/DTD/svg11.dtd">
<!-- Creator: CorelDRAW X8 -->
<svg xmlns="http://www.w3.org/2000/svg" xml:space="preserve" width="625px" height="442px" version="1.1" style="shape-rendering:geometricPrecision; text-rendering:geometricPrecision; image-rendering:optimizeQuality; fill-rule:evenodd; clip-rule:evenodd"
viewBox="0 0 4737 3348"
 xmlns:xlink="http://www.w3.org/1999/xlink">
 <defs>
  <style type="text/css">
   <![CDATA[
    .fil0 {fill:black;fill-rule:nonzero}
   ]]>
  </style>
 </defs>
 <g id="Слой_x0020_1">
  <metadata id="CorelCorpID_0Corel-Layer"/>
  <g id="_783341885088">
   <g>
    <g>
     <polygon class="fil0" points="1941,1366 1715,1142 1715,324 1588,205 1588,0 1595,0 1595,202 1723,321 1723,1139 1947,1360 "/>
    </g>
    <g>
     <g>
      <path class="fil0" d="M1923 1382c11,12 29,11 40,0 11,-11 11,-29 0,-40 -11,-11 -29,-11 -40,0 -11,11 -11,29 0,40z"/>
     </g>
    </g>
   </g>
   <g>
    <g>
     <polygon class="fil0" points="1838,1347 1659,1163 1659,354 1569,265 1526,265 1526,258 1572,258 1667,350 1667,1160 1843,1342 "/>
    </g>
    <g>
     <g>
      <path class="fil0" d="M1527 290c-16,0 -29,-13 -29,-28 0,-16 13,-29 29,-29 16,0 28,13 28,29 0,15 -12,28 -28,28z"/>
     </g>
    </g>
    <g>
     <g>
      <path class="fil0" d="M1819 1363c11,11 29,12 41,1 11,-11 11,-29 0,-41 -11,-11 -29,-11 -40,0 -11,11 -12,29 -1,40z"/>
     </g>
    </g>
   </g>
   <g>
    <g>
     <polygon class="fil0" points="1755,1348 1604,1206 1604,391 1558,358 1562,352 1611,387 1611,1203 1760,1342 "/>
    </g>
    <g>
     <g>
      <path class="fil0" d="M1544 379c-12,-10 -15,-28 -6,-40 10,-13 27,-16 40,-6 13,9 16,27 6,39 -9,13 -27,16 -40,7z"/>
     </g>
    </g>
    <g>
     <g>
      <path class="fil0" d="M1737 1365c11,11 30,10 40,-1 11,-12 10,-30 -1,-41 -12,-10 -30,-10 -40,2 -11,11 -10,29 1,40z"/>
     </g>
    </g>
   </g>
   <g>
    <g>
     <polygon class="fil0" points="2042,1380 1758,1108 1758,550 1882,417 2018,417 2049,454 2044,459 2014,425 1885,425 1765,553 1765,1104 2047,1374 "/>
    </g>
    <g>
     <g>
      <path class="fil0" d="M2067 437c10,12 9,30 -3,40 -12,10 -30,9 -40,-3 -10,-12 -9,-30 3,-40 12,-11 30,-9 40,3z"/>
     </g>
    </g>
    <g>
     <g>
      <path class="fil0" d="M2024 1396c11,11 29,11 40,-1 11,-11 11,-29 -1,-40 -11,-11 -29,-10 -40,1 -11,11 -11,30 1,40z"/>
     </g>
    </g>
   </g>
   <g>
    <g>
     <polygon class="fil0" points="1696,1660 1689,1660 1689,1506 1065,890 1065,0 1072,0 1072,887 1696,1503 "/>
    </g>
    <g>
     <g>
      <path class="fil0" d="M1664 1659c0,16 13,29 28,29 16,0 29,-13 29,-29 0,-16 -13,-28 -29,-28 -15,0 -28,12 -28,28z"/>
     </g>
    </g>
   </g>
   <g>
    <g>
     <polygon class="fil0" points="1595,1704 1588,1704 1588,1495 1011,925 1011,0 1018,0 1018,922 1595,1492 "/>
    </g>
    <g>
     <g>
      <path class="fil0" d="M1563 1702c0,16 13,29 28,29 16,0 29,-13 29,-29 0,-15 -13,-28 -29,-28 -15,0 -28,13 -28,28z"/>
     </g>
    </g>
   </g>
   <g>
    <g>
     <polygon class="fil0" points="1512,1661 1504,1660 1507,1497 964,961 964,0 971,0 971,958 1515,1494 "/>
    </g>
    <g>
     <g>
      <path class="fil0" d="M1479 1659c0,15 13,28 28,29 16,0 29,-13 29,-28 1,-16 -12,-29 -28,-29 -15,-1 -28,12 -29,28z"/>
     </g>
    </g>
   </g>
   <g>
    <g>
     <polygon class="fil0" points="1424,1577 1424,1503 911,996 911,0 918,0 918,993 1431,1499 1431,1577 "/>
    </g>
    <g>
     <g>
      <path class="fil0" d="M1399 1576c0,16 13,28 29,28 15,0 28,-12 28,-28 0,-16 -13,-29 -28,-29 -16,0 -29,13 -29,29z"/>
     </g>
    </g>
   </g>
   <g>
    <polygon class="fil0" points="83,1691 0,1691 0,1684 76,1684 76,1503 77,1502 700,887 700,0 707,0 707,890 706,891 83,1506 "/>
   </g>
   <g>
    <polygon class="fil0" points="184,1735 0,1735 0,1727 177,1727 177,1492 178,1491 754,922 754,0 761,0 761,925 760,926 184,1495 "/>
   </g>
   <g>
    <polygon class="fil0" points="270,1800 0,1800 0,1792 263,1792 257,1494 259,1493 801,958 801,0 808,0 808,961 807,962 265,1497 "/>
   </g>
   <g>
    <polygon class="fil0" points="348,1874 0,1874 0,1867 341,1867 341,1604 341,1499 342,1498 854,993 854,0 861,0 861,996 860,997 348,1503 348,1604 "/>
   </g>
   <g>
    <g>
     <polygon class="fil0" points="1417,892 1377,853 1377,440 1384,440 1384,850 1422,887 "/>
    </g>
    <g>
     <g>
      <path class="fil0" d="M1352 442c0,-16 13,-29 28,-29 16,0 29,13 29,29 0,15 -13,28 -29,28 -15,0 -28,-13 -28,-28z"/>
     </g>
    </g>
    <g>
     <g>
      <path class="fil0" d="M1399 909c11,11 29,11 40,-1 11,-11 11,-29 0,-40 -12,-11 -30,-11 -41,1 -11,11 -10,29 1,40z"/>
     </g>
    </g>
   </g>
   <g>
    <g>
     <polygon class="fil0" points="1179,583 1172,583 1172,0 1179,0 "/>
    </g>
    <g>
     <g>
      <path class="fil0" d="M1147 582c0,16 13,28 28,28 16,0 29,-12 29,-28 0,-16 -13,-29 -29,-29 -15,0 -28,13 -28,29z"/>
     </g>
    </g>
   </g>
   <g>
    <g>
     <polygon class="fil0" points="1247,671 1240,671 1240,421 1247,421 "/>
    </g>
    <g>
     <g>
      <path class="fil0" d="M1215 422c0,-16 13,-28 29,-28 15,0 28,12 28,28 0,16 -13,29 -28,29 -16,0 -29,-13 -29,-29z"/>
     </g>
    </g>
    <g>
     <g>
      <path class="fil0" d="M1215 670c0,15 13,28 29,28 15,0 28,-13 28,-28 0,-16 -13,-29 -28,-29 -16,0 -29,13 -29,29z"/>
     </g>
    </g>
   </g>
   <g>
    <g>
     <polygon class="fil0" points="1315,590 1307,590 1307,340 1315,340 "/>
    </g>
    <g>
     <g>
      <path class="fil0" d="M1282 342c0,-16 13,-29 29,-29 16,0 28,13 28,29 0,15 -12,28 -28,28 -16,0 -29,-13 -29,-28z"/>
     </g>
    </g>
    <g>
     <g>
      <path class="fil0" d="M1282 589c0,16 13,29 29,29 16,0 28,-13 28,-29 0,-16 -12,-28 -28,-28 -16,0 -29,12 -29,28z"/>
     </g>
    </g>
   </g>
   <g>
    <g>
     <polygon class="fil0" points="2503,1451 2272,1451 2272,1443 2500,1443 2650,1298 2650,714 2562,633 2486,633 2486,625 2565,625 2657,711 2657,1302 "/>
    </g>
    <g>
     <g>
      <path class="fil0" d="M2487 658c-15,0 -28,-13 -28,-29 0,-16 13,-28 28,-28 16,0 29,12 29,28 0,16 -13,29 -29,29z"/>
     </g>
    </g>
    <g>
     <g>
      <path class="fil0" d="M2273 1418c-16,0 -28,13 -28,29 0,16 12,28 28,28 16,0 29,-12 29,-28 0,-16 -13,-29 -29,-29z"/>
     </g>
    </g>
   </g>
   <g>
    <g>
     <polygon class="fil0" points="2466,1376 2254,1376 2142,1255 2147,1250 2257,1369 2462,1369 2584,1242 2584,849 2592,849 2592,1245 "/>
    </g>
    <g>
     <g>
      <path class="fil0" d="M2560 850c0,-15 12,-28 28,-28 16,0 28,13 28,28 0,16 -12,29 -28,29 -16,0 -28,-13 -28,-29z"/>
     </g>
    </g>
    <g>
     <g>
      <path class="fil0" d="M2166 1234c-10,-11 -28,-12 -40,-1 -12,10 -12,28 -2,40 11,11 29,12 41,1 11,-10 12,-28 1,-40z"/>
     </g>
    </g>
   </g>
   <g>
    <g>
     <polygon class="fil0" points="2434,1309 2332,1309 2332,1301 2431,1301 2526,1205 2526,913 2533,913 2533,1208 "/>
    </g>
    <g>
     <g>
      <path class="fil0" d="M2501 914c0,-16 13,-28 29,-28 15,0 28,12 28,28 0,16 -13,29 -28,29 -16,0 -29,-13 -29,-29z"/>
     </g>
    </g>
    <g>
     <g>
      <path class="fil0" d="M2333 1277c-15,0 -28,12 -28,28 0,16 13,29 28,29 16,0 29,-13 29,-29 0,-16 -13,-28 -29,-28z"/>
     </g>
    </g>
   </g>
   <g>
    <g>
     <polygon class="fil0" points="2283,1161 2278,1155 2336,1105 2336,914 2393,863 2393,775 2401,775 2401,866 2344,917 2344,1109 "/>
    </g>
    <g>
     <g>
      <path class="fil0" d="M2368 776c0,-16 13,-28 29,-28 16,0 28,12 28,28 0,16 -12,29 -28,29 -16,0 -29,-13 -29,-29z"/>
     </g>
    </g>
    <g>
     <g>
      <path class="fil0" d="M2263 1136c-12,10 -13,28 -2,40 10,12 28,13 40,3 12,-10 13,-28 3,-40 -11,-12 -29,-14 -41,-3z"/>
     </g>
    </g>
   </g>
   <g>
    <g>
     <polygon class="fil0" points="2230,1146 2094,1146 2017,1061 2023,1056 2098,1139 2227,1139 2282,1082 2282,884 2340,834 2340,677 2248,606 2252,600 2348,673 2348,838 2290,887 2290,1085 "/>
    </g>
    <g>
     <g>
      <path class="fil0" d="M2234 626c-13,-9 -15,-27 -5,-39 9,-13 27,-15 40,-6 12,10 14,28 5,40 -10,13 -28,15 -40,5z"/>
     </g>
    </g>
    <g>
     <g>
      <path class="fil0" d="M2042 1040c-10,-12 -28,-13 -40,-2 -12,10 -13,28 -2,40 10,12 28,13 40,2 12,-10 13,-28 2,-40z"/>
     </g>
    </g>
   </g>
   <g>
    <g>
     <polygon class="fil0" points="2084,1586 2078,1581 2134,1514 2540,1514 2703,1351 2703,699 2652,641 2658,636 2710,697 2710,1355 2544,1521 2138,1521 "/>
    </g>
    <g>
     <g>
      <path class="fil0" d="M2634 658c-10,-12 -8,-30 4,-40 12,-11 30,-9 40,3 10,12 9,30 -3,40 -12,10 -30,9 -41,-3z"/>
     </g>
    </g>
    <g>
     <g>
      <path class="fil0" d="M2060 1564c-10,12 -8,30 4,40 12,10 30,9 40,-3 10,-13 8,-31 -4,-41 -12,-10 -30,-8 -40,4z"/>
     </g>
    </g>
   </g>
   <g>
    <polygon class="fil0" points="670,2949 0,2949 0,2942 667,2942 817,2797 817,2213 729,2131 0,2131 0,2124 732,2124 824,2209 824,2800 "/>
   </g>
   <g>
    <g>
     <polygon class="fil0" points="633,2875 421,2875 291,2735 0,2735 0,2728 295,2728 424,2867 629,2867 751,2740 751,2348 759,2348 759,2743 "/>
    </g>
    <g>
     <g>
      <path class="fil0" d="M727 2349c0,-16 12,-28 28,-28 16,0 29,12 29,28 0,16 -13,29 -29,29 -16,0 -28,-13 -28,-29z"/>
     </g>
    </g>
   </g>
   <g>
    <g>
     <polygon class="fil0" points="601,2808 499,2808 499,2800 598,2800 693,2703 693,2411 700,2411 700,2706 "/>
    </g>
    <g>
     <g>
      <path class="fil0" d="M668 2413c0,-16 13,-29 29,-29 15,0 28,13 28,29 0,16 -13,28 -28,28 -16,0 -29,-12 -29,-28z"/>
     </g>
    </g>
    <g>
     <g>
      <path class="fil0" d="M500 2775c-15,0 -28,13 -28,29 0,16 13,28 28,28 16,0 29,-12 29,-28 0,-16 -13,-29 -29,-29z"/>
     </g>
    </g>
   </g>
   <g>
    <g>
     <polygon class="fil0" points="233,3107 0,3107 0,3099 229,3099 301,3013 707,3013 870,2850 870,2198 819,2139 825,2134 877,2195 877,2853 711,3020 305,3020 "/>
    </g>
    <g>
     <g>
      <path class="fil0" d="M801 2156c-10,-12 -8,-30 4,-40 12,-10 30,-9 40,3 10,12 9,30 -3,40 -12,11 -30,9 -41,-3z"/>
     </g>
    </g>
   </g>
   <g>
    <g>
     <polygon class="fil0" points="2797,541 2714,454 2480,454 2383,347 2160,347 2044,225 2044,1 2051,1 2051,222 2163,340 2386,340 2484,446 2717,446 2802,536 "/>
    </g>
    <g>
     <g>
      <path class="fil0" d="M2819 517c11,12 11,30 -1,41 -11,11 -29,10 -40,-1 -11,-12 -10,-30 1,-41 11,-10 29,-10 40,1z"/>
     </g>
    </g>
   </g>
   <g>
    <g>
     <polygon class="fil0" points="2871,466 2788,379 2554,379 2457,273 2201,273 2118,190 2118,1 2125,1 2125,187 2204,265 2460,265 2558,372 2791,372 2877,461 "/>
    </g>
    <g>
     <g>
      <path class="fil0" d="M2893 443c11,12 11,30 -1,40 -11,11 -29,11 -40,-1 -11,-11 -10,-29 1,-40 12,-11 30,-10 40,1z"/>
     </g>
    </g>
   </g>
   <g>
    <g>
     <polygon class="fil0" points="2167,1810 1896,1810 1896,1802 2164,1802 2250,1728 2250,1646 2257,1646 2257,1732 "/>
    </g>
    <g>
     <g>
      <path class="fil0" d="M1898 1835c-16,0 -29,-13 -29,-29 0,-15 13,-28 29,-28 15,0 28,13 28,28 0,16 -13,29 -28,29z"/>
     </g>
    </g>
    <g>
     <g>
      <path class="fil0" d="M2282 1647c0,-16 -13,-28 -28,-28 -16,0 -29,12 -29,28 0,16 13,29 29,29 15,0 28,-13 28,-29z"/>
     </g>
    </g>
   </g>
   <g>
    <g>
     <polygon class="fil0" points="2196,1875 1896,1875 1896,1867 2194,1867 2310,1775 2313,1646 2321,1646 2318,1779 "/>
    </g>
    <g>
     <g>
      <path class="fil0" d="M1898 1899c-16,0 -29,-12 -29,-28 0,-16 13,-29 29,-29 15,0 28,13 28,29 0,16 -13,28 -28,28z"/>
     </g>
    </g>
    <g>
     <g>
      <path class="fil0" d="M2345 1648c1,-16 -12,-29 -28,-29 -15,-1 -28,12 -29,27 0,16 12,29 28,30 16,0 29,-13 29,-28z"/>
     </g>
    </g>
   </g>
   <g>
    <g>
     <polygon class="fil0" points="297,2386 0,2386 0,2378 295,2378 381,2304 381,2222 388,2222 388,2308 "/>
    </g>
    <g>
     <g>
      <path class="fil0" d="M413 2223c0,-16 -13,-28 -29,-28 -15,0 -28,12 -28,28 0,16 13,29 28,29 16,0 29,-13 29,-29z"/>
     </g>
    </g>
   </g>
   <g>
    <g>
     <polygon class="fil0" points="327,2450 0,2450 0,2443 324,2443 441,2351 444,2222 451,2222 449,2355 "/>
    </g>
    <g>
     <g>
      <path class="fil0" d="M476 2224c0,-16 -12,-29 -28,-29 -16,-1 -29,12 -29,27 0,16 12,29 28,30 16,0 29,-13 29,-28z"/>
     </g>
    </g>
   </g>
   <g>
    <g>
     <polygon class="fil0" points="3328,1378 3149,1195 3149,1065 3156,1065 3156,1192 3328,1367 3561,1145 3566,1150 "/>
    </g>
    <g>
     <g>
      <path class="fil0" d="M3124 1066c0,-15 13,-28 29,-28 15,0 28,13 28,28 0,16 -13,29 -28,29 -16,0 -29,-13 -29,-29z"/>
     </g>
    </g>
    <g>
     <g>
      <path class="fil0" d="M3582 1169c11,-11 12,-29 1,-40 -11,-12 -29,-12 -40,-1 -12,11 -12,29 -1,40 11,11 29,12 40,1z"/>
     </g>
    </g>
   </g>
   <g>
    <g>
     <polygon class="fil0" points="3328,1293 3219,1183 3225,1177 3328,1283 3561,1060 3566,1066 "/>
    </g>
    <g>
     <g>
      <path class="fil0" d="M3203 1201c-11,-11 -11,-29 0,-40 11,-11 29,-11 40,0 11,11 11,29 0,40 -11,11 -29,11 -40,0z"/>
     </g>
    </g>
    <g>
     <g>
      <path class="fil0" d="M3582 1084c11,-10 12,-29 1,-40 -11,-11 -29,-12 -40,-1 -12,11 -12,29 -1,41 11,11 29,11 40,0z"/>
     </g>
    </g>
   </g>
   <g>
    <g>
     <polygon class="fil0" points="3328,1565 2977,1210 2982,1205 3328,1555 3581,1313 3822,1310 3822,1317 3584,1320 "/>
    </g>
    <g>
     <g>
      <path class="fil0" d="M2960 1229c-11,-12 -11,-30 1,-41 11,-11 29,-11 40,1 11,11 11,29 0,40 -12,11 -30,11 -41,0z"/>
     </g>
    </g>
    <g>
     <g>
      <path class="fil0" d="M3821 1342c16,0 28,-13 28,-29 0,-16 -13,-28 -29,-28 -15,0 -28,13 -28,29 0,16 13,28 29,28z"/>
     </g>
    </g>
   </g>
   <g>
    <g>
     <polygon class="fil0" points="3328,1655 3325,1652 2960,1286 2966,1281 3328,1644 3581,1402 3739,1402 3739,1409 3584,1410 "/>
    </g>
    <g>
     <g>
      <path class="fil0" d="M2944 1305c-11,-11 -11,-29 0,-40 11,-12 29,-12 40,0 11,11 11,29 0,40 -11,11 -29,11 -40,0z"/>
     </g>
    </g>
    <g>
     <g>
      <path class="fil0" d="M3738 1434c15,0 28,-13 28,-29 0,-16 -13,-28 -29,-28 -15,0 -28,13 -28,28 0,16 13,29 29,29z"/>
     </g>
    </g>
   </g>
   <g>
    <g>
     <polygon class="fil0" points="3328,1750 2944,1359 2950,1354 3328,1739 3581,1497 3739,1498 3739,1505 3584,1505 "/>
    </g>
    <g>
     <g>
      <path class="fil0" d="M2927 1377c-11,-11 -10,-29 1,-40 11,-11 29,-11 40,0 11,12 11,30 0,41 -11,11 -29,11 -41,-1z"/>
     </g>
    </g>
    <g>
     <g>
      <path class="fil0" d="M3737 1530c16,0 29,-13 29,-28 0,-16 -13,-29 -28,-29 -16,0 -29,13 -29,28 0,16 13,29 28,29z"/>
     </g>
    </g>
   </g>
   <g>
    <g>
     <polygon class="fil0" points="3328,1478 3076,1216 3081,1003 3089,1003 3084,1213 3328,1467 3701,1111 3706,1116 "/>
    </g>
    <g>
     <g>
      <path class="fil0" d="M3056 1004c1,-16 14,-28 29,-28 16,0 29,13 28,29 0,16 -13,28 -29,28 -16,0 -28,-13 -28,-29z"/>
     </g>
    </g>
    <g>
     <g>
      <path class="fil0" d="M3722 1135c11,-11 12,-29 1,-40 -11,-12 -29,-12 -40,-1 -12,11 -12,29 -1,40 11,11 29,12 40,1z"/>
     </g>
    </g>
   </g>
   <g>
    <g>
     <polygon class="fil0" points="3333,1842 3029,1529 3035,1524 3333,1831 3464,1703 3469,1708 "/>
    </g>
    <g>
     <g>
      <path class="fil0" d="M3013 1547c-11,-11 -11,-29 0,-40 12,-11 30,-11 41,1 11,11 10,29 -1,40 -11,11 -29,11 -40,-1z"/>
     </g>
    </g>
    <g>
     <g>
      <path class="fil0" d="M3486 1727c11,-11 11,-30 0,-41 -11,-11 -29,-11 -40,0 -12,11 -12,29 -1,40 11,11 29,12 41,1z"/>
     </g>
    </g>
   </g>
   <g>
    <g>
     <polygon class="fil0" points="1067,1843 1059,1843 1059,1716 888,1541 655,1764 650,1758 888,1531 1067,1713 "/>
    </g>
    <g>
     <g>
      <path class="fil0" d="M1092 1842c0,16 -13,29 -29,29 -16,0 -28,-13 -28,-29 0,-16 12,-28 28,-28 16,0 29,12 29,28z"/>
     </g>
    </g>
    <g>
     <g>
      <path class="fil0" d="M634 1740c-12,10 -12,28 -1,40 11,11 29,12 40,1 12,-11 12,-29 1,-41 -11,-11 -29,-11 -40,0z"/>
     </g>
    </g>
   </g>
   <g>
    <g>
     <polygon class="fil0" points="655,1848 650,1843 888,1615 994,1723 988,1728 888,1626 "/>
    </g>
    <g>
     <g>
      <path class="fil0" d="M1010 1705c11,11 11,29 0,40 -11,11 -29,11 -40,0 -11,-12 -11,-30 0,-41 11,-11 29,-10 40,1z"/>
     </g>
    </g>
    <g>
     <g>
      <path class="fil0" d="M634 1824c-12,11 -12,29 -1,40 11,12 29,12 40,1 12,-11 12,-29 1,-40 -11,-11 -29,-12 -40,-1z"/>
     </g>
    </g>
   </g>
   <g>
    <g>
     <polygon class="fil0" points="1233,1704 888,1354 634,1596 539,1597 539,1590 631,1588 888,1343 1239,1698 "/>
    </g>
    <g>
     <g>
      <path class="fil0" d="M1255 1680c11,11 11,29 0,40 -11,11 -29,11 -40,0 -11,-11 -11,-29 0,-40 11,-12 29,-11 40,0z"/>
     </g>
    </g>
    <g>
     <g>
      <path class="fil0" d="M540 1565c-16,0 -29,13 -28,29 0,15 13,28 28,28 16,0 29,-13 29,-29 -1,-16 -14,-28 -29,-28z"/>
     </g>
    </g>
   </g>
   <g>
    <g>
     <polygon class="fil0" points="1250,1627 888,1264 634,1506 477,1507 477,1499 631,1499 888,1253 890,1256 1255,1622 "/>
    </g>
    <g>
     <g>
      <path class="fil0" d="M1272 1604c11,11 11,29 0,40 -11,11 -29,11 -40,0 -12,-11 -11,-29 0,-40 11,-11 29,-11 40,0z"/>
     </g>
    </g>
    <g>
     <g>
      <path class="fil0" d="M478 1475c-16,0 -28,13 -28,28 0,16 13,29 28,29 16,0 29,-13 29,-29 0,-16 -13,-28 -29,-28z"/>
     </g>
    </g>
   </g>
   <g>
    <g>
     <polygon class="fil0" points="1266,1555 888,1169 634,1411 579,1411 579,1404 631,1404 888,1158 1272,1549 "/>
    </g>
    <g>
     <g>
      <path class="fil0" d="M1288 1531c11,11 11,29 0,40 -11,11 -29,11 -40,0 -11,-11 -11,-29 0,-40 11,-11 29,-11 40,0z"/>
     </g>
    </g>
    <g>
     <g>
      <path class="fil0" d="M581 1379c-16,0 -29,13 -29,28 0,16 13,29 29,29 15,0 28,-13 28,-28 0,-16 -12,-29 -28,-29z"/>
     </g>
    </g>
   </g>
   <g>
    <g>
     <polygon class="fil0" points="1135,1906 1127,1905 1132,1696 888,1441 515,1798 510,1792 888,1431 1139,1693 "/>
    </g>
    <g>
     <g>
      <path class="fil0" d="M1159 1905c0,15 -13,28 -29,28 -15,-1 -28,-14 -28,-30 1,-15 14,-28 30,-27 15,0 28,13 27,29z"/>
     </g>
    </g>
    <g>
     <g>
      <path class="fil0" d="M494 1773c-12,11 -12,29 -1,41 11,11 29,12 40,1 12,-11 12,-29 1,-41 -11,-11 -29,-11 -40,-1z"/>
     </g>
    </g>
   </g>
   <g>
    <g>
     <polygon class="fil0" points="1181,1385 882,1078 752,1206 746,1201 883,1067 1186,1379 "/>
    </g>
    <g>
     <g>
      <path class="fil0" d="M1203 1361c11,11 11,30 -1,40 -11,11 -29,11 -40,0 -11,-11 -11,-29 1,-40 11,-11 29,-11 40,0z"/>
     </g>
    </g>
    <g>
     <g>
      <path class="fil0" d="M730 1182c-11,11 -11,29 0,40 11,11 29,12 40,1 11,-11 11,-29 0,-41 -11,-11 -29,-11 -40,0z"/>
     </g>
    </g>
   </g>
   <g>
    <g>
     <polygon class="fil0" points="2218,1017 2210,1017 2212,849 2270,804 2270,710 2112,599 2116,593 2278,706 2278,808 2219,853 "/>
    </g>
    <g>
     <g>
      <path class="fil0" d="M2099 620c-13,-9 -16,-27 -7,-40 9,-13 27,-16 40,-7 12,9 16,27 7,40 -9,13 -27,16 -40,7z"/>
     </g>
    </g>
    <g>
     <g>
      <path class="fil0" d="M2186 1015c0,16 12,29 28,29 16,0 29,-13 29,-29 0,-15 -13,-28 -29,-28 -15,0 -28,12 -28,28z"/>
     </g>
    </g>
   </g>
   <g>
    <g>
     <polygon class="fil0" points="1892,2547 1887,2542 1914,2515 1914,2364 1688,2138 1662,2138 1662,2131 1691,2131 1921,2361 1921,2518 "/>
    </g>
    <g>
     <g>
      <path class="fil0" d="M1663 2163c-15,0 -28,-13 -28,-29 0,-15 13,-28 28,-28 16,0 29,13 29,28 0,16 -13,29 -29,29z"/>
     </g>
    </g>
    <g>
     <g>
      <path class="fil0" d="M1870 2523c-11,11 -11,29 0,40 11,11 29,12 40,1 11,-11 12,-29 1,-41 -11,-11 -29,-11 -41,0z"/>
     </g>
    </g>
   </g>
   <g>
    <g>
     <polygon class="fil0" points="1903,2637 1898,2631 1991,2538 1991,2350 1658,2032 1664,2027 1998,2347 1998,2541 "/>
    </g>
    <g>
     <g>
      <path class="fil0" d="M1642 2051c-11,-11 -11,-29 -1,-40 11,-12 29,-12 41,-1 11,11 11,29 1,40 -11,12 -29,12 -41,1z"/>
     </g>
    </g>
    <g>
     <g>
      <path class="fil0" d="M1881 2613c-11,11 -10,29 1,40 11,11 29,11 40,0 11,-11 11,-29 0,-40 -11,-11 -29,-11 -41,0z"/>
     </g>
    </g>
   </g>
   <g>
    <g>
     <polygon class="fil0" points="2040,2592 2034,2587 2072,2547 2072,2350 1657,1936 1541,1936 1480,1995 1475,1989 1538,1929 1660,1929 1661,1930 2079,2347 2079,2550 "/>
    </g>
    <g>
     <g>
      <path class="fil0" d="M1498 2012c-11,10 -29,10 -40,-1 -11,-11 -10,-30 1,-40 11,-11 29,-11 40,0 11,12 11,30 -1,41z"/>
     </g>
    </g>
    <g>
     <g>
      <path class="fil0" d="M2017 2569c-11,12 -10,30 1,41 12,10 30,10 41,-2 10,-11 10,-29 -2,-40 -11,-11 -29,-10 -40,1z"/>
     </g>
    </g>
   </g>
   <g>
    <g>
     <polygon class="fil0" points="2136,2591 2130,2586 2146,2567 2146,2350 1682,1878 1457,1878 1457,1870 1685,1870 1687,1871 2154,2347 2154,2570 "/>
    </g>
    <g>
     <g>
      <path class="fil0" d="M1459 1903c-16,0 -29,-13 -29,-29 0,-16 13,-28 29,-28 16,0 28,12 28,28 0,16 -12,29 -28,29z"/>
     </g>
    </g>
    <g>
     <g>
      <path class="fil0" d="M2112 2569c-10,13 -9,30 3,41 12,10 30,8 41,-4 10,-12 8,-30 -4,-40 -12,-10 -30,-9 -40,3z"/>
     </g>
    </g>
   </g>
   <g>
    <g>
     <polygon class="fil0" points="3816,3138 3679,2986 3679,2183 3507,2005 3507,1794 3514,1794 3514,2002 3687,2180 3687,2983 3822,3133 "/>
    </g>
    <g>
     <g>
      <path class="fil0" d="M3482 1796c0,-16 13,-29 28,-29 16,0 29,13 29,29 0,15 -13,28 -29,28 -15,0 -28,-13 -28,-28z"/>
     </g>
    </g>
    <g>
     <g>
      <path class="fil0" d="M3797 3154c10,11 28,12 40,2 12,-11 13,-29 2,-40 -10,-12 -28,-13 -40,-2 -12,10 -13,28 -2,40z"/>
     </g>
    </g>
   </g>
   <g>
    <g>
     <polygon class="fil0" points="3953,3183 3761,2962 3761,2176 3591,1983 3591,1886 3598,1886 3598,1980 3768,2173 3768,2959 3958,3178 "/>
    </g>
    <g>
     <g>
      <path class="fil0" d="M3566 1888c0,-16 13,-29 29,-29 15,0 28,13 28,29 0,16 -13,28 -28,28 -16,0 -29,-12 -29,-28z"/>
     </g>
    </g>
    <g>
     <g>
      <path class="fil0" d="M3933 3198c10,12 28,13 40,3 12,-10 13,-28 3,-40 -10,-12 -28,-13 -40,-3 -12,10 -13,28 -3,40z"/>
     </g>
    </g>
   </g>
   <g>
    <g>
     <polygon class="fil0" points="4003,3102 3843,2909 3843,2172 3714,2015 3814,1930 3819,1936 3724,2016 3850,2169 3850,2906 4009,3097 "/>
    </g>
    <g>
     <g>
      <path class="fil0" d="M3797 1912c12,-10 30,-8 40,4 10,12 9,30 -3,40 -12,10 -30,9 -41,-3 -10,-12 -8,-30 4,-41z"/>
     </g>
    </g>
    <g>
     <g>
      <path class="fil0" d="M3983 3116c10,12 28,14 40,4 12,-10 14,-28 4,-40 -10,-12 -28,-14 -41,-4 -12,10 -13,28 -3,40z"/>
     </g>
    </g>
   </g>
   <g>
    <g>
     <polygon class="fil0" points="3303,3324 3297,3318 3380,3242 3380,2021 3050,1691 2642,1691 2469,1861 2469,2517 2527,2580 2521,2585 2461,2519 2461,1858 2639,1684 3053,1684 3387,2018 3387,3245 "/>
    </g>
    <g>
     <g>
      <path class="fil0" d="M2544 2562c10,12 10,30 -2,40 -12,11 -30,10 -40,-2 -11,-11 -10,-29 2,-40 11,-10 29,-10 40,2z"/>
     </g>
    </g>
    <g>
     <g>
      <path class="fil0" d="M3282 3299c-12,11 -13,29 -2,40 11,12 29,12 40,2 12,-11 13,-29 2,-41 -11,-11 -29,-12 -40,-1z"/>
     </g>
    </g>
   </g>
   <g>
    <g>
     <polygon class="fil0" points="3251,3279 0,3279 0,3272 3248,3272 3316,3210 3316,2056 3012,1748 2679,1748 2538,1901 2538,2488 2623,2569 2693,2569 2693,2577 2620,2577 2530,2491 2530,1899 2676,1741 3015,1741 3016,1742 3324,2052 3324,3213 "/>
    </g>
    <g>
     <g>
      <path class="fil0" d="M2691 2545c16,0 29,12 29,28 0,16 -13,29 -29,29 -15,0 -28,-13 -28,-29 0,-16 13,-28 28,-28z"/>
     </g>
    </g>
   </g>
   <g>
    <g>
     <polygon class="fil0" points="3205,3205 0,3205 0,3197 3202,3197 3246,3154 3246,2085 2976,1821 2708,1821 2617,1917 2617,2367 2610,2367 2610,1914 2705,1814 2979,1814 2980,1815 3253,2082 3253,3158 "/>
    </g>
    <g>
     <g>
      <path class="fil0" d="M2642 2365c0,16 -13,29 -28,29 -16,0 -29,-13 -29,-29 0,-15 13,-28 29,-28 15,0 28,13 28,28z"/>
     </g>
    </g>
   </g>
   <g>
    <g>
     <polygon class="fil0" points="3179,2760 3172,2760 3172,2125 2941,1902 2751,1902 2700,1958 2700,2266 2692,2266 2692,1955 2747,1894 2944,1894 2945,1895 3179,2121 "/>
    </g>
    <g>
     <g>
      <path class="fil0" d="M2724 2264c0,16 -12,29 -28,29 -16,0 -29,-13 -29,-29 0,-15 13,-28 29,-28 16,0 28,13 28,28z"/>
     </g>
    </g>
    <g>
     <g>
      <path class="fil0" d="M3147 2758c0,16 13,29 29,29 15,0 28,-13 28,-29 0,-15 -13,-28 -28,-28 -16,0 -29,13 -29,28z"/>
     </g>
    </g>
   </g>
   <g>
    <g>
     <polygon class="fil0" points="1329,2839 1324,2833 1370,2794 1370,2718 1517,2575 1504,2327 1569,2266 1574,2271 1512,2330 1525,2578 1378,2721 1378,2797 "/>
    </g>
    <g>
     <g>
      <path class="fil0" d="M1551 2249c11,-11 29,-11 40,1 11,11 10,29 -1,40 -12,11 -30,10 -40,-1 -11,-11 -11,-29 1,-40z"/>
     </g>
    </g>
    <g>
     <g>
      <path class="fil0" d="M1310 2813c-12,10 -14,28 -4,40 10,12 28,14 40,3 12,-10 14,-28 4,-40 -10,-12 -28,-13 -40,-3z"/>
     </g>
    </g>
   </g>
   <g>
    <g>
     <polygon class="fil0" points="1399,2906 1395,2901 1441,2862 1441,2786 1587,2643 1574,2395 1639,2334 1644,2339 1582,2398 1595,2646 1448,2789 1448,2865 "/>
    </g>
    <g>
     <g>
      <path class="fil0" d="M1621 2317c11,-11 29,-11 40,1 11,11 10,29 -1,40 -12,11 -30,10 -40,-1 -11,-11 -11,-29 1,-40z"/>
     </g>
    </g>
    <g>
     <g>
      <path class="fil0" d="M1380 2881c-12,10 -14,28 -4,40 10,12 28,14 40,3 13,-10 14,-28 4,-40 -10,-12 -28,-13 -40,-3z"/>
     </g>
    </g>
   </g>
   <g>
    <g>
     <polygon class="fil0" points="1470,2974 1465,2969 1511,2930 1511,2854 1657,2711 1644,2463 1709,2402 1714,2407 1652,2466 1665,2714 1518,2857 1518,2933 "/>
    </g>
    <g>
     <g>
      <path class="fil0" d="M1691 2385c11,-11 29,-11 40,1 11,11 10,29 -1,40 -11,11 -29,10 -40,-1 -11,-11 -11,-29 1,-40z"/>
     </g>
    </g>
    <g>
     <g>
      <path class="fil0" d="M1450 2949c-12,10 -14,28 -4,40 11,12 29,14 41,3 12,-10 13,-28 3,-40 -10,-12 -28,-13 -40,-3z"/>
     </g>
    </g>
   </g>
   <g>
    <g>
     <polygon class="fil0" points="1540,3042 1535,3037 1581,2998 1581,2922 1727,2779 1714,2531 1779,2470 1784,2475 1722,2534 1735,2782 1588,2925 1588,3001 "/>
    </g>
    <g>
     <g>
      <path class="fil0" d="M1761 2453c11,-11 29,-11 40,1 11,11 11,29 -1,40 -11,11 -29,10 -40,-1 -11,-11 -11,-29 1,-40z"/>
     </g>
    </g>
    <g>
     <g>
      <path class="fil0" d="M1520 3017c-12,10 -14,28 -3,40 10,12 28,14 40,3 12,-10 13,-28 3,-40 -10,-12 -28,-13 -40,-3z"/>
     </g>
    </g>
   </g>
   <g>
    <g>
     <polygon class="fil0" points="198,1028 193,1023 401,816 406,822 "/>
    </g>
    <g>
     <g>
      <path class="fil0" d="M216 1044c-11,12 -29,11 -40,0 -11,-11 -11,-29 0,-40 12,-11 30,-11 41,0 11,11 11,29 -1,40z"/>
     </g>
    </g>
    <g>
     <g>
      <path class="fil0" d="M423 840c11,-11 11,-29 0,-40 -11,-11 -29,-11 -40,0 -11,11 -12,29 0,40 11,11 29,11 40,0z"/>
     </g>
    </g>
   </g>
   <g>
    <g>
     <polygon class="fil0" points="212,938 206,933 506,637 511,642 "/>
    </g>
    <g>
     <g>
      <path class="fil0" d="M230 955c-11,11 -29,11 -40,-1 -11,-11 -11,-29 0,-40 11,-11 29,-11 40,0 11,12 11,30 0,41z"/>
     </g>
    </g>
    <g>
     <g>
      <path class="fil0" d="M527 661c12,-11 12,-29 1,-41 -11,-11 -30,-11 -41,0 -11,11 -11,29 0,40 11,12 29,12 40,1z"/>
     </g>
    </g>
   </g>
   <g>
    <g>
     <polygon class="fil0" points="226,848 220,843 429,637 434,642 "/>
    </g>
    <g>
     <g>
      <path class="fil0" d="M244 865c-11,11 -29,11 -40,0 -11,-12 -11,-30 0,-41 11,-11 29,-11 40,1 11,11 11,29 0,40z"/>
     </g>
    </g>
    <g>
     <g>
      <path class="fil0" d="M450 661c12,-11 12,-29 1,-41 -11,-11 -30,-11 -41,0 -11,11 -11,29 0,40 11,12 29,12 40,1z"/>
     </g>
    </g>
   </g>
   <g>
    <g>
     <polygon class="fil0" points="219,779 0,779 0,771 216,771 373,616 378,621 "/>
    </g>
    <g>
     <g>
      <path class="fil0" d="M354 599c11,-11 29,-11 40,1 12,11 11,29 0,40 -11,11 -29,11 -40,0 -11,-11 -11,-29 0,-41z"/>
     </g>
    </g>
   </g>
   <g>
    <g>
     <polygon class="fil0" points="1190,2357 983,2149 989,2144 1195,2352 "/>
    </g>
    <g>
     <g>
      <path class="fil0" d="M967 2167c-11,-11 -11,-29 0,-40 11,-11 29,-11 40,0 11,12 11,30 0,41 -11,11 -29,11 -40,-1z"/>
     </g>
    </g>
    <g>
     <g>
      <path class="fil0" d="M1171 2374c11,11 29,11 40,0 12,-11 12,-29 1,-40 -11,-11 -29,-12 -41,0 -11,11 -11,29 0,40z"/>
     </g>
    </g>
   </g>
   <g>
    <g>
     <polygon class="fil0" points="1369,2462 1073,2163 1079,2157 1375,2457 "/>
    </g>
    <g>
     <g>
      <path class="fil0" d="M1057 2181c-11,-11 -11,-29 0,-40 11,-11 29,-11 40,0 11,11 11,29 0,40 -11,11 -29,11 -40,0z"/>
     </g>
    </g>
    <g>
     <g>
      <path class="fil0" d="M1351 2478c11,12 29,12 40,1 11,-12 11,-30 0,-41 -11,-11 -29,-11 -40,0 -11,11 -11,29 0,40z"/>
     </g>
    </g>
   </g>
   <g>
    <g>
     <polygon class="fil0" points="1369,2385 1163,2177 1168,2171 1375,2380 "/>
    </g>
    <g>
     <g>
      <path class="fil0" d="M1146 2195c-11,-11 -10,-29 1,-40 11,-11 29,-11 40,0 11,11 11,29 0,40 -11,11 -29,11 -41,0z"/>
     </g>
    </g>
    <g>
     <g>
      <path class="fil0" d="M1351 2401c11,12 29,12 40,1 11,-12 11,-30 0,-41 -11,-11 -29,-11 -40,0 -11,11 -11,29 0,40z"/>
     </g>
    </g>
   </g>
   <g>
    <g>
     <polygon class="fil0" points="1390,2329 1253,2190 1258,2185 1395,2324 "/>
    </g>
    <g>
     <g>
      <path class="fil0" d="M1236 2209c-11,-12 -11,-30 0,-41 12,-11 30,-11 41,1 11,11 11,29 0,40 -12,11 -30,11 -41,0z"/>
     </g>
    </g>
    <g>
     <g>
      <path class="fil0" d="M1371 2345c11,11 30,12 41,0 11,-11 11,-29 0,-40 -11,-11 -29,-11 -40,0 -12,11 -12,29 -1,40z"/>
     </g>
    </g>
   </g>
   <g>
    <g>
     <polygon class="fil0" points="3224,966 3218,961 3243,932 3182,874 3182,260 2934,3 2937,0 2942,0 3190,257 3190,871 3253,931 "/>
    </g>
    <g>
     <g>
      <path class="fil0" d="M3200 944c-10,13 -8,31 4,41 12,10 30,8 40,-4 10,-12 8,-30 -4,-40 -12,-10 -30,-9 -40,3z"/>
     </g>
    </g>
   </g>
   <g>
    <g>
     <polygon class="fil0" points="3345,998 3338,998 3338,941 3244,846 3250,243 3022,3 3025,0 3030,0 3258,240 3252,843 3345,938 "/>
    </g>
    <g>
     <g>
      <path class="fil0" d="M3313 996c0,16 13,29 28,29 16,0 29,-13 29,-29 0,-16 -13,-28 -29,-28 -15,0 -28,12 -28,28z"/>
     </g>
    </g>
   </g>
   <g>
    <g>
     <polygon class="fil0" points="3413,1042 3406,1042 3406,928 3312,833 3318,230 3100,4 3104,0 3107,0 3326,227 3320,830 3413,925 "/>
    </g>
    <g>
     <g>
      <path class="fil0" d="M3381 1040c0,16 13,29 29,29 15,0 28,-13 28,-29 0,-16 -13,-28 -28,-28 -16,0 -29,12 -29,28z"/>
     </g>
    </g>
   </g>
   <g>
    <g>
     <polygon class="fil0" points="3479,941 3472,941 3472,912 3378,817 3384,214 3184,3 3186,0 3191,0 3392,211 3386,814 3479,909 "/>
    </g>
    <g>
     <g>
      <path class="fil0" d="M3447 940c0,15 13,28 29,28 15,0 28,-13 28,-28 0,-16 -13,-29 -28,-29 -16,0 -29,13 -29,29z"/>
     </g>
    </g>
   </g>
   <g>
    <g>
     <polygon class="fil0" points="3017,3032 2938,2957 2728,2957 2621,2850 2407,2850 2336,2775 2341,2770 2410,2842 2624,2842 2732,2950 2941,2950 3022,3027 "/>
    </g>
    <g>
     <g>
      <path class="fil0" d="M2319 2793c-11,-11 -11,-29 1,-40 11,-11 29,-10 40,1 11,11 11,29 -1,40 -11,11 -29,11 -40,-1z"/>
     </g>
    </g>
    <g>
     <g>
      <path class="fil0" d="M2999 3049c11,11 30,10 40,-1 11,-11 11,-30 -1,-40 -11,-11 -29,-11 -40,1 -11,11 -10,29 1,40z"/>
     </g>
    </g>
   </g>
   <g>
    <g>
     <polygon class="fil0" points="3017,2928 2979,2892 2770,2892 2662,2785 2448,2785 2315,2646 2321,2641 2452,2777 2665,2777 2773,2885 2982,2885 3022,2923 "/>
    </g>
    <g>
     <g>
      <path class="fil0" d="M2299 2664c-11,-11 -11,-29 1,-40 11,-11 29,-11 40,1 11,11 10,29 -1,40 -11,11 -29,11 -40,-1z"/>
     </g>
    </g>
    <g>
     <g>
      <path class="fil0" d="M2999 2945c11,11 30,10 40,-1 11,-12 11,-30 -1,-40 -11,-11 -29,-11 -40,1 -11,11 -10,29 1,40z"/>
     </g>
    </g>
   </g>
  </g>
  <g id="_783369425696">
   <g>
    <g>
     <polygon class="fil0" points="2778,1366 2551,1142 2551,324 2424,205 2424,0 2432,0 2432,202 2559,321 2559,1139 2783,1360 "/>
    </g>
    <g>
     <g>
      <path class="fil0" d="M2759 1382c11,12 29,11 41,0 11,-11 10,-29 -1,-40 -11,-11 -29,-11 -40,0 -11,11 -11,29 0,40z"/>
     </g>
    </g>
   </g>
   <g>
    <g>
     <polygon class="fil0" points="2674,1347 2496,1163 2496,354 2405,265 2362,265 2362,258 2408,258 2503,350 2503,1160 2680,1342 "/>
    </g>
    <g>
     <g>
      <path class="fil0" d="M2363 290c-15,0 -28,-13 -28,-28 0,-16 13,-29 28,-29 16,0 29,13 29,29 0,15 -13,28 -29,28z"/>
     </g>
    </g>
    <g>
     <g>
      <path class="fil0" d="M2656 1363c11,11 29,12 40,1 11,-11 11,-29 0,-41 -10,-11 -29,-11 -40,0 -11,11 -11,29 0,40z"/>
     </g>
    </g>
   </g>
   <g>
    <g>
     <polygon class="fil0" points="2591,1348 2440,1206 2440,391 2394,358 2399,352 2447,387 2447,1203 2596,1342 "/>
    </g>
    <g>
     <g>
      <path class="fil0" d="M2381 379c-13,-10 -16,-28 -6,-40 9,-13 27,-16 39,-6 13,9 16,27 7,39 -10,13 -27,16 -40,7z"/>
     </g>
    </g>
    <g>
     <g>
      <path class="fil0" d="M2573 1365c12,11 30,10 41,-1 10,-12 10,-30 -2,-41 -11,-10 -29,-10 -40,2 -11,11 -10,29 1,40z"/>
     </g>
    </g>
   </g>
   <g>
    <g>
     <polygon class="fil0" points="2878,1380 2594,1108 2594,550 2718,417 2854,417 2886,454 2880,459 2851,425 2721,425 2601,553 2601,1104 2883,1374 "/>
    </g>
    <g>
     <g>
      <path class="fil0" d="M2903 437c11,12 9,30 -3,40 -12,10 -30,9 -40,-3 -10,-12 -9,-30 3,-40 12,-11 30,-9 40,3z"/>
     </g>
    </g>
    <g>
     <g>
      <path class="fil0" d="M2860 1396c11,11 30,11 40,-1 11,-11 11,-29 -1,-40 -11,-11 -29,-10 -40,1 -11,11 -10,30 1,40z"/>
     </g>
    </g>
   </g>
   <g>
    <g>
     <polygon class="fil0" points="2532,1660 2525,1660 2525,1506 1901,890 1901,0 1908,0 1908,887 2532,1503 "/>
    </g>
    <g>
     <g>
      <path class="fil0" d="M2500 1659c0,16 13,29 29,29 15,0 28,-13 28,-29 0,-16 -13,-28 -28,-28 -16,0 -29,12 -29,28z"/>
     </g>
    </g>
   </g>
   <g>
    <g>
     <polygon class="fil0" points="2432,1704 2424,1704 2424,1495 1847,925 1847,0 1854,0 1854,922 2432,1492 "/>
    </g>
    <g>
     <g>
      <path class="fil0" d="M2399 1702c0,16 13,29 29,29 16,0 28,-13 28,-29 0,-15 -12,-28 -28,-28 -16,0 -29,13 -29,28z"/>
     </g>
    </g>
   </g>
   <g>
    <g>
     <polygon class="fil0" points="2348,1661 2340,1660 2343,1497 1800,961 1800,0 1808,0 1808,958 2351,1494 "/>
    </g>
    <g>
     <g>
      <path class="fil0" d="M2316 1659c-1,15 12,28 28,29 15,0 28,-13 29,-28 0,-16 -13,-29 -28,-29 -16,-1 -29,12 -29,28z"/>
     </g>
    </g>
   </g>
   <g>
    <g>
     <polygon class="fil0" points="2260,1577 2260,1503 1747,996 1747,0 1754,0 1754,993 2268,1499 2268,1577 "/>
    </g>
    <g>
     <g>
      <path class="fil0" d="M2235 1576c1,16 13,28 29,28 16,0 28,-12 28,-28 0,-16 -12,-29 -28,-29 -16,0 -29,13 -29,29z"/>
     </g>
    </g>
   </g>
   <g>
    <polygon class="fil0" points="947,1468 1536,887 1536,0 1544,0 1544,890 1543,891 947,1479 "/>
   </g>
   <g>
    <polygon class="fil0" points="1021,1735 947,1735 947,1727 1013,1727 1013,1492 1014,1491 1590,922 1590,0 1598,0 1598,925 1597,926 1021,1495 "/>
   </g>
   <g>
    <polygon class="fil0" points="1107,1800 947,1800 947,1792 1099,1792 1094,1494 1095,1493 1637,958 1637,0 1645,0 1645,961 1644,962 1101,1497 "/>
   </g>
   <g>
    <polygon class="fil0" points="1184,1874 947,1874 947,1867 1177,1867 1177,1604 1177,1499 1178,1498 1690,993 1690,0 1698,0 1698,996 1697,997 1185,1503 1184,1604 "/>
   </g>
   <g>
    <g>
     <polygon class="fil0" points="2253,892 2213,853 2213,440 2220,440 2220,850 2259,887 "/>
    </g>
    <g>
     <g>
      <path class="fil0" d="M2188 442c0,-16 13,-29 29,-29 15,0 28,13 28,29 0,15 -13,28 -28,28 -16,0 -29,-13 -29,-28z"/>
     </g>
    </g>
    <g>
     <g>
      <path class="fil0" d="M2235 909c12,11 30,11 41,-1 10,-11 10,-29 -1,-40 -11,-11 -29,-11 -40,1 -11,11 -11,29 0,40z"/>
     </g>
    </g>
   </g>
   <g>
    <g>
     <polygon class="fil0" points="2016,583 2008,583 2008,0 2016,0 "/>
    </g>
    <g>
     <g>
      <path class="fil0" d="M1983 582c0,16 13,28 29,28 16,0 28,-12 28,-28 0,-16 -12,-29 -28,-29 -16,0 -29,13 -29,29z"/>
     </g>
    </g>
   </g>
   <g>
    <g>
     <polygon class="fil0" points="2084,671 2076,671 2076,421 2084,421 "/>
    </g>
    <g>
     <g>
      <path class="fil0" d="M2051 422c0,-16 13,-28 29,-28 16,0 28,12 28,28 0,16 -12,29 -28,29 -16,0 -29,-13 -29,-29z"/>
     </g>
    </g>
    <g>
     <g>
      <path class="fil0" d="M2051 670c0,15 13,28 29,28 16,0 28,-13 28,-28 0,-16 -12,-29 -28,-29 -16,0 -29,13 -29,29z"/>
     </g>
    </g>
   </g>
   <g>
    <g>
     <polygon class="fil0" points="2151,590 2143,590 2143,340 2151,340 "/>
    </g>
    <g>
     <g>
      <path class="fil0" d="M2119 342c0,-16 12,-29 28,-29 16,0 29,13 29,29 0,15 -13,28 -29,28 -16,0 -28,-13 -28,-28z"/>
     </g>
    </g>
    <g>
     <g>
      <path class="fil0" d="M2119 589c0,16 12,29 28,29 16,0 29,-13 29,-29 0,-16 -13,-28 -29,-28 -16,0 -28,12 -28,28z"/>
     </g>
    </g>
   </g>
   <g>
    <g>
     <polygon class="fil0" points="3339,1451 3108,1451 3108,1443 3336,1443 3486,1298 3486,714 3398,633 3322,633 3322,625 3401,625 3494,711 3494,1302 "/>
    </g>
    <g>
     <g>
      <path class="fil0" d="M3324 658c-16,0 -29,-13 -29,-29 0,-16 13,-28 29,-28 15,0 28,12 28,28 0,16 -13,29 -28,29z"/>
     </g>
    </g>
    <g>
     <g>
      <path class="fil0" d="M3109 1418c-15,0 -28,13 -28,29 0,16 13,28 28,28 16,0 29,-12 29,-28 0,-16 -13,-29 -29,-29z"/>
     </g>
    </g>
   </g>
   <g>
    <g>
     <polygon class="fil0" points="3302,1376 3090,1376 2978,1255 2984,1250 3093,1369 3299,1369 3421,1242 3421,849 3428,849 3428,1245 "/>
    </g>
    <g>
     <g>
      <path class="fil0" d="M3396 850c0,-15 13,-28 28,-28 16,0 29,13 29,28 0,16 -13,29 -29,29 -15,0 -28,-13 -28,-29z"/>
     </g>
    </g>
    <g>
     <g>
      <path class="fil0" d="M3003 1234c-11,-11 -29,-12 -41,-1 -11,10 -12,28 -1,40 10,11 28,12 40,1 12,-10 12,-28 2,-40z"/>
     </g>
    </g>
   </g>
   <g>
    <g>
     <polygon class="fil0" points="3270,1309 3168,1309 3168,1301 3267,1301 3362,1205 3362,913 3370,913 3370,1208 "/>
    </g>
    <g>
     <g>
      <path class="fil0" d="M3337 914c0,-16 13,-28 29,-28 16,0 28,12 28,28 0,16 -12,29 -28,29 -16,0 -29,-13 -29,-29z"/>
     </g>
    </g>
    <g>
     <g>
      <path class="fil0" d="M3170 1277c-16,0 -29,12 -29,28 0,16 13,29 29,29 15,0 28,-13 28,-29 0,-16 -13,-28 -28,-28z"/>
     </g>
    </g>
   </g>
   <g>
    <g>
     <polygon class="fil0" points="3120,1161 3115,1155 3173,1105 3173,914 3229,863 3229,775 3237,775 3237,866 3180,917 3180,1109 "/>
    </g>
    <g>
     <g>
      <path class="fil0" d="M3205 776c0,-16 12,-28 28,-28 16,0 29,12 29,28 0,16 -13,29 -29,29 -16,0 -28,-13 -28,-29z"/>
     </g>
    </g>
    <g>
     <g>
      <path class="fil0" d="M3100 1136c-12,10 -13,28 -3,40 10,12 28,13 40,3 12,-10 13,-28 3,-40 -10,-12 -28,-14 -40,-3z"/>
     </g>
    </g>
   </g>
   <g>
    <g>
     <polygon class="fil0" points="3067,1146 2931,1146 2854,1061 2859,1056 2934,1139 3063,1139 3119,1082 3119,884 3176,834 3176,677 3084,606 3089,600 3184,673 3184,838 3126,887 3126,1085 "/>
    </g>
    <g>
     <g>
      <path class="fil0" d="M3070 626c-12,-9 -15,-27 -5,-39 10,-13 28,-15 40,-6 12,10 15,28 5,40 -9,13 -27,15 -40,5z"/>
     </g>
    </g>
    <g>
     <g>
      <path class="fil0" d="M2879 1040c-11,-12 -29,-13 -41,-2 -11,10 -12,28 -2,40 11,12 29,13 41,2 11,-10 12,-28 2,-40z"/>
     </g>
    </g>
   </g>
   <g>
    <g>
     <polygon class="fil0" points="2921,1586 2915,1581 2970,1514 3377,1514 3539,1351 3539,699 3489,641 3494,636 3547,697 3547,1355 3380,1521 2974,1521 "/>
    </g>
    <g>
     <g>
      <path class="fil0" d="M3471 658c-10,-12 -9,-30 3,-40 12,-11 30,-9 40,3 10,12 9,30 -3,40 -12,10 -30,9 -40,-3z"/>
     </g>
    </g>
    <g>
     <g>
      <path class="fil0" d="M2897 1564c-10,12 -9,30 3,40 13,10 30,9 41,-3 10,-13 8,-31 -4,-41 -12,-10 -30,-8 -40,4z"/>
     </g>
    </g>
   </g>
   <g>
    <polygon class="fil0" points="1506,2949 947,2949 947,2942 1503,2942 1653,2797 1653,2213 1565,2131 947,2131 947,2124 1568,2124 1661,2209 1661,2800 "/>
   </g>
   <g>
    <g>
     <polygon class="fil0" points="1469,2875 1257,2875 1128,2735 947,2735 947,2728 1131,2728 1260,2867 1466,2867 1588,2740 1588,2348 1595,2348 1595,2743 "/>
    </g>
    <g>
     <g>
      <path class="fil0" d="M1563 2349c0,-16 13,-28 28,-28 16,0 29,12 29,28 0,16 -13,29 -29,29 -15,0 -28,-13 -28,-29z"/>
     </g>
    </g>
   </g>
   <g>
    <g>
     <polygon class="fil0" points="1437,2808 1335,2808 1335,2800 1434,2800 1529,2703 1529,2411 1537,2411 1537,2706 "/>
    </g>
    <g>
     <g>
      <path class="fil0" d="M1504 2413c0,-16 13,-29 29,-29 16,0 28,13 28,29 0,16 -12,28 -28,28 -16,0 -29,-12 -29,-28z"/>
     </g>
    </g>
    <g>
     <g>
      <path class="fil0" d="M1337 2775c-16,0 -29,13 -29,29 0,16 13,28 29,28 15,0 28,-12 28,-28 0,-16 -13,-29 -28,-29z"/>
     </g>
    </g>
   </g>
   <g>
    <g>
     <polygon class="fil0" points="1069,3107 947,3107 947,3099 1066,3099 1137,3013 1544,3013 1706,2850 1706,2198 1656,2139 1661,2134 1714,2195 1714,2853 1547,3020 1141,3020 "/>
    </g>
    <g>
     <g>
      <path class="fil0" d="M1638 2156c-10,-12 -9,-30 3,-40 12,-10 30,-9 40,3 10,12 9,30 -3,40 -12,11 -30,9 -40,-3z"/>
     </g>
    </g>
   </g>
   <g>
    <g>
     <polygon class="fil0" points="3633,541 3550,454 3317,454 3219,347 2996,347 2880,225 2880,1 2888,1 2888,222 3000,340 3223,340 3320,446 3554,446 3639,536 "/>
    </g>
    <g>
     <g>
      <path class="fil0" d="M3656 517c10,12 10,30 -1,41 -12,11 -30,10 -41,-1 -11,-12 -10,-30 1,-41 12,-10 30,-10 41,1z"/>
     </g>
    </g>
   </g>
   <g>
    <g>
     <polygon class="fil0" points="3707,466 3625,379 3391,379 3293,273 3037,273 2954,190 2954,1 2962,1 2962,187 3040,265 3297,265 3394,372 3628,372 3713,461 "/>
    </g>
    <g>
     <g>
      <path class="fil0" d="M3730 443c11,12 10,30 -1,40 -12,11 -30,11 -40,-1 -11,-11 -11,-29 1,-40 11,-11 29,-10 40,1z"/>
     </g>
    </g>
   </g>
   <g>
    <g>
     <polygon class="fil0" points="3003,1810 2733,1810 2733,1802 3000,1802 3086,1728 3086,1646 3094,1646 3094,1732 "/>
    </g>
    <g>
     <g>
      <path class="fil0" d="M2734 1835c-16,0 -28,-13 -28,-29 0,-15 12,-28 28,-28 16,0 29,13 29,28 0,16 -13,29 -29,29z"/>
     </g>
    </g>
    <g>
     <g>
      <path class="fil0" d="M3118 1647c0,-16 -12,-28 -28,-28 -16,0 -29,12 -29,28 0,16 13,29 29,29 16,0 28,-13 28,-29z"/>
     </g>
    </g>
   </g>
   <g>
    <g>
     <polygon class="fil0" points="3033,1875 2733,1875 2733,1867 3030,1867 3147,1775 3149,1646 3157,1646 3154,1779 "/>
    </g>
    <g>
     <g>
      <path class="fil0" d="M2734 1899c-16,0 -28,-12 -28,-28 0,-16 12,-29 28,-29 16,0 29,13 29,29 0,16 -13,28 -29,28z"/>
     </g>
    </g>
    <g>
     <g>
      <path class="fil0" d="M3182 1648c0,-16 -13,-29 -28,-29 -16,-1 -29,12 -29,27 -1,16 12,29 28,30 15,0 28,-13 29,-28z"/>
     </g>
    </g>
   </g>
   <g>
    <g>
     <polygon class="fil0" points="1134,2386 947,2386 947,2378 1131,2378 1217,2304 1217,2222 1225,2222 1225,2308 "/>
    </g>
    <g>
     <g>
      <path class="fil0" d="M1249 2223c0,-16 -12,-28 -28,-28 -16,0 -29,12 -29,28 0,16 13,29 29,29 16,0 28,-13 28,-29z"/>
     </g>
    </g>
   </g>
   <g>
    <g>
     <polygon class="fil0" points="1163,2450 947,2450 947,2443 1161,2443 1277,2351 1280,2222 1288,2222 1285,2355 "/>
    </g>
    <g>
     <g>
      <path class="fil0" d="M1312 2224c1,-16 -12,-29 -27,-29 -16,-1 -29,12 -30,27 0,16 13,29 28,30 16,0 29,-13 29,-28z"/>
     </g>
    </g>
   </g>
   <g>
    <g>
     <polygon class="fil0" points="4164,1378 3985,1195 3985,1065 3993,1065 3993,1192 4164,1367 4397,1145 4402,1150 "/>
    </g>
    <g>
     <g>
      <path class="fil0" d="M3961 1066c0,-15 12,-28 28,-28 16,0 29,13 29,28 0,16 -13,29 -29,29 -16,0 -28,-13 -28,-29z"/>
     </g>
    </g>
    <g>
     <g>
      <path class="fil0" d="M4418 1169c12,-11 12,-29 1,-40 -11,-12 -29,-12 -40,-1 -11,11 -12,29 -1,40 11,11 29,12 40,1z"/>
     </g>
    </g>
   </g>
   <g>
    <g>
     <polygon class="fil0" points="4164,1293 4056,1183 4061,1177 4164,1283 4397,1060 4402,1066 "/>
    </g>
    <g>
     <g>
      <path class="fil0" d="M4039 1201c-11,-11 -11,-29 0,-40 12,-11 30,-11 41,0 11,11 11,29 -1,40 -11,11 -29,11 -40,0z"/>
     </g>
    </g>
    <g>
     <g>
      <path class="fil0" d="M4418 1084c12,-10 12,-29 1,-40 -11,-11 -29,-12 -40,-1 -11,11 -12,29 -1,41 11,11 29,11 40,0z"/>
     </g>
    </g>
   </g>
   <g>
    <g>
     <polygon class="fil0" points="4164,1565 3813,1210 3819,1205 4164,1555 4418,1313 4658,1310 4659,1317 4421,1320 "/>
    </g>
    <g>
     <g>
      <path class="fil0" d="M3797 1229c-11,-12 -11,-30 0,-41 11,-11 29,-11 40,1 11,11 11,29 0,40 -11,11 -29,11 -40,0z"/>
     </g>
    </g>
    <g>
     <g>
      <path class="fil0" d="M4657 1342c16,0 29,-13 29,-29 -1,-16 -13,-28 -29,-28 -16,0 -29,13 -28,29 0,16 13,28 28,28z"/>
     </g>
    </g>
   </g>
   <g>
    <g>
     <polygon class="fil0" points="4164,1655 4162,1652 3797,1286 3802,1281 4164,1644 4418,1402 4575,1402 4575,1409 4421,1410 "/>
    </g>
    <g>
     <g>
      <path class="fil0" d="M3780 1305c-11,-11 -11,-29 0,-40 11,-12 29,-12 40,0 12,11 12,29 0,40 -11,11 -29,11 -40,0z"/>
     </g>
    </g>
    <g>
     <g>
      <path class="fil0" d="M4574 1434c16,0 28,-13 28,-29 0,-16 -12,-28 -28,-28 -16,0 -29,13 -29,28 0,16 13,29 29,29z"/>
     </g>
    </g>
   </g>
   <g>
    <g>
     <polygon class="fil0" points="4164,1750 3780,1359 3786,1354 4164,1739 4418,1497 4575,1498 4575,1505 4421,1505 "/>
    </g>
    <g>
     <g>
      <path class="fil0" d="M3764 1377c-11,-11 -11,-29 0,-40 11,-11 30,-11 41,0 11,12 10,30 -1,41 -11,11 -29,11 -40,-1z"/>
     </g>
    </g>
    <g>
     <g>
      <path class="fil0" d="M4574 1530c16,0 28,-13 28,-28 0,-16 -12,-29 -28,-29 -16,0 -29,13 -29,28 0,16 13,29 29,29z"/>
     </g>
    </g>
   </g>
   <g>
    <g>
     <polygon class="fil0" points="4164,1478 3913,1216 3917,1003 3925,1003 3920,1213 4164,1467 4537,1111 4542,1116 "/>
    </g>
    <g>
     <g>
      <path class="fil0" d="M3893 1004c0,-16 13,-28 29,-28 16,0 28,13 28,29 -1,16 -14,28 -29,28 -16,0 -29,-13 -28,-29z"/>
     </g>
    </g>
    <g>
     <g>
      <path class="fil0" d="M4558 1135c12,-11 12,-29 1,-40 -11,-12 -29,-12 -40,-1 -11,11 -12,29 -1,40 11,11 29,12 40,1z"/>
     </g>
    </g>
   </g>
   <g>
    <g>
     <polygon class="fil0" points="4170,1842 3866,1529 3871,1524 4170,1831 4300,1703 4306,1708 "/>
    </g>
    <g>
     <g>
      <path class="fil0" d="M3849 1547c-11,-11 -11,-29 1,-40 11,-11 29,-11 40,1 11,11 11,29 -1,40 -11,11 -29,11 -40,-1z"/>
     </g>
    </g>
    <g>
     <g>
      <path class="fil0" d="M4322 1727c11,-11 11,-30 0,-41 -11,-11 -29,-11 -40,0 -11,11 -11,29 0,40 11,11 29,12 40,1z"/>
     </g>
    </g>
   </g>
   <g>
    <g>
     <polygon class="fil0" points="1903,1843 1896,1843 1896,1716 1724,1541 1491,1764 1486,1758 1724,1531 1903,1713 "/>
    </g>
    <g>
     <g>
      <path class="fil0" d="M1928 1842c0,16 -13,29 -29,29 -15,0 -28,-13 -28,-29 0,-16 13,-28 28,-28 16,0 29,12 29,28z"/>
     </g>
    </g>
    <g>
     <g>
      <path class="fil0" d="M1470 1740c-11,10 -12,28 -1,40 11,11 29,12 41,1 11,-11 11,-29 0,-41 -10,-11 -28,-11 -40,0z"/>
     </g>
    </g>
   </g>
   <g>
    <g>
     <polygon class="fil0" points="1491,1848 1486,1843 1724,1615 1830,1723 1825,1728 1724,1626 "/>
    </g>
    <g>
     <g>
      <path class="fil0" d="M1847 1705c11,11 10,29 -1,40 -11,11 -29,11 -40,0 -11,-12 -11,-30 0,-41 12,-11 30,-10 41,1z"/>
     </g>
    </g>
    <g>
     <g>
      <path class="fil0" d="M1470 1824c-11,11 -12,29 -1,40 11,12 29,12 41,1 11,-11 11,-29 0,-40 -10,-11 -28,-12 -40,-1z"/>
     </g>
    </g>
   </g>
   <g>
    <g>
     <polygon class="fil0" points="2070,1704 1724,1354 1471,1596 1375,1597 1375,1590 1468,1588 1724,1343 2075,1698 "/>
    </g>
    <g>
     <g>
      <path class="fil0" d="M2092 1680c11,11 11,29 -1,40 -11,11 -29,11 -40,0 -11,-11 -11,-29 0,-40 12,-12 30,-11 41,0z"/>
     </g>
    </g>
    <g>
     <g>
      <path class="fil0" d="M1376 1565c-16,0 -28,13 -28,29 0,15 13,28 29,28 16,0 28,-13 28,-29 0,-16 -13,-28 -29,-28z"/>
     </g>
    </g>
   </g>
   <g>
    <g>
     <polygon class="fil0" points="2086,1627 1724,1264 1471,1506 1313,1507 1313,1499 1468,1499 1724,1253 1727,1256 2092,1622 "/>
    </g>
    <g>
     <g>
      <path class="fil0" d="M2108 1604c11,11 11,29 0,40 -11,11 -29,11 -40,0 -11,-11 -11,-29 0,-40 11,-11 29,-11 40,0z"/>
     </g>
    </g>
    <g>
     <g>
      <path class="fil0" d="M1314 1475c-15,0 -28,13 -28,28 0,16 13,29 29,29 15,0 28,-13 28,-29 0,-16 -13,-28 -29,-28z"/>
     </g>
    </g>
   </g>
   <g>
    <g>
     <polygon class="fil0" points="2103,1555 1724,1169 1471,1411 1416,1411 1416,1404 1468,1404 1724,1158 2108,1549 "/>
    </g>
    <g>
     <g>
      <path class="fil0" d="M2125 1531c11,11 10,29 -1,40 -11,11 -29,11 -40,0 -11,-11 -11,-29 0,-40 12,-11 30,-11 41,0z"/>
     </g>
    </g>
    <g>
     <g>
      <path class="fil0" d="M1417 1379c-15,0 -28,13 -28,28 0,16 12,29 28,29 16,0 29,-13 29,-28 0,-16 -13,-29 -29,-29z"/>
     </g>
    </g>
   </g>
   <g>
    <g>
     <polygon class="fil0" points="1971,1906 1963,1905 1968,1696 1724,1441 1351,1798 1346,1792 1724,1431 1976,1693 "/>
    </g>
    <g>
     <g>
      <path class="fil0" d="M1996 1905c-1,15 -14,28 -29,28 -16,-1 -29,-14 -28,-30 0,-15 13,-28 29,-27 16,0 28,13 28,29z"/>
     </g>
    </g>
    <g>
     <g>
      <path class="fil0" d="M1330 1773c-11,11 -12,29 -1,41 11,11 29,12 41,1 11,-11 11,-29 0,-41 -10,-11 -28,-11 -40,-1z"/>
     </g>
    </g>
   </g>
   <g>
    <g>
     <polygon class="fil0" points="2017,1385 1719,1078 1588,1206 1583,1201 1719,1067 2023,1379 "/>
    </g>
    <g>
     <g>
      <path class="fil0" d="M2039 1361c11,11 11,30 0,40 -11,11 -30,11 -40,0 -11,-11 -11,-29 0,-40 11,-11 29,-11 40,0z"/>
     </g>
    </g>
    <g>
     <g>
      <path class="fil0" d="M1567 1182c-12,11 -12,29 -1,40 11,11 29,12 40,1 12,-11 12,-29 1,-41 -11,-11 -29,-11 -40,0z"/>
     </g>
    </g>
   </g>
   <g>
    <g>
     <polygon class="fil0" points="3054,1017 3047,1017 3048,849 3106,804 3106,710 2948,599 2953,593 3114,706 3114,808 3056,853 "/>
    </g>
    <g>
     <g>
      <path class="fil0" d="M2935 620c-13,-9 -16,-27 -7,-40 9,-13 27,-16 40,-7 13,9 16,27 7,40 -9,13 -27,16 -40,7z"/>
     </g>
    </g>
    <g>
     <g>
      <path class="fil0" d="M3022 1015c0,16 13,29 28,29 16,0 29,-13 29,-29 0,-15 -12,-28 -28,-28 -16,0 -29,12 -29,28z"/>
     </g>
    </g>
   </g>
   <g>
    <g>
     <polygon class="fil0" points="2728,2547 2723,2542 2750,2515 2750,2364 2524,2138 2498,2138 2498,2131 2527,2131 2758,2361 2758,2518 "/>
    </g>
    <g>
     <g>
      <path class="fil0" d="M2500 2163c-16,0 -29,-13 -29,-29 0,-15 13,-28 29,-28 15,0 28,13 28,28 0,16 -13,29 -28,29z"/>
     </g>
    </g>
    <g>
     <g>
      <path class="fil0" d="M2707 2523c-12,11 -12,29 -1,40 11,11 29,12 40,1 12,-11 12,-29 1,-41 -11,-11 -29,-11 -40,0z"/>
     </g>
    </g>
   </g>
   <g>
    <g>
     <polygon class="fil0" points="2740,2637 2734,2631 2827,2538 2827,2350 2495,2032 2500,2027 2835,2347 2835,2541 "/>
    </g>
    <g>
     <g>
      <path class="fil0" d="M2479 2051c-12,-11 -12,-29 -1,-40 11,-12 29,-12 40,-1 11,11 12,29 1,40 -11,12 -29,12 -40,1z"/>
     </g>
    </g>
    <g>
     <g>
      <path class="fil0" d="M2718 2613c-11,11 -11,29 0,40 11,11 29,11 40,0 11,-11 11,-29 0,-40 -11,-11 -29,-11 -40,0z"/>
     </g>
    </g>
   </g>
   <g>
    <g>
     <polygon class="fil0" points="2876,2592 2871,2587 2908,2547 2908,2350 2493,1936 2377,1936 2317,1995 2311,1989 2374,1929 2497,1929 2498,1930 2916,2347 2916,2550 "/>
    </g>
    <g>
     <g>
      <path class="fil0" d="M2335 2012c-11,10 -29,10 -40,-1 -11,-11 -11,-30 0,-40 12,-11 30,-11 41,0 10,12 10,30 -1,41z"/>
     </g>
    </g>
    <g>
     <g>
      <path class="fil0" d="M2853 2569c-10,12 -10,30 2,41 11,10 29,10 40,-2 11,-11 10,-29 -1,-40 -12,-11 -30,-10 -41,1z"/>
     </g>
    </g>
   </g>
   <g>
    <g>
     <polygon class="fil0" points="2972,2591 2966,2586 2982,2567 2982,2350 2519,1878 2294,1878 2294,1870 2522,1870 2523,1871 2990,2347 2990,2570 "/>
    </g>
    <g>
     <g>
      <path class="fil0" d="M2295 1903c-16,0 -28,-13 -28,-29 0,-16 12,-28 28,-28 16,0 29,12 29,28 0,16 -13,29 -29,29z"/>
     </g>
    </g>
    <g>
     <g>
      <path class="fil0" d="M2948 2569c-10,13 -8,30 4,41 12,10 30,8 40,-4 10,-12 8,-30 -4,-40 -12,-10 -30,-9 -40,3z"/>
     </g>
    </g>
   </g>
   <g>
    <g>
     <polygon class="fil0" points="4652,3138 4516,2986 4516,2183 4343,2005 4343,1794 4351,1794 4351,2002 4523,2180 4523,2983 4658,3133 "/>
    </g>
    <g>
     <g>
      <path class="fil0" d="M4318 1796c0,-16 13,-29 29,-29 16,0 28,13 28,29 0,15 -12,28 -28,28 -16,0 -29,-13 -29,-28z"/>
     </g>
    </g>
    <g>
     <g>
      <path class="fil0" d="M4633 3154c11,11 29,12 40,2 12,-11 13,-29 3,-40 -11,-12 -29,-13 -41,-2 -11,10 -12,28 -2,40z"/>
     </g>
    </g>
   </g>
   <g>
    <g>
     <polygon class="fil0" points="4737,3123 4597,2962 4597,2176 4427,1983 4427,1886 4435,1886 4435,1980 4605,2173 4605,2959 4737,3111 "/>
    </g>
    <g>
     <g>
      <path class="fil0" d="M4402 1888c0,-16 13,-29 29,-29 16,0 28,13 28,29 0,16 -12,28 -28,28 -16,0 -29,-12 -29,-28z"/>
     </g>
    </g>
   </g>
   <g>
    <g>
     <polygon class="fil0" points="4737,2979 4679,2909 4679,2172 4550,2015 4650,1930 4655,1936 4561,2016 4686,2169 4686,2906 4737,2967 "/>
    </g>
    <g>
     <g>
      <path class="fil0" d="M4633 1912c12,-10 30,-8 40,4 11,12 9,30 -3,40 -12,10 -30,9 -40,-3 -10,-12 -9,-30 3,-41z"/>
     </g>
    </g>
   </g>
   <g>
    <g>
     <polygon class="fil0" points="4139,3324 4134,3318 4216,3242 4216,2021 3887,1691 3478,1691 3305,1861 3305,2517 3363,2580 3357,2585 3298,2519 3298,1858 3475,1684 3890,1684 4224,2018 4224,3245 "/>
    </g>
    <g>
     <g>
      <path class="fil0" d="M3380 2562c11,12 10,30 -2,40 -11,11 -29,10 -40,-2 -11,-11 -10,-29 2,-40 12,-10 30,-10 40,2z"/>
     </g>
    </g>
    <g>
     <g>
      <path class="fil0" d="M4118 3299c-11,11 -12,29 -2,40 11,12 29,12 41,2 11,-11 12,-29 1,-41 -10,-11 -28,-12 -40,-1z"/>
     </g>
    </g>
   </g>
   <g>
    <g>
     <polygon class="fil0" points="4087,3279 947,3279 947,3272 4085,3272 4153,3210 4153,2056 3848,1748 3515,1748 3374,1901 3374,2488 3460,2569 3529,2569 3529,2577 3456,2577 3367,2491 3367,1899 3512,1741 3851,1741 3852,1742 4160,2052 4160,3213 "/>
    </g>
    <g>
     <g>
      <path class="fil0" d="M3528 2545c15,0 28,12 28,28 0,16 -13,29 -28,29 -16,0 -29,-13 -29,-29 0,-16 13,-28 29,-28z"/>
     </g>
    </g>
   </g>
   <g>
    <g>
     <polygon class="fil0" points="4041,3205 947,3205 947,3197 4038,3197 4082,3154 4082,2085 3812,1821 3545,1821 3454,1917 3454,2367 3446,2367 3446,1914 3541,1814 3815,1814 3816,1815 4090,2082 4090,3158 "/>
    </g>
    <g>
     <g>
      <path class="fil0" d="M3479 2365c0,16 -13,29 -29,29 -16,0 -28,-13 -28,-29 0,-15 12,-28 28,-28 16,0 29,13 29,28z"/>
     </g>
    </g>
   </g>
   <g>
    <g>
     <polygon class="fil0" points="4016,2760 4008,2760 4008,2125 3777,1902 3587,1902 3536,1958 3536,2266 3529,2266 3529,1955 3584,1894 3780,1894 3781,1895 4016,2121 "/>
    </g>
    <g>
     <g>
      <path class="fil0" d="M3561 2264c0,16 -13,29 -29,29 -15,0 -28,-13 -28,-29 0,-15 13,-28 28,-28 16,0 29,13 29,28z"/>
     </g>
    </g>
    <g>
     <g>
      <path class="fil0" d="M3984 2758c0,16 12,29 28,29 16,0 29,-13 29,-29 0,-15 -13,-28 -29,-28 -16,0 -28,13 -28,28z"/>
     </g>
    </g>
   </g>
   <g>
    <g>
     <polygon class="fil0" points="2166,2839 2161,2833 2207,2794 2207,2718 2353,2575 2341,2327 2405,2266 2410,2271 2348,2330 2361,2578 2214,2721 2214,2797 "/>
    </g>
    <g>
     <g>
      <path class="fil0" d="M2387 2249c11,-11 29,-11 40,1 11,11 11,29 -1,40 -11,11 -29,10 -40,-1 -11,-11 -10,-29 1,-40z"/>
     </g>
    </g>
    <g>
     <g>
      <path class="fil0" d="M2146 2813c-12,10 -14,28 -3,40 10,12 28,14 40,3 12,-10 13,-28 3,-40 -10,-12 -28,-13 -40,-3z"/>
     </g>
    </g>
   </g>
   <g>
    <g>
     <polygon class="fil0" points="2236,2906 2231,2901 2277,2862 2277,2786 2423,2643 2411,2395 2475,2334 2480,2339 2418,2398 2431,2646 2284,2789 2284,2865 "/>
    </g>
    <g>
     <g>
      <path class="fil0" d="M2457 2317c11,-11 30,-11 40,1 11,11 11,29 -1,40 -11,11 -29,10 -40,-1 -11,-11 -10,-29 1,-40z"/>
     </g>
    </g>
    <g>
     <g>
      <path class="fil0" d="M2216 2881c-12,10 -13,28 -3,40 10,12 28,14 40,3 12,-10 13,-28 3,-40 -10,-12 -28,-13 -40,-3z"/>
     </g>
    </g>
   </g>
   <g>
    <g>
     <polygon class="fil0" points="2306,2974 2301,2969 2347,2930 2347,2854 2493,2711 2481,2463 2545,2402 2550,2407 2488,2466 2501,2714 2355,2857 2355,2933 "/>
    </g>
    <g>
     <g>
      <path class="fil0" d="M2527 2385c12,-11 30,-11 40,1 11,11 11,29 -1,40 -11,11 -29,10 -40,-1 -11,-11 -10,-29 1,-40z"/>
     </g>
    </g>
    <g>
     <g>
      <path class="fil0" d="M2286 2949c-12,10 -13,28 -3,40 10,12 28,14 40,3 12,-10 13,-28 3,-40 -10,-12 -28,-13 -40,-3z"/>
     </g>
    </g>
   </g>
   <g>
    <g>
     <polygon class="fil0" points="2376,3042 2371,3037 2417,2998 2417,2922 2564,2779 2551,2531 2615,2470 2621,2475 2559,2534 2571,2782 2425,2925 2425,3001 "/>
    </g>
    <g>
     <g>
      <path class="fil0" d="M2597 2453c12,-11 30,-11 41,1 10,11 10,29 -2,40 -11,11 -29,10 -40,-1 -11,-11 -10,-29 1,-40z"/>
     </g>
    </g>
    <g>
     <g>
      <path class="fil0" d="M2356 3017c-12,10 -13,28 -3,40 10,12 28,14 40,3 12,-10 14,-28 3,-40 -10,-12 -28,-13 -40,-3z"/>
     </g>
    </g>
   </g>
   <g>
    <g>
     <polygon class="fil0" points="1034,1028 1029,1023 1238,816 1243,822 "/>
    </g>
    <g>
     <g>
      <path class="fil0" d="M1053 1044c-11,12 -29,11 -41,0 -11,-11 -10,-29 1,-40 11,-11 29,-11 40,0 11,11 11,29 0,40z"/>
     </g>
    </g>
    <g>
     <g>
      <path class="fil0" d="M1259 840c11,-11 11,-29 0,-40 -11,-11 -29,-11 -40,0 -11,11 -11,29 0,40 11,11 29,11 40,0z"/>
     </g>
    </g>
   </g>
   <g>
    <g>
     <polygon class="fil0" points="1048,938 1043,933 1342,637 1347,642 "/>
    </g>
    <g>
     <g>
      <path class="fil0" d="M1067 955c-12,11 -30,11 -41,-1 -11,-11 -11,-29 0,-40 12,-11 30,-11 41,0 11,12 11,30 0,41z"/>
     </g>
    </g>
    <g>
     <g>
      <path class="fil0" d="M1364 661c11,-11 11,-29 0,-41 -11,-11 -29,-11 -40,0 -12,11 -12,29 -1,40 11,12 30,12 41,1z"/>
     </g>
    </g>
   </g>
   <g>
    <g>
     <polygon class="fil0" points="1062,848 1057,843 1265,637 1270,642 "/>
    </g>
    <g>
     <g>
      <path class="fil0" d="M1080 865c-11,11 -29,11 -40,0 -11,-12 -11,-30 0,-41 11,-11 29,-11 41,1 11,11 10,29 -1,40z"/>
     </g>
    </g>
    <g>
     <g>
      <path class="fil0" d="M1287 661c11,-11 11,-29 0,-41 -11,-11 -29,-11 -40,0 -12,11 -12,29 -1,40 11,12 30,12 41,1z"/>
     </g>
    </g>
   </g>
   <g>
    <g>
     <polygon class="fil0" points="1055,779 947,779 947,771 1052,771 1209,616 1214,621 "/>
    </g>
    <g>
     <g>
      <path class="fil0" d="M1191 599c11,-11 29,-11 40,1 11,11 11,29 0,40 -12,11 -30,11 -41,0 -11,-11 -11,-29 1,-41z"/>
     </g>
    </g>
   </g>
   <g>
    <g>
     <polygon class="fil0" points="2026,2357 1820,2149 1825,2144 2031,2352 "/>
    </g>
    <g>
     <g>
      <path class="fil0" d="M1803 2167c-11,-11 -11,-29 0,-40 12,-11 30,-11 41,0 11,12 11,30 0,41 -12,11 -30,11 -41,-1z"/>
     </g>
    </g>
    <g>
     <g>
      <path class="fil0" d="M2007 2374c12,11 30,11 41,0 11,-11 11,-29 0,-40 -11,-11 -29,-12 -40,0 -11,11 -12,29 -1,40z"/>
     </g>
    </g>
   </g>
   <g>
    <g>
     <polygon class="fil0" points="2206,2462 1910,2163 1915,2157 2211,2457 "/>
    </g>
    <g>
     <g>
      <path class="fil0" d="M1893 2181c-11,-11 -11,-29 0,-40 11,-11 30,-11 41,0 11,11 11,29 -1,40 -11,11 -29,11 -40,0z"/>
     </g>
    </g>
    <g>
     <g>
      <path class="fil0" d="M2187 2478c11,12 29,12 40,1 12,-12 12,-30 1,-41 -11,-11 -30,-11 -41,0 -11,11 -11,29 0,40z"/>
     </g>
    </g>
   </g>
   <g>
    <g>
     <polygon class="fil0" points="2206,2385 1999,2177 2005,2171 2211,2380 "/>
    </g>
    <g>
     <g>
      <path class="fil0" d="M1983 2195c-11,-11 -11,-29 0,-40 11,-11 29,-11 40,0 11,11 11,29 0,40 -11,11 -29,11 -40,0z"/>
     </g>
    </g>
    <g>
     <g>
      <path class="fil0" d="M2187 2401c11,12 29,12 40,1 12,-12 12,-30 1,-41 -11,-11 -30,-11 -41,0 -11,11 -11,29 0,40z"/>
     </g>
    </g>
   </g>
   <g>
    <g>
     <polygon class="fil0" points="2226,2329 2089,2190 2095,2185 2232,2324 "/>
    </g>
    <g>
     <g>
      <path class="fil0" d="M2073 2209c-11,-12 -11,-30 0,-41 11,-11 29,-11 40,1 11,11 11,29 0,40 -11,11 -29,11 -40,0z"/>
     </g>
    </g>
    <g>
     <g>
      <path class="fil0" d="M2208 2345c11,11 29,12 40,0 11,-11 11,-29 0,-40 -11,-11 -29,-11 -40,0 -11,11 -11,29 0,40z"/>
     </g>
    </g>
   </g>
   <g>
    <g>
     <polygon class="fil0" points="4060,966 4055,961 4079,932 4018,874 4018,260 3770,3 3773,0 3778,0 4026,257 4026,871 4089,931 "/>
    </g>
    <g>
     <g>
      <path class="fil0" d="M4037 944c-11,13 -9,31 3,41 12,10 30,8 40,-4 10,-12 9,-30 -3,-40 -12,-10 -30,-9 -40,3z"/>
     </g>
    </g>
   </g>
   <g>
    <g>
     <polygon class="fil0" points="4182,998 4174,998 4174,941 4081,846 4087,243 3858,3 3861,0 3866,0 4094,240 4088,843 4182,938 "/>
    </g>
    <g>
     <g>
      <path class="fil0" d="M4149 996c0,16 13,29 29,29 16,0 28,-13 28,-29 0,-16 -12,-28 -28,-28 -16,0 -29,12 -29,28z"/>
     </g>
    </g>
   </g>
   <g>
    <g>
     <polygon class="fil0" points="4250,1042 4242,1042 4242,928 4149,833 4155,230 3936,4 3940,0 3943,0 4162,227 4156,830 4250,925 "/>
    </g>
    <g>
     <g>
      <path class="fil0" d="M4217 1040c0,16 13,29 29,29 16,0 28,-13 28,-29 0,-16 -12,-28 -28,-28 -16,0 -29,12 -29,28z"/>
     </g>
    </g>
   </g>
   <g>
    <g>
     <polygon class="fil0" points="4316,941 4308,941 4308,912 4215,817 4221,214 4020,3 4023,0 4028,0 4228,211 4222,814 4316,909 "/>
    </g>
    <g>
     <g>
      <path class="fil0" d="M4283 940c0,15 13,28 29,28 16,0 28,-13 28,-28 0,-16 -12,-29 -28,-29 -16,0 -29,13 -29,29z"/>
     </g>
    </g>
   </g>
   <g>
    <g>
     <polygon class="fil0" points="3853,3032 3775,2957 3565,2957 3457,2850 3243,2850 3172,2775 3178,2770 3247,2842 3460,2842 3568,2950 3778,2950 3859,3027 "/>
    </g>
    <g>
     <g>
      <path class="fil0" d="M3155 2793c-11,-11 -10,-29 1,-40 12,-11 30,-10 40,1 11,11 11,29 0,40 -12,11 -30,11 -41,-1z"/>
     </g>
    </g>
    <g>
     <g>
      <path class="fil0" d="M3835 3049c12,11 30,10 41,-1 11,-11 10,-30 -1,-40 -12,-11 -30,-11 -41,1 -10,11 -10,29 1,40z"/>
     </g>
    </g>
   </g>
   <g>
    <g>
     <polygon class="fil0" points="3853,2928 3816,2892 3606,2892 3498,2785 3285,2785 3152,2646 3157,2641 3288,2777 3502,2777 3609,2885 3819,2885 3859,2923 "/>
    </g>
    <g>
     <g>
      <path class="fil0" d="M3135 2664c-11,-11 -10,-29 1,-40 11,-11 29,-11 40,1 11,11 11,29 -1,40 -11,11 -29,11 -40,-1z"/>
     </g>
    </g>
    <g>
     <g>
      <path class="fil0" d="M3835 2945c12,11 30,10 41,-1 11,-12 10,-30 -1,-40 -12,-11 -30,-11 -41,1 -10,11 -10,29 1,40z"/>
     </g>
    </g>
   </g>
  </g>
 </g>
</svg>
