<?xml version="1.0" encoding="UTF-8"?>
<!DOCTYPE svg PUBLIC "-//W3C//DTD SVG 1.1//EN" "http://www.w3.org/Graphics/SVG/1.1/DTD/svg11.dtd">
<!-- Creator: CorelDRAW X8 -->
<svg xmlns="http://www.w3.org/2000/svg" xml:space="preserve" width="602px" height="351px" version="1.1" style="shape-rendering:geometricPrecision; text-rendering:geometricPrecision; image-rendering:optimizeQuality; fill-rule:evenodd; clip-rule:evenodd"
viewBox="0 0 7965 4643"
 xmlns:xlink="http://www.w3.org/1999/xlink">
 <defs>
  <style type="text/css">
   <![CDATA[
    .fil0 {fill:#1A4089}
    .fil1 {fill:#1B4086}
   ]]>
  </style>
 </defs>
 <g id="Слой_x0020_1">
  <metadata id="CorelCorpID_0Corel-Layer"/>
  <g id="_783376280048">
   <path class="fil0" d="M7965 4633l-2 -925c-765,3 -1523,1 -2281,1 -807,0 -1402,94 -1931,-375 -411,-364 -655,-981 -304,-1651 309,-592 919,-759 1562,-743l2 2538 986 1c162,-281 314,-566 479,-847 90,-152 413,-782 500,-853l3 1692 981 8 4 -3464 -993 0c-50,121 -161,293 -235,420l-480 848c-44,75 -78,139 -122,215 -34,59 -90,174 -137,215l-1 -1696c-425,-26 -1303,-29 -1699,38 -1403,239 -2404,1635 -1843,3089 280,724 1045,1374 2019,1473 450,46 2848,17 3492,16z"/>
   <path class="fil0" d="M935 954c233,-18 568,130 725,231 282,182 383,405 475,499 61,-86 87,-334 343,-712 53,-77 103,-130 147,-204 -89,-119 -294,-273 -453,-373 -181,-114 -365,-194 -588,-265 -434,-139 -1089,-135 -1583,-114l-1 913c112,2 914,-20 935,25z"/>
   <path class="fil0" d="M938 3694c-67,55 -785,16 -938,26l1 911c480,21 1141,25 1569,-108 310,-97 915,-403 1045,-644 -118,-175 -150,-184 -278,-419 -44,-82 -78,-156 -111,-245 -26,-68 -59,-191 -91,-247l-61 77c-239,363 -719,679 -1136,649z"/>
   <path class="fil1" d="M4750 3480l5 -236c-524,-4 -980,-387 -983,-910 -4,-562 439,-893 980,-935l0 -230c-1184,52 -1596,1291 -865,1969 236,219 454,310 863,342z"/>
   <path class="fil1" d="M816 1863c668,44 640,894 2,920l-1 232c969,-38 972,-1356 2,-1382l-3 230z"/>
   <path class="fil1" d="M4755 3015l0 -229c-154,-17 -249,-41 -342,-135 -313,-313 -116,-752 342,-788l0 -231c-970,38 -969,1349 0,1383z"/>
   <path class="fil1" d="M1490 3015l309 0c139,-131 250,-449 247,-701 -2,-242 -107,-584 -267,-683l-289 0c46,80 521,509 217,1086 -78,146 -136,183 -217,298z"/>
  </g>
 </g>
</svg>
