<?xml version="1.0" encoding="UTF-8"?>
<!DOCTYPE svg PUBLIC "-//W3C//DTD SVG 1.1//EN" "http://www.w3.org/Graphics/SVG/1.1/DTD/svg11.dtd">
<!-- Creator: CorelDRAW X8 -->
<svg xmlns="http://www.w3.org/2000/svg" xml:space="preserve" width="120px" height="71px" version="1.1" style="shape-rendering:geometricPrecision; text-rendering:geometricPrecision; image-rendering:optimizeQuality; fill-rule:evenodd; clip-rule:evenodd"
viewBox="0 0 2814 1652"
 xmlns:xlink="http://www.w3.org/1999/xlink">
 <defs>
  <style type="text/css">
   <![CDATA[
    .fil0 {fill:url(#id0)}
   ]]>
  </style>
  <linearGradient id="id0" gradientUnits="userSpaceOnUse" x1="1321.51" y1="55.0588" x2="1321.51" y2="1651.96">
   <stop offset="0" style="stop-opacity:1; stop-color:#F4D113"/>
   <stop offset="0.341176" style="stop-opacity:1; stop-color:#F4D014"/>
   <stop offset="1" style="stop-opacity:1; stop-color:#FCB922"/>
  </linearGradient>
 </defs>
 <g id="Слой_x0020_1">
  <metadata id="CorelCorpID_0Corel-Layer"/>
  <path class="fil0" d="M2178 1331c0,-52 20,-93 50,-125l9 -9c0,0 11,-9 12,-10 123,-96 291,5 291,138 0,100 -78,180 -177,184 -96,5 -185,-80 -185,-178zm-1819 -1027c0,52 30,81 163,81 191,0 380,20 380,-76 0,-15 -16,-33 -30,-42 -11,-6 -49,-22 -68,-22l-337 0c-54,0 -108,29 -108,59zm-359 -228c0,34 56,64 120,64l663 0c154,0 171,-140 -22,-140l-620 0c-88,0 -141,29 -141,76zm2289 1249c0,43 25,71 66,74 62,4 97,-69 58,-116 -37,-43 -124,-24 -124,42zm-1238 -5c0,46 18,79 70,79 57,-1 89,-63 55,-111 -35,-51 -125,-26 -125,32zm-47 -561c0,27 -4,46 27,67 27,19 173,40 187,-46 17,-97 -105,-79 -155,-79 -30,0 -59,29 -59,58zm-811 403c0,52 16,82 87,82 103,0 205,19 205,-76 0,-16 -9,-33 -17,-42 -6,-7 -26,-22 -36,-22l-181 0c-29,0 -58,29 -58,58zm-193 -228c0,34 30,64 64,64l356 0c83,0 93,-140 -11,-140l-333 0c-47,0 -76,29 -76,76zm940 409l0 -29c0,-78 85,-164 164,-164l35 0c114,0 235,178 106,305 -80,81 -204,68 -267,-16 -17,-24 -38,-58 -38,-96zm-280 -566l0 414c0,60 18,101 45,136 14,17 34,29 53,41 59,36 38,-1 51,42 27,94 80,164 166,208 134,68 316,25 397,-88 22,-30 55,-82 59,-129l389 -1c20,-2 34,-4 48,-16 38,-32 38,-122 -46,-123l-386 0c-17,-35 -27,-112 -100,-173l-82 -53c-37,-17 -66,-22 -115,-26 -165,-15 -314,124 -322,217l-11 0c-11,-124 -6,-260 -6,-385 0,-71 12,-133 -43,-151 -27,-9 -52,-3 -72,13 -19,15 -25,42 -25,74zm543 -724c0,38 2,84 70,87l374 0c345,0 356,61 574,231 16,12 20,18 35,29l201 180c34,33 107,87 130,121l-829 0c-127,0 -125,17 -241,-98 -35,-35 -38,-25 -86,-84 -18,-23 -41,-41 -77,-86 -13,-16 -22,-31 -35,-47 -56,-68 -216,-8 -56,161 28,31 49,55 79,85 29,30 54,55 84,85 49,48 143,124 215,124l1033 0 0 368c0,16 -2,10 -11,17 -31,-130 -184,-234 -350,-216 -141,16 -275,147 -275,304 0,66 1,96 33,159 31,63 89,122 154,150 160,72 329,2 410,-127 57,-91 9,-92 71,-121 49,-23 108,-83 108,-149l0 -368c0,-71 -23,-139 -52,-181 -38,-53 -127,-132 -179,-177l-190 -172c-22,-19 -41,-34 -64,-53 -67,-54 -131,-112 -202,-159 -43,-29 -108,-68 -158,-82 -65,-19 -130,-34 -206,-34l-496 0c-35,0 -64,35 -64,53z"/>
 </g>
</svg>
