<?xml version="1.0" encoding="UTF-8"?>
<!DOCTYPE svg PUBLIC "-//W3C//DTD SVG 1.1//EN" "http://www.w3.org/Graphics/SVG/1.1/DTD/svg11.dtd">
<!-- Creator: CorelDRAW X8 -->
<svg xmlns="http://www.w3.org/2000/svg" xml:space="preserve" width="18px" height="21px" version="1.1" style="shape-rendering:geometricPrecision; text-rendering:geometricPrecision; image-rendering:optimizeQuality; fill-rule:evenodd; clip-rule:evenodd"
viewBox="0 0 79 93"
 xmlns:xlink="http://www.w3.org/1999/xlink">
 <defs>
  <style type="text/css">
   <![CDATA[
    .fil0 {fill:#666666;fill-rule:nonzero}
   ]]>
  </style>
 </defs>
 <g id="Слой_x0020_1">
  <metadata id="CorelCorpID_0Corel-Layer"/>
  <polygon class="fil0" points="54,92 48,78 58,32 67,34 "/>
  <path class="fil0" d="M58 18l9 -6 6 9 -10 6 -5 -9zm8 15l1 0c6,-1 10,-5 11,-10 2,-8 -2,-15 -10,-17 -7,-2 -14,3 -16,11 -1,5 1,11 6,14l1 0 3 2 4 0z"/>
  <polygon class="fil0" points="54,93 54,76 24,23 16,28 "/>
  <path class="fil0" d="M20 10l-10 -3 -3 11 11 3 2 -11zm-3 17l-1 0c-6,1 -11,-2 -14,-6 -4,-7 -2,-15 5,-19 6,-4 15,-2 19,5 2,5 1,11 -2,15l-1 1 -3 2 -3 2z"/>
 </g>
</svg>
