<?xml version="1.0" encoding="UTF-8"?>
<!DOCTYPE svg PUBLIC "-//W3C//DTD SVG 1.1//EN" "http://www.w3.org/Graphics/SVG/1.1/DTD/svg11.dtd">
<!-- Creator: CorelDRAW X8 -->
<svg xmlns="http://www.w3.org/2000/svg" xml:space="preserve" width="662px" height="216px" version="1.1" style="shape-rendering:geometricPrecision; text-rendering:geometricPrecision; image-rendering:optimizeQuality; fill-rule:evenodd; clip-rule:evenodd"
viewBox="0 0 2435483 793753"
 xmlns:xlink="http://www.w3.org/1999/xlink">
 <defs>
  <style type="text/css">
   <![CDATA[
    .fil0 {fill:#F4D113;fill-rule:nonzero}
   ]]>
  </style>
 </defs>
 <g id="Слой_x0020_1">
  <metadata id="CorelCorpID_0Corel-Layer"/>
  <path class="fil0" d="M618594 552594c-105,456 -283,890 -409,1355 -178,635 -330,1325 -591,1968 -256,535 -560,1043 -843,1578 -282,486 -482,999 -786,1460 -669,969 -1386,1890 -2225,2707 -816,816 -1716,1555 -2707,2202 -464,305 -951,535 -1433,787 -539,282 -1043,617 -1608,843 -639,261 -1303,434 -1973,612 -456,131 -869,305 -1325,387 -2303,461 -4679,461 -6974,0 -486,-82 -947,-256 -1403,-408 -639,-178 -1303,-330 -1920,-591 -557,-226 -1074,-561 -1638,-843 -457,-283 -969,-482 -1404,-787 -969,-647 -1890,-1386 -2707,-2202l-141820 -141816c-20365,9885 -45631,6457 -62520,-10432 -16888,-16889 -20308,-42155 -10401,-62490l-141816 -141820c-847,-847 -1555,-1738 -2225,-2706 -304,-465 -512,-948 -764,-1434 -304,-535 -617,-1052 -869,-1638 -257,-609 -409,-1273 -587,-1912 -130,-461 -304,-895 -408,-1382 -461,-2294 -461,-4671 0,-6974 74,-456 256,-890 378,-1355 208,-639 360,-1325 617,-1964 230,-565 565,-1078 847,-1586 274,-482 482,-999 786,-1456 1304,-1937 2964,-3628 4906,-4909 482,-326 969,-535 1455,-787 535,-304 1052,-617 1617,-843 634,-282 1295,-434 1959,-612 435,-131 869,-305 1334,-409 1173,-230 2347,-360 3520,-330l304982 0c-3941,11471 -3941,23984 0,35485l-262158 0 111522 111523c15047,-7339 32779,-7339 47825,0l105362 -105366c2585,5314 6004,10298 10397,14686 4397,4397 9403,7843 14695,10428l-105366 105361c7339,15047 7339,32757 0,47804l111523 111522 0 -262158c11492,3932 24014,3932 35507,0l0 304973c0,1174 -122,2377 -352,3529zm-56924 61138c-3215,3215 -7664,5214 -12574,5214l-300277 0c-2446,4471 -5518,8685 -9298,12465 -21277,21286 -55894,21286 -77180,0 -21286,-21307 -21286,-55924 0,-77210 3780,-3780 7973,-6843 12444,-9268l0 -300307c0,-9811 7943,-17758 17758,-17758 9807,0 17758,7947 17758,17758l0 294455c10702,1859 20973,6873 29220,15120 8255,8256 13261,18527 15129,29229l294446 0c9815,0 17758,7947 17758,17758 0,4905 -1990,9350 -5184,12544zm26035 -434689c1921,-1912 4163,-3319 6539,-4236l6922 0c4549,-30 9098,1708 12574,5183 3476,3476 5206,8026 5206,12597l0 6899c-939,2377 -2347,4619 -4263,6540 -7430,7460 -19539,7460 -26978,0 -7438,-7439 -7438,-19527 0,-26983zm126595 408836l61673 0c4901,0 9350,-1994 12574,-5214 3194,-3193 5184,-7643 5184,-12544 0,-9815 -7943,-17758 -17758,-17758l-61673 0 0 -33799 61703 0c4871,0 9320,-1973 12544,-5188 3216,-3220 5184,-7669 5184,-12544 0,-9811 -7943,-17758 -17728,-17758l-61703 0 0 -33795 61673 0c4901,0 9350,-2003 12574,-5218 3194,-3194 5184,-7639 5184,-12540 0,-9815 -7943,-17758 -17758,-17758l-61673 0 0 -33800 61703 0c4871,0 9320,-1972 12544,-5187 3216,-3224 5184,-7669 5184,-12549 0,-9806 -7943,-17753 -17728,-17753l-61703 0 0 -33804 61673 0c4901,0 9350,-1994 12574,-5210 3194,-3193 5184,-7638 5184,-12544 0,-9811 -7943,-17758 -17758,-17758l-61673 0 0 -33799 61703 0c4871,0 9320,-1968 12544,-5192 3216,-3216 5184,-7661 5184,-12544 0,-9803 -7943,-17758 -17728,-17758l-61703 0 0 -108681 -17757 -17758 -108655 0 0 -61677c0,-9806 -7956,-17749 -17758,-17749 -9815,0 -17758,7943 -17758,17749l0 61677 -33800 0 0 -61677c0,-9806 -7946,-17749 -17757,-17749 -9816,0 -17758,7943 -17732,17749l0 61677 -33804 0 0 -61677c0,-9806 -7947,-17749 -17754,-17749 -9811,0 -17758,7943 -17758,17749l0 61677 -33799 0 0 -61677c0,-9806 -7951,-17749 -17758,-17749 -9811,0 -17736,7943 -17736,17749l0 61677 -33817 0 0 -61677c22,-9806 -7947,-17749 -17736,-17749 -9807,0 -17754,7943 -17754,17749l0 61677 -33804 0 0 -61677c0,-9806 -7947,-17749 -17753,-17749 -9811,0 -17758,7943 -17758,17749l0 61677 -108659 0 -17758 17758 0 108681 -61677 0c-9807,0 -17758,7955 -17758,17758 0,9785 7951,17736 17758,17736l61677 0 0 33799 -61677 0c-9807,0 -17758,7947 -17758,17758 0,9807 7951,17754 17758,17754l61677 0 0 33804 -61677 0c-9807,0 -17758,7947 -17758,17753 0,9790 7951,17736 17758,17736l61677 0 0 33800 -61677 0c-9807,0 -17758,7943 -17758,17758 0,9802 7951,17758 17758,17758l61677 0 0 33795 -61677 0c-9807,0 -17758,7947 -17758,17758 0,9785 7951,17732 17758,17732l61677 0 0 33799 -61677 26c-9807,0 -17758,7947 -17758,17732 0,9811 7951,17758 17758,17758l61677 0 0 108681 17758 17732 108659 0 0 61703c0,9806 7968,17758 17758,17758 4905,0 9350,-1999 12565,-5214 3194,-3224 5188,-7643 5188,-12544l0 -61703 33804 0 0 61703c0,9785 7947,17758 17754,17727 4909,0 9324,-1968 12548,-5183 3215,-3224 5188,-7643 5188,-12544l0 -61703 33817 0 0 61703c0,9806 7955,17758 17736,17727 4905,0 9350,-1968 12566,-5183 3193,-3224 5192,-7665 5192,-12544l0 -61703 33799 0 0 61703c0,9785 7947,17758 17758,17727 4906,0 9325,-1968 12544,-5183 3215,-3224 5188,-7643 5188,-12544l0 -61703 33826 0 0 61703c0,9785 7947,17758 17732,17727 4901,0 9346,-1968 12570,-5183 3193,-3224 5187,-7643 5187,-12544l0 -61703 33800 0 0 61703c0,9785 7943,17727 17758,17727 4901,0 9320,-1968 12539,-5183 3220,-3224 5219,-7643 5219,-12544l0 -61703 108655 0 17757 -17732 0 -108681z"/>
  <g id="_783075955072">
   <polygon class="fil0" points="1718189,322101 1754578,322101 1754578,512342 1808534,512342 1808534,322101 1844910,322101 1844910,281398 1718189,281398 "/>
   <path class="fil0" d="M1653101 387780c0,13252 -4015,16654 -16028,16654l-12032 0 0 -82333 12032 0c12013,0 16028,2777 16028,16033l0 49646zm-28060 -106378l-53960 0 0 230944 53960 0 0 -67221 8330 0c52717,0 73690,-11097 73690,-57658l0 -46865c0,-50566 -23432,-59200 -82020,-59200z"/>
   <path class="fil0" d="M1458503 417065l12644 -108833 11718 108833 -24362 0zm-30528 -135663l-34534 230944 53956 0 6170 -56424 34234 0 6170 56424 55194 0 -35468 -230944 -85722 0z"/>
   <path class="fil0" d="M1064375 278634c-57358,0 -69693,12331 -69693,64740l0 106991c0,53656 13882,64753 69693,64753 50871,0 61351,-12639 61351,-64753l0 -24045 -49020 0 0 31757c0,12957 -2777,16033 -13565,16033 -10797,0 -12957,-3076 -12957,-16033l0 -122098c0,-12948 2160,-16033 12957,-16033 10788,0 13565,3085 13565,16033l0 23428 49020 0 0 -16033c0,-49015 -8942,-64740 -61351,-64740z"/>
   <polygon class="fil0" points="1262349,463635 1231517,281398 1153508,281398 1153508,512342 1199760,512342 1196058,316857 1230900,512342 1290409,512342 1326172,316857 1323096,512342 1371504,512342 1371504,281398 1294732,281398 "/>
   <path class="fil0" d="M2031488 455609c0,13565 -4619,16033 -16950,16033l-16342 0 0 -60121 16342 0c12331,0 16950,3085 16950,16646l0 27442zm-33292 -133508l15103 0c12331,0 16346,2773 16346,16346l0 20960c0,13883 -4015,16650 -16346,16650l-15103 0 0 -53956zm48095 69994c26209,-4628 37310,-16655 37310,-42242l0 -20356c0,-40700 -19113,-48099 -66595,-48099l-72774 0 0 230944 75233 0c47491,0 65991,-7395 65991,-48095l0 -26213c0,-29915 -12956,-44710 -39165,-45939z"/>
   <polygon class="fil0" points="2161354,434645 2165360,281402 2116332,281402 2116332,512346 2180468,512346 2221172,363109 2216853,512346 2265877,512346 2265877,281402 2202975,281402 "/>
   <polygon class="fil0" points="2299820,281398 2299820,512342 2353776,512342 2353776,322097 2381527,322097 2381527,512342 2435483,512342 2435483,281398 "/>
  </g>
 </g>
</svg>
