<?xml version="1.0" encoding="UTF-8"?>
<!DOCTYPE svg PUBLIC "-//W3C//DTD SVG 1.1//EN" "http://www.w3.org/Graphics/SVG/1.1/DTD/svg11.dtd">
<!-- Creator: CorelDRAW X8 -->
<svg xmlns="http://www.w3.org/2000/svg" xml:space="preserve" width="56px" height="42px" version="1.1" style="shape-rendering:geometricPrecision; text-rendering:geometricPrecision; image-rendering:optimizeQuality; fill-rule:evenodd; clip-rule:evenodd"
viewBox="0 0 1176 885"
 xmlns:xlink="http://www.w3.org/1999/xlink">
 <defs>
  <style type="text/css">
   <![CDATA[
    .fil0 {fill:url(#id0)}
   ]]>
  </style>
  <linearGradient id="id0" gradientUnits="userSpaceOnUse" x1="551.973" y1="29.4854" x2="551.973" y2="884.549">
   <stop offset="0" style="stop-opacity:1; stop-color:#F4D113"/>
   <stop offset="0.341176" style="stop-opacity:1; stop-color:#F4D014"/>
   <stop offset="1" style="stop-opacity:1; stop-color:#FCB922"/>
  </linearGradient>
 </defs>
 <g id="Слой_x0020_1">
  <metadata id="CorelCorpID_0Corel-Layer"/>
  <path class="fil0" d="M442 500c0,0 58,47 58,59 12,11 47,23 70,35 24,0 47,0 70,-12 0,0 12,-12 12,-12 11,0 11,0 11,-11 0,0 12,0 12,0 0,-12 58,-59 58,-59 0,0 70,70 70,70l221 221c12,0 12,12 12,12l-896 0 302 -303 0 0 0 0 0 0 0 0zm652 -360l0 605 -303 -303 303 -302zm-1013 605l0 -605 303 302 -303 303 0 0 0 0zm59 -664l896 0c0,0 -23,24 -23,24l-385 384c-11,11 -11,11 -11,11 0,0 0,0 -12,12 -23,12 -35,0 -58,-23l-407 -408c0,0 0,0 0,0l0 0 0 0 0 0 0 0zm-140 -81l0 885 1176 0 0 -885 -1176 0c0,0 0,0 0,0z"/>
 </g>
</svg>
