<?xml version="1.0" encoding="UTF-8"?>
<!DOCTYPE svg PUBLIC "-//W3C//DTD SVG 1.1//EN" "http://www.w3.org/Graphics/SVG/1.1/DTD/svg11.dtd">
<!-- Creator: CorelDRAW X8 -->
<svg xmlns="http://www.w3.org/2000/svg" xml:space="preserve" width="5000px" height="1787px" version="1.1" style="shape-rendering:geometricPrecision; text-rendering:geometricPrecision; image-rendering:optimizeQuality; fill-rule:evenodd; clip-rule:evenodd"
viewBox="0 0 452000 161590"
 xmlns:xlink="http://www.w3.org/1999/xlink">
 <defs>
  <style type="text/css">
   <![CDATA[
    .fil0 {fill:#E30613}
    .fil1 {fill:#FEFEFE}
   ]]>
  </style>
 </defs>
 <g id="Слой_x0020_1">
  <metadata id="CorelCorpID_0Corel-Layer"/>
  <g id="_782821564544">
   <path class="fil0" d="M124341 97180c-2182,32278 -28895,49917 -58102,41111 -12829,-3869 -21614,-13721 -26065,-25917 -5147,-14101 -3690,-30766 610,-44851 5739,-18802 26303,-59405 52534,-42558 16365,10510 33029,42538 31023,72215zm-124341 -82113l0 131456c0,7344 7723,15067 15067,15067l131456 0c7623,0 15067,-7618 15067,-16573l0 -128444c0,-8955 -7444,-16573 -15067,-16573l-131456 0c-7344,0 -15067,7723 -15067,15067z"/>
   <path class="fil1" d="M124341 97180c2006,-29677 -14658,-61705 -31023,-72215 -26231,-16847 -46795,23756 -52534,42558 -4300,14085 -5757,30750 -610,44851 4451,12196 13236,22048 26065,25917 29207,8806 55920,-8833 58102,-41111z"/>
   <path class="fil0" d="M197373 119780l23730 0 2260 -39927c1391,116 1254,-271 2585,3066 625,1569 1231,2693 1937,4089l11298 24485 15820 0c1189,-2246 2443,-5352 3448,-7852 1089,-2711 2204,-5391 3461,-8216l6018 -14322c515,-1120 350,-1132 1763,-1250l2533 35511c754,5832 -4714,4416 23457,4416 1948,0 391,-5281 367,-9030l-4887 -73837 -23353 0 -19587 47084 -1506 0c-625,-2683 -16940,-36892 -19908,-44503 -409,-1050 -706,-2581 -1939,-2581l-22223 0c0,7139 -777,13650 -1130,20718 -153,3071 -758,6929 -750,10173l-3394 51976z"/>
   <path class="fil0" d="M387590 75333c0,10180 -607,21216 3279,30244 1168,2711 1988,3605 3657,5760 7526,9713 24637,9573 36004,9573 7997,0 9232,-543 15852,-1097 2192,-184 3354,-410 5618,-410 0,-5870 -1125,-11819 -1474,-17359 -226,-3586 1244,-3713 -5463,-2761l-18197 808c-7697,-1033 -14416,-1052 -14416,-14211l0 -15820c0,-17315 13744,-13940 28630,-13564 2669,68 5050,757 7906,757l1884 -20340 -10439 -1238c-9999,-1295 -23899,-988 -33257,1613 -17811,4950 -19584,19457 -19584,38045z"/>
   <path class="fil0" d="M306607 58007l22976 0 0 61773 25237 0 0 -61773c28901,0 23540,1466 24163,-4464l1073 -16630 -75709 0 1109 16217c153,1936 -699,4877 1151,4877z"/>
  </g>
 </g>
</svg>
