<?xml version="1.0" encoding="UTF-8"?>
<!DOCTYPE svg PUBLIC "-//W3C//DTD SVG 1.1//EN" "http://www.w3.org/Graphics/SVG/1.1/DTD/svg11.dtd">
<!-- Creator: CorelDRAW X8 -->
<svg xmlns="http://www.w3.org/2000/svg" xml:space="preserve" width="37px" height="54px" version="1.1" style="shape-rendering:geometricPrecision; text-rendering:geometricPrecision; image-rendering:optimizeQuality; fill-rule:evenodd; clip-rule:evenodd"
viewBox="0 0 2349 3400"
 xmlns:xlink="http://www.w3.org/1999/xlink">
 <defs>
  <style type="text/css">
   <![CDATA[
    .fil0 {fill:url(#id0)}
   ]]>
  </style>
  <linearGradient id="id0" gradientUnits="userSpaceOnUse" x1="1103.17" y1="113.312" x2="1103.17" y2="3399.85">
   <stop offset="0" style="stop-opacity:1; stop-color:#F4D113"/>
   <stop offset="0.341176" style="stop-opacity:1; stop-color:#F4D014"/>
   <stop offset="1" style="stop-opacity:1; stop-color:#FCB922"/>
  </linearGradient>
 </defs>
 <g id="Слой_x0020_1">
  <metadata id="CorelCorpID_0Corel-Layer"/>
  <path class="fil0" d="M1211 1630c-93,0 -140,0 -233,-47 -46,-46 -140,-93 -140,-93 -46,-46 -46,-46 -46,-93 -280,-372 0,-792 372,-792 513,0 699,699 233,978 -46,0 -139,47 -186,47l0 0 0 0 0 0 0 0zm-140 -1630l187 0c186,0 419,93 558,186 280,187 466,466 513,839 0,46 46,139 0,186 0,46 0,93 0,140 -47,232 -140,419 -280,605l-186 326c-140,186 -233,373 -373,512 -46,94 -139,233 -186,326 -47,140 -47,187 -47,233 0,0 -46,47 -46,47l-47 0c-46,0 -46,0 -46,-47 -47,0 0,-93 -93,-279 -94,-186 -233,-326 -326,-512 -47,-47 -47,-47 -94,-94l-139 -186c-187,-326 -466,-745 -466,-1118 0,-279 140,-605 326,-791 93,-94 186,-187 326,-233 47,-47 93,-93 186,-93 93,-47 187,-47 233,-47l0 0 0 0 0 0 0 0 0 0z"/>
 </g>
</svg>
