<?xml version="1.0" encoding="UTF-8"?>
<!DOCTYPE svg PUBLIC "-//W3C//DTD SVG 1.1//EN" "http://www.w3.org/Graphics/SVG/1.1/DTD/svg11.dtd">
<!-- Creator: CorelDRAW X8 -->
<svg xmlns="http://www.w3.org/2000/svg" xml:space="preserve" width="1850px" height="569px" version="1.1" style="shape-rendering:geometricPrecision; text-rendering:geometricPrecision; image-rendering:optimizeQuality; fill-rule:evenodd; clip-rule:evenodd"
viewBox="0 0 59442 18277"
 xmlns:xlink="http://www.w3.org/1999/xlink">
 <defs>
  <style type="text/css">
   <![CDATA[
    .fil3 {fill:#0001F6}
    .fil16 {fill:#0102FA}
    .fil2 {fill:#0502F3}
    .fil14 {fill:#545753}
    .fil9 {fill:#6F716F}
    .fil12 {fill:#888888}
    .fil10 {fill:#8D8E92}
    .fil11 {fill:#989898}
    .fil8 {fill:#9A98A6}
    .fil6 {fill:#A8A8A8}
    .fil0 {fill:#F96807}
    .fil4 {fill:#FDFC03}
    .fil7 {fill:#FDFDF5}
    .fil1 {fill:#FECB02}
    .fil15 {fill:#2B2A29;fill-rule:nonzero}
    .fil5 {fill:url(#id0)}
    .fil13 {fill:url(#id1)}
   ]]>
  </style>
  <linearGradient id="id0" gradientUnits="userSpaceOnUse" x1="38266.3" y1="13165.6" x2="40130" y2="14267.8">
   <stop offset="0" style="stop-opacity:1; stop-color:#F8F4F3"/>
   <stop offset="1" style="stop-opacity:1; stop-color:#6F716F"/>
  </linearGradient>
  <linearGradient id="id1" gradientUnits="userSpaceOnUse" xlink:href="#id0" x1="42168.3" y1="13681.2" x2="44048.9" y2="12644.9">
  </linearGradient>
 </defs>
 <g id="Слой_x0020_1">
  <metadata id="CorelCorpID_0Corel-Layer"/>
  <path class="fil0" d="M41037 7915c-384,-91 -556,-239 -485,-736l-66 383c-739,-290 -871,-1210 -246,-1856 555,-573 1314,-1066 2080,-1520l1359 -805c482,-305 1345,-788 1568,-1240 470,1443 -15,3151 -837,4071 -802,898 -1748,1313 -2896,1687 -28,9 -231,67 -252,68 -331,25 -139,14 -225,-52zm5943 -7915c-562,417 -260,558 -2267,1735 -821,481 -1732,1003 -2516,1477 -1196,724 -4303,2655 -2071,4309 1077,798 1070,781 2835,56 1881,-771 3395,-2010 3972,-4015 192,-665 447,-2990 47,-3562z"/>
  <path class="fil1" d="M40486 7562c-65,-141 -252,-314 -162,-660 137,-524 1487,-1270 2011,-1580l773 -475c109,-85 302,-315 470,-348 279,831 -94,1856 -627,2475 -234,271 -804,586 -1286,714l-628 227c86,66 -106,77 225,52 21,-1 224,-59 252,-68 1148,-374 2094,-789 2896,-1687 822,-920 1307,-2628 837,-4071 -223,452 -1086,935 -1568,1240l-1359 805c-766,454 -1525,947 -2080,1520 -625,646 -493,1566 246,1856z"/>
  <path class="fil2" d="M37115 14719c57,-75 405,-190 473,-209 223,-59 496,-26 616,22 715,128 1405,819 1211,1706 -129,748 -489,1023 -1098,1281 -752,94 -958,22 -1423,-322l-165 -115 -228 -457 -30 -101c-81,-68 -38,15 -81,-159 -10,-42 -22,-200 -23,-247 -3,-165 15,-317 28,-481 156,-475 356,-674 720,-918zm680 -1408c-58,70 -139,174 -191,233 -119,134 -54,112 -178,145 -324,598 -917,1006 -1192,1621 -167,372 -192,805 -80,1226 132,498 472,877 919,1107 182,94 297,110 485,178 1166,74 1883,-456 2122,-1424 206,-828 504,-1879 794,-2693l325 1798c146,-430 82,-1116 227,-1551 -36,-42 -7,-131 -327,-131l76 -133c9,-25 19,-39 26,-66 7,-25 11,-39 14,-64 3,-24 3,-39 2,-62l5 -473c60,-133 28,-35 56,-184 -12,-17 -36,-30 -48,-42 -466,-454 21,-537 -109,-1154 -14,16 -27,39 -34,53l-76 210c-143,681 -102,368 -44,868l-252 -196c68,660 -71,922 -255,1523 -103,336 -287,1095 -430,1328 -90,-227 -192,-381 -338,-568 -108,-161 -172,-176 -334,-311 -156,-102 -341,-170 -470,-255 -507,-89 -604,-66 -1106,-34l2000 -2476c186,-243 453,-611 689,-771 12,-78 30,-161 45,-226 103,-467 95,-340 -71,-500 98,61 176,69 -96,41 21,461 -215,591 -439,864 -227,276 -371,464 -585,725 -401,491 -779,924 -1130,1394z"/>
  <path class="fil2" d="M45828 16710c-112,247 -235,391 -421,506 -189,196 -119,155 -336,175 -418,401 -1097,75 -1473,-75 -429,-307 -741,-778 -672,-1570l248 -520c124,-261 253,-418 554,-521 18,-25 -23,-8 81,-72 45,-28 106,-50 146,-65 10,-139 780,-81 925,-55 231,42 492,250 687,459 358,382 615,1169 261,1738zm-3452 -5662c458,529 878,1076 1311,1615 442,548 868,1035 1276,1594l-796 -67c-148,117 -28,37 -238,117 -80,31 -146,44 -242,85 -211,91 -414,193 -612,234 -102,222 -168,447 -348,765 -162,-215 -483,-1432 -556,-1704l-116 -319c-348,129 -434,124 -833,124 -1,140 155,146 197,67 860,0 286,-47 429,485 227,-2 128,-100 302,547 63,234 134,443 197,659 371,1273 467,2772 2539,2554 659,-316 1094,-503 1317,-1293 258,-917 -197,-1509 -769,-2126 -161,-194 -351,-412 -478,-601 -256,-318 -845,-946 -964,-1255 -230,-95 -972,-1164 -1245,-1436 -37,-47 -84,-125 -131,-173 -129,-133 -6,-41 -169,-136 -2,19 -3,45 -5,58l-66 206z"/>
  <polygon class="fil3" points="43674,9723 43633,8853 38728,8818 38713,9725 "/>
  <path class="fil4" d="M40486 7562l66 -383c251,-161 304,-268 909,-645 248,-155 737,-505 1032,-597 38,417 4,813 -173,1130 -195,349 -323,342 -655,621 482,-128 1052,-443 1286,-714 533,-619 906,-1644 627,-2475 -168,33 -361,263 -470,348l-773 475c-524,310 -1874,1056 -2011,1580 -90,346 97,519 162,660z"/>
  <path class="fil5" d="M40135 11644l-64 -631c-236,160 -503,528 -689,771l-2000 2476c502,-32 599,-55 1106,34 129,85 314,153 470,255 162,135 226,150 334,311 146,187 248,341 338,568 143,-233 327,-992 430,-1328 184,-601 323,-863 255,-1523l-92 -195 -30 -364 -58 -374z"/>
  <path class="fil6" d="M43174 15226l194 3c-2,21 -21,127 -21,131 8,311 224,320 425,677 162,285 97,144 260,282 248,210 26,228 332,409 79,47 116,39 188,74 57,29 141,77 144,165 8,215 19,1 -229,186l289 98c240,114 -77,-132 77,92 189,277 -214,-114 53,76 123,-57 19,-6 185,-28 217,-20 147,21 336,-175 -93,-234 188,-366 -194,-321 49,-129 110,-219 198,-317 -258,-1 -158,-19 -334,74 -34,-329 -324,-698 -589,-1125 -104,-167 -627,-906 -845,-595 215,-125 64,11 85,-227 -301,103 -430,260 -554,521z"/>
  <path class="fil6" d="M36894 17197c465,344 671,416 1423,322l-381 -152c188,-177 288,-124 532,-179l-146 -65c-281,6 -200,20 -353,-104 213,-335 30,-77 403,-254 -47,-47 -166,-177 -291,-132 266,-34 328,-131 559,-492 452,-710 -327,-255 422,-667l-196 -541c-575,208 -235,15 -614,502 -8,10 -21,25 -30,35l-587 933c-96,148 -109,127 -247,239 -309,248 -282,425 -494,555z"/>
  <path class="fil7" d="M40552 7179c-71,497 101,645 485,736l628 -227c332,-279 460,-272 655,-621 177,-317 211,-713 173,-1130 -295,92 -784,442 -1032,597 -605,377 -658,484 -909,645z"/>
  <path class="fil8" d="M36729 17082l165 115c212,-130 185,-307 494,-555 138,-112 151,-91 247,-239l587 -933c9,-10 22,-25 30,-35 379,-487 39,-294 614,-502l196 541c-749,412 30,-43 -422,667 -231,361 -293,458 -559,492 125,-45 244,85 291,132 -373,177 -190,-81 -403,254 153,124 72,110 353,104 204,-141 33,12 179,-221l510 -859c2,-3 160,-189 224,-279 130,204 95,174 180,474 194,-887 -496,-1578 -1211,-1706l22 26 229 178c-31,43 5,18 -104,100 -11,8 -28,18 -40,26 -122,85 -404,171 -243,625 -414,100 -513,480 -777,756 -417,435 -114,299 -217,488 -270,253 -281,26 -345,351z"/>
  <path class="fil9" d="M43955 14568c356,-33 420,13 772,37l-386 -28c61,95 3,126 240,207l-194 32c378,107 591,556 763,893 256,501 420,433 678,1001 354,-569 97,-1356 -261,-1738 -195,-209 -456,-417 -687,-459 -145,-26 -915,-84 -925,55z"/>
  <path class="fil10" d="M43728 14705c-21,238 130,102 -85,227 218,-311 741,428 845,595 265,427 555,796 589,1125 176,-93 76,-75 334,-74 -88,98 -149,188 -198,317 382,-45 101,87 194,321 186,-115 309,-259 421,-506 -258,-568 -422,-500 -678,-1001 -172,-337 -385,-786 -763,-893l194 -32c-237,-81 -179,-112 -240,-207l386 28c-352,-24 -416,-70 -772,-37 -40,15 -101,37 -146,65 -104,64 -63,47 -81,72z"/>
  <path class="fil11" d="M42926 15746c224,73 229,172 323,377 247,540 26,-24 257,317 356,523 165,433 686,691l-247 141c106,25 384,80 484,111 -331,174 -723,-54 -831,-67 376,150 1055,476 1473,75 -166,22 -62,-29 -185,28 -267,-190 136,201 -53,-76 -154,-224 163,22 -77,-92l-289 -98c248,-185 237,29 229,-186 -3,-88 -87,-136 -144,-165 -72,-35 -109,-27 -188,-74 -306,-181 -84,-199 -332,-409 -163,-138 -98,3 -260,-282 -201,-357 -417,-366 -425,-677 0,-4 19,-110 21,-131l-194 -3 -248 520z"/>
  <path class="fil10" d="M38322 17123l146 65c-244,55 -344,2 -532,179l381 152c609,-258 969,-533 1098,-1281 -85,-300 -50,-270 -180,-474 -64,90 -222,276 -224,279l-510 859c-146,233 25,80 -179,221z"/>
  <path class="fil9" d="M37115 14719c115,-111 -34,-80 176,-77 187,2 147,39 222,94 -97,146 -125,150 -233,167l119 76 -528 995c-7,13 -15,30 -22,43l-94 155c-104,145 -262,84 -284,352l30 101c17,16 52,7 60,36 68,243 -12,-80 104,74 44,-419 -79,2 201,-333 258,-308 491,-786 785,-946 -110,-138 -77,-57 -80,-262 529,-357 94,-28 458,-452 181,-211 -40,-48 197,-184l-22 -26c-120,-48 -393,-81 -616,-22 -68,19 -416,134 -473,209z"/>
  <path class="fil12" d="M36501 16625l228 457c64,-325 75,-98 345,-351 103,-189 -200,-53 217,-488 264,-276 363,-656 777,-756 -161,-454 121,-540 243,-625 12,-8 29,-18 40,-26 109,-82 73,-57 104,-100l-229 -178c-237,136 -16,-27 -197,184 -364,424 71,95 -458,452 3,205 -30,124 80,262 -294,160 -527,638 -785,946 -280,335 -157,-86 -201,333 -116,-154 -36,169 -104,-74 -8,-29 -43,-20 -60,-36z"/>
  <path class="fil10" d="M43598 17316c108,13 500,241 831,67 -100,-31 -378,-86 -484,-111l247 -141c-521,-258 -330,-168 -686,-691 -231,-341 -10,223 -257,-317 -94,-205 -99,-304 -323,-377 -69,792 243,1263 672,1570z"/>
  <path class="fil13" d="M42171 13687c73,272 394,1489 556,1704 257,-455 442,-777 960,-999 96,-41 162,-54 242,-85 414,-158 587,-88 1034,-50 -408,-559 -834,-1046 -1276,-1594 -433,-539 -853,-1086 -1311,-1615 -124,216 -162,717 -140,961 -115,137 -75,124 -108,360 -17,119 -26,222 -43,347 -31,246 -63,405 -30,652l116 319z"/>
  <path class="fil9" d="M36395 15637c-13,164 -31,316 -28,481 1,47 13,205 23,247 43,174 0,91 81,159 22,-268 180,-207 284,-352l94 -155c7,-13 15,-30 22,-43l528 -995 -119 -76 -103 89c-315,284 -64,179 -246,359 -530,528 -241,252 -431,824 -136,-360 -5,-40 -74,-439 -2,-13 -13,-24 -14,-50 -2,-26 -8,-34 -17,-49z"/>
  <path class="fil14" d="M37115 14719c-364,244 -564,443 -720,918 9,15 15,23 17,49 1,26 12,37 14,50 69,399 -62,79 74,439 190,-572 -99,-296 431,-824 182,-180 -69,-75 246,-359l103 -89c108,-17 136,-21 233,-167 -75,-55 -35,-92 -222,-94 -210,-3 -61,-34 -176,77z"/>
  <polygon class="fil15" points="190,10233 773,10233 773,10893 1412,10893 1412,10233 1998,10233 1998,12123 1412,12123 1412,11358 773,11358 773,12123 190,12123 "/>
  <polygon id="1" class="fil15" points="5062,10233 6625,10233 6625,10637 5648,10637 5648,10938 6554,10938 6554,11323 5648,11323 5648,11696 6654,11696 6654,12123 5062,12123 "/>
  <path id="2" class="fil15" d="M10938 10378c574,60 861,318 861,774 0,465 -287,724 -861,776l0 195 -530 0 0 -200c-574,-49 -861,-306 -861,-771 0,-457 287,-714 861,-774l0 -145 530 0 0 145zm0 1154c92,-27 164,-74 214,-143 51,-68 77,-150 77,-245 0,-91 -26,-174 -78,-246 -53,-73 -124,-124 -213,-153l0 787zm-530 5l0 -781c-87,25 -158,74 -211,148 -53,73 -80,157 -80,250 0,88 27,167 79,236 54,70 124,119 212,147z"/>
  <polygon id="3" class="fil15" points="14627,10233 16404,10233 16404,10700 15807,10700 15807,12123 15224,12123 15224,10700 14627,10700 "/>
  <polygon id="4" class="fil15" points="19342,10233 20905,10233 20905,10637 19928,10637 19928,10938 20833,10938 20833,11323 19928,11323 19928,11696 20934,11696 20934,12123 19342,12123 "/>
  <polygon id="5" class="fil15" points="25421,10698 24508,10698 24508,12123 23924,12123 23924,10233 25421,10233 "/>
  <path id="6" class="fil15" d="M29524 11812l-662 0 -95 311 -596 0 711 -1890 640 0 708 1890 -611 0 -95 -311zm-124 -409l-206 -680 -207 680 413 0z"/>
  <path id="7" class="fil15" d="M34276 11095c227,62 340,204 340,429 0,184 -71,336 -213,454 -142,118 -343,177 -602,177 -444,0 -719,-186 -827,-558l552 -41c31,132 119,198 264,198 81,0 142,-21 183,-61 42,-41 63,-97 63,-169 0,-70 -26,-126 -79,-170 -52,-43 -124,-65 -214,-65l-159 0 0 -338 125 0c74,0 133,-19 176,-58 42,-40 63,-94 63,-164 0,-102 -63,-153 -191,-153 -133,0 -209,59 -231,177l-523 -61c85,-327 340,-491 764,-491 235,0 419,46 552,137 133,91 200,214 200,367 0,186 -81,316 -243,390z"/>
  <polygon class="fil15" points="3724,16659 2422,16659 1156,14764 1156,16659 0,16659 0,12920 1156,12920 1156,14731 2375,12920 3639,12920 2325,14705 "/>
  <path id="1" class="fil15" d="M8023 14785c0,629 -175,1108 -527,1435 -351,327 -866,491 -1544,491 -668,0 -1180,-165 -1537,-494 -356,-329 -534,-808 -534,-1436 0,-622 177,-1098 532,-1426 354,-328 869,-492 1545,-492 678,0 1191,163 1541,488 350,326 524,804 524,1434zm-2930 -1c0,723 286,1084 859,1084 291,0 508,-88 648,-263 142,-176 212,-449 212,-821 0,-373 -71,-649 -215,-827 -142,-178 -356,-267 -639,-267 -577,0 -865,365 -865,1094z"/>
  <path id="2" class="fil15" d="M10648 16659l-872 -2693 -26 0c41,459 61,815 61,1069l0 1624 -1019 0 0 -3739 1532 0 889 2655 24 0 871 -2655 1535 0 0 3739 -1058 0 0 -1639c0,-86 2,-180 5,-285 3,-103 16,-358 39,-764l-26 0 -860 2688 -1095 0z"/>
  <polygon id="3" class="fil15" points="18051,16659 16892,16659 16892,13748 15716,13748 15716,16659 14560,16659 14560,12920 18051,12920 "/>
  <path id="4" class="fil15" d="M22593 16659l-1156 0 0 -2911 -812 0c-44,424 -104,857 -180,1296 -74,440 -146,748 -213,925 -68,178 -155,319 -258,424 -104,104 -233,184 -386,238 -154,53 -339,80 -557,80 -165,0 -315,-19 -451,-57l0 -780c116,34 212,52 285,52 102,0 178,-38 232,-112 54,-74 102,-200 147,-378 45,-178 107,-509 186,-993 80,-482 154,-990 222,-1523l2941 0 0 3739z"/>
  <polygon id="5" class="fil15" points="26044,16659 23515,16659 23515,12920 26044,12920 26044,13732 24665,13732 24665,14318 25942,14318 25942,15130 24665,15130 24665,15837 26044,15837 "/>
  <polygon id="6" class="fil15" points="30513,16659 29211,16659 27946,14764 27946,16659 26789,16659 26789,12920 27946,12920 27946,14731 29165,12920 30428,12920 29114,14705 "/>
  <path id="7" class="fil15" d="M32723 13695c-273,0 -487,99 -640,295 -154,197 -231,469 -231,815 0,719 313,1079 936,1079 188,0 371,-23 548,-69 176,-46 354,-101 533,-167l0 855c-356,139 -758,208 -1206,208 -644,0 -1136,-164 -1479,-491 -343,-327 -514,-800 -514,-1419 0,-387 83,-727 249,-1020 166,-293 404,-519 717,-677 312,-157 678,-236 1099,-236 461,0 900,87 1320,263l-352 795c-157,-66 -315,-120 -473,-164 -157,-45 -326,-67 -507,-67z"/>
  <path class="fil15" d="M49723 11554c-131,0 -290,38 -477,115 -185,78 -353,179 -504,302l-317 -1429c251,-182 481,-308 693,-379 210,-71 426,-106 644,-106 614,0 1088,300 1424,900 334,600 502,1450 502,2552 0,1138 -167,2003 -500,2599 -333,595 -820,893 -1459,893 -476,0 -901,-127 -1275,-385l0 -1538c436,284 862,427 1275,427 246,0 438,-101 576,-305 138,-204 215,-501 232,-889l-1609 0 0 -1469 1609 0c-17,-413 -96,-732 -239,-955 -142,-222 -334,-333 -575,-333z"/>
  <polygon id="1" class="fil15" points="55930,16907 54672,16907 53887,14792 53110,16907 51879,16907 53214,13446 51959,10142 53165,10142 53892,12233 54592,10142 55834,10142 54559,13589 "/>
  <path id="2" class="fil15" d="M59288 11726c0,892 -316,1428 -948,1611l0 36c364,52 638,216 824,491 185,275 278,644 278,1110 0,407 -68,764 -203,1072 -135,306 -330,543 -585,708 -256,165 -558,247 -907,247 -641,0 -1152,-121 -1535,-366l0 -1574c156,133 356,240 598,320 240,82 459,124 656,124 310,0 531,-54 661,-163 131,-107 196,-287 196,-540 0,-453 -309,-681 -926,-681l-474 0 0 -1478 425 0c213,0 379,-17 500,-53 120,-35 208,-93 263,-174 55,-80 83,-200 83,-361 0,-340 -194,-510 -582,-510 -365,0 -687,157 -964,473l-457 -1258c241,-259 484,-442 732,-550 249,-109 548,-162 898,-162 443,0 798,154 1065,462 268,308 402,714 402,1216z"/>
  <polygon class="fil16" points="39761,10201 42571,10201 41229,18277 "/>
 </g>
</svg>
