<?xml version="1.0" encoding="UTF-8"?>
<!DOCTYPE svg PUBLIC "-//W3C//DTD SVG 1.1//EN" "http://www.w3.org/Graphics/SVG/1.1/DTD/svg11.dtd">
<!-- Creator: CorelDRAW X8 -->
<svg xmlns="http://www.w3.org/2000/svg" xml:space="preserve" width="73px" height="73px" version="1.1" style="shape-rendering:geometricPrecision; text-rendering:geometricPrecision; image-rendering:optimizeQuality; fill-rule:evenodd; clip-rule:evenodd"
viewBox="0 0 615 615"
 xmlns:xlink="http://www.w3.org/1999/xlink">
 <defs>
  <style type="text/css">
   <![CDATA[
    .fil2 {fill:#807F7F}
    .fil0 {fill:url(#id0)}
    .fil1 {fill:url(#id1)}
   ]]>
  </style>
  <linearGradient id="id0" gradientUnits="userSpaceOnUse" x1="288.648" y1="20.4888" x2="288.648" y2="614.73">
   <stop offset="0" style="stop-opacity:1; stop-color:#F4D113"/>
   <stop offset="0.341176" style="stop-opacity:1; stop-color:#F4D014"/>
   <stop offset="1" style="stop-opacity:1; stop-color:#FCB922"/>
  </linearGradient>
  <linearGradient id="id1" gradientUnits="userSpaceOnUse" xlink:href="#id0" x1="328.384" y1="127.674" x2="328.384" y2="517.234">
  </linearGradient>
 </defs>
 <g id="Слой_x0020_1">
  <metadata id="CorelCorpID_0Corel-Layer"/>
  <g id="_783068357216">
   <path class="fil0" d="M293 52c38,-3 77,5 109,17 24,10 42,21 61,35 10,8 30,26 38,35 1,2 2,3 3,5l14 18c7,11 12,17 18,30 15,30 24,62 27,100 3,39 -5,78 -18,110 -11,30 -26,51 -45,75 -9,10 -19,18 -29,27 -6,6 -20,16 -28,20 -34,23 -76,36 -121,39 -38,3 -77,-5 -109,-18 -24,-9 -42,-20 -62,-34 -7,-6 -11,-10 -17,-15 -2,-2 -2,-2 -4,-4 -1,-2 -3,-3 -4,-4 -3,-3 -5,-5 -8,-8 -1,-2 -2,-3 -4,-4 -4,-5 -6,-7 -11,-14l-13 -19c-22,-34 -35,-76 -38,-121 -3,-38 5,-78 17,-109 12,-30 26,-52 46,-75 1,-1 2,-2 4,-4 2,-3 5,-6 8,-8 8,-8 16,-16 25,-23 43,-31 83,-47 141,-51zm11 -52l12 0c7,0 12,1 18,1 3,0 6,1 9,1 38,3 86,20 119,39 13,9 38,25 49,36 1,1 1,1 2,2l7 6c16,16 26,27 39,46 5,7 10,15 15,22 13,23 25,55 32,80 2,10 4,20 6,31 2,18 3,27 3,40l0 12c0,10 -1,18 -2,27 -3,38 -20,86 -40,119 -8,13 -24,38 -35,49l-9 9c-15,16 -27,26 -45,39 -13,9 -27,17 -41,24 -27,14 -61,24 -92,29 -18,2 -27,3 -40,3l-13 0c-10,0 -17,-1 -26,-2 -11,-1 -29,-5 -40,-7 -5,-2 -9,-3 -14,-4 -14,-5 -41,-15 -53,-22 -4,-2 -8,-4 -12,-7 -16,-9 -41,-26 -54,-39 -1,-2 -3,-3 -5,-5 -1,-1 -2,-3 -4,-4 -40,-40 -67,-89 -81,-143 -2,-10 -5,-21 -6,-31 -3,-18 -3,-27 -3,-40l0 -13c0,-19 5,-47 9,-66 1,-5 3,-9 4,-14l5 -14c1,-5 3,-9 5,-14 2,-4 4,-8 6,-12 2,-5 3,-9 6,-13 5,-8 7,-15 14,-24 9,-14 24,-34 36,-47 16,-15 27,-25 46,-38 7,-6 15,-10 22,-15 4,-2 8,-4 13,-7 17,-9 47,-20 67,-25 10,-2 20,-5 31,-6 18,-3 27,-3 40,-3z"/>
   <path class="fil1" d="M265 182c16,0 33,0 50,0 22,1 48,-1 66,10 5,3 11,7 14,11 4,4 7,8 10,15 2,7 3,14 3,22 0,29 -20,49 -46,54 -23,4 -73,3 -97,3l0 -115zm0 335l0 -152c41,0 114,4 150,-9 12,-4 29,-14 38,-22 2,-2 3,-3 5,-5 14,-14 26,-34 31,-58 5,-23 4,-51 -2,-73 -4,-15 -10,-28 -19,-40 -9,-11 -19,-20 -32,-28 -9,-5 -18,-8 -29,-11 -11,-2 -24,-3 -36,-4 -7,0 -34,-1 -39,-1l-149 0 0 403 82 0z"/>
   <path class="fil2" d="M265 517l-82 0 0 -403 149 0c0,0 -142,-1 -149,0 0,1 -1,400 0,403l79 1c1,0 1,0 2,0 0,-1 0,0 1,-1z"/>
  </g>
 </g>
</svg>
