<?xml version="1.0" encoding="UTF-8"?>
<!DOCTYPE svg PUBLIC "-//W3C//DTD SVG 1.1//EN" "http://www.w3.org/Graphics/SVG/1.1/DTD/svg11.dtd">
<!-- Creator: CorelDRAW X8 -->
<svg xmlns="http://www.w3.org/2000/svg" xml:space="preserve" width="1073px" height="599px" version="1.1" style="shape-rendering:geometricPrecision; text-rendering:geometricPrecision; image-rendering:optimizeQuality; fill-rule:evenodd; clip-rule:evenodd"
viewBox="0 0 24152 13485"
 xmlns:xlink="http://www.w3.org/1999/xlink">
 <defs>
  <style type="text/css">
   <![CDATA[
    .fil1 {fill:#006FAA}
    .fil0 {fill:#006FAB}
   ]]>
  </style>
 </defs>
 <g id="Слой_x0020_1">
  <metadata id="CorelCorpID_0Corel-Layer"/>
  <g id="_783337059184">
   <path class="fil0" d="M973 11080l4980 127c-22,41 -570,499 -633,552 -115,96 -71,75 -285,37l-4053 -712c-2,-1 -6,-2 -9,-4zm216 -1054c11,-109 471,-1133 548,-1309 292,-662 909,-1876 1248,-2455 115,-197 223,-389 339,-590 112,-196 228,-380 343,-574 557,-945 1229,-1877 1891,-2741l417 -511c71,-77 148,-170 214,-251l220 -245c71,-83 152,-160 225,-239 49,-55 162,-180 230,-221l-1959 10053c-88,0 -2579,-635 -2789,-688 -247,-61 -706,-186 -927,-229zm-1189 -914c0,1560 811,2837 1842,3565 682,481 1545,808 2450,808l163 0c1302,0 2416,-673 3024,-1300 659,-678 1263,-1709 1263,-3073 0,-934 -317,-1814 -738,-2419 -150,-216 -186,-251 -337,-441 -238,-301 -746,-704 -1074,-897 -67,-39 -212,-106 -258,-147l1010 -5208c-61,24 -1148,1114 -1282,1280 -77,95 -154,178 -240,275 -411,473 -987,1230 -1342,1747l-822 1237c-283,432 -61,236 -614,415 -276,89 -487,187 -723,306 -544,273 -1020,705 -1399,1175 -578,716 -923,1719 -923,2677z"/>
   <path class="fil1" d="M17206 6856c922,-106 872,1331 28,1433 -441,53 -713,-262 -675,-696 32,-373 287,-695 647,-737zm-482 -215l30 -252 -578 -1 -446 3257 583 2 163 -1191c40,24 70,79 98,113 269,318 756,319 1122,147 1219,-573 889,-2561 -407,-2376 -121,17 -229,58 -316,110 -120,73 -186,152 -249,191z"/>
   <path class="fil1" d="M14819 7643c-71,365 -319,666 -733,668 -896,6 -745,-1435 138,-1441 414,-4 680,332 595,773zm-159 881l-29 251 585 0 330 -2386 -589 -1c-16,90 -16,261 -55,326 -229,-366 -704,-506 -1222,-267 -355,163 -668,517 -755,991 -100,552 162,1033 465,1239 177,120 431,185 698,146 299,-43 393,-169 572,-299z"/>
   <path class="fil1" d="M10179 8774l600 0 246 -1807 860 -3 -244 1806c76,13 545,16 603,-5l323 -2374 -2060 -3 -328 2386z"/>
   <path class="fil1" d="M18813 9645l607 2 1759 -3047c30,-52 100,-160 113,-211l-623 -1c-168,319 -418,721 -606,1055 -30,53 -170,320 -215,352l-461 -1407 -570 0c9,84 234,731 278,867 94,292 189,577 285,869 141,427 155,227 -157,788 -70,125 -141,245 -209,368 -42,75 -187,308 -201,365z"/>
   <path class="fil1" d="M23693 8329c-117,-64 -328,-245 -454,-311 -112,98 -146,167 -346,232 -157,51 -345,59 -507,20 -654,-158 -546,-1125 92,-1338 222,-73 512,-64 708,75 70,49 100,98 154,139 152,-48 342,-201 491,-256 -28,-90 -175,-235 -231,-285 -327,-284 -833,-335 -1252,-218 -478,134 -891,558 -968,1118 -182,1321 1246,1611 2039,1084 84,-56 240,-184 274,-260z"/>
   <path class="fil1" d="M20879 10161c1032,-172 1035,1337 104,1488 -1025,166 -1055,-1328 -104,-1488zm-537 -183l-242 2 -338 2533 244 -7 139 -1016c108,145 196,265 400,340 205,74 457,62 657,-10 810,-293 975,-1466 232,-1808 -185,-85 -439,-105 -653,-44 -287,81 -390,234 -471,275l32 -265z"/>
   <path class="fil1" d="M14613 10741c86,-292 347,-545 703,-577 407,-35 664,204 690,580l-1393 -3zm1414 766c-38,-43 -119,-110 -171,-141 -3,2 -7,1 -8,6 -1,4 -6,4 -8,6 -11,9 -6,4 -21,19 -14,15 -18,23 -34,40 -23,23 -45,41 -75,64 -181,141 -451,196 -678,142 -337,-82 -459,-366 -462,-689l1655 0c162,-1197 -1337,-1362 -1796,-383 -229,487 -16,1023 328,1209 464,250 1053,14 1270,-273z"/>
   <path class="fil1" d="M10507 10477c109,-97 171,-180 338,-249 142,-59 326,-86 494,-64 292,38 595,269 564,601l-821 1 -25 209 827 0c3,123 -143,353 -204,414 -248,246 -607,347 -942,228 -169,-61 -251,-158 -347,-278l-196 120c15,73 130,191 181,231 75,59 166,104 276,138 642,198 1395,-128 1494,-863 72,-542 -207,-896 -632,-1001 -343,-85 -714,-4 -984,200 -42,32 -175,149 -196,202l173 111z"/>
   <path class="fil1" d="M23131 10177c469,-100 801,224 788,667 -12,419 -291,744 -664,805 -980,158 -1083,-1266 -124,-1472zm1001 842c110,-596 -267,-1074 -817,-1085 -562,-12 -974,385 -1067,861 -118,604 258,1076 816,1084 574,10 977,-367 1068,-860z"/>
   <path class="fil1" d="M16832 9990l-252 1844 240 -1 93 -686c13,-101 24,-131 98,-163 72,63 125,144 188,212 34,36 57,65 94,107l383 445c90,109 55,89 352,87l51 -1c-24,-45 -63,-82 -101,-124l-325 -378c-133,-170 -302,-332 -424,-501 46,-53 674,-548 787,-640 81,-65 188,-139 259,-208l-297 -5c-74,0 -179,106 -264,175 -82,66 -160,129 -243,196 -95,77 -427,357 -502,398l102 -765 -186 -4c-27,2 3,-2 -23,2 -42,8 -17,3 -30,10z"/>
   <path class="fil1" d="M13309 10495c34,49 282,844 337,1013 128,392 40,327 355,327 -17,-109 -579,-1814 -606,-1855 -61,3 -62,41 -93,93l-1038 1761 252 0 793 -1339z"/>
   <path class="fil1" d="M19148 10191c487,-42 511,118 518,-213l-1220 4 -23 206 484 1 -218 1647 237 -8 222 -1637z"/>
  </g>
 </g>
</svg>
