<?xml version="1.0" encoding="UTF-8"?>
<!DOCTYPE svg PUBLIC "-//W3C//DTD SVG 1.1//EN" "http://www.w3.org/Graphics/SVG/1.1/DTD/svg11.dtd">
<!-- Creator: CorelDRAW X8 -->
<svg xmlns="http://www.w3.org/2000/svg" xml:space="preserve" width="8px" height="353px" version="1.1" style="shape-rendering:geometricPrecision; text-rendering:geometricPrecision; image-rendering:optimizeQuality; fill-rule:evenodd; clip-rule:evenodd"
viewBox="0 0 17 789"
 xmlns:xlink="http://www.w3.org/1999/xlink">
 <defs>
  <style type="text/css">
   <![CDATA[
    .str0 {stroke:#F4D113;stroke-width:2.23414}
    .fil1 {fill:none}
    .fil0 {fill:#F4D113;fill-rule:nonzero}
   ]]>
  </style>
 </defs>
 <g id="Слой_x0020_1">
  <metadata id="CorelCorpID_0Corel-Layer"/>
  <path class="fil0" d="M9 13l-5 -5 5 -4 5 4 -5 5zm8 -7l-1 -1c-1,-3 -4,-5 -7,-5 -5,0 -9,4 -9,8 0,5 4,9 9,9 3,0 6,-3 7,-6l1 0 0 -3 0 -2z"/>
  <line class="fil1 str0" x1="8" y1="775" x2="8" y2= "11" />
  <path class="fil0" d="M9 786l-5 -5 5 -5 5 5 -5 5zm8 -7l-1 -1c-1,-3 -4,-5 -7,-5 -5,0 -9,3 -9,8 0,5 4,8 9,8 3,0 6,-2 7,-5l1 -1 0 -2 0 -2z"/>
 </g>
</svg>
