<?xml version="1.0" encoding="UTF-8"?>
<!DOCTYPE svg PUBLIC "-//W3C//DTD SVG 1.1//EN" "http://www.w3.org/Graphics/SVG/1.1/DTD/svg11.dtd">
<!-- Creator: CorelDRAW X8 -->
<svg xmlns="http://www.w3.org/2000/svg" xml:space="preserve" width="4164px" height="695px" version="1.1" style="shape-rendering:geometricPrecision; text-rendering:geometricPrecision; image-rendering:optimizeQuality; fill-rule:evenodd; clip-rule:evenodd"
viewBox="0 0 169276 28256"
 xmlns:xlink="http://www.w3.org/1999/xlink">
 <defs>
  <style type="text/css">
   <![CDATA[
    .fil0 {fill:#0A4FFF}
   ]]>
  </style>
 </defs>
 <g id="Слой_x0020_1">
  <metadata id="CorelCorpID_0Corel-Layer"/>
  <polygon class="fil0" points="37694,28187 169084,28154 169061,22569 168429,22550 168259,22554 38844,22554 38336,22548 37698,22585 "/>
  <path class="fil0" d="M33176 28202l-132 -5622c-4503,0 -9007,0 -13511,0 -4752,0 -8290,536 -11182,-2418 -2743,-2801 -3518,-6570 -1573,-10048 2087,-3731 5230,-4406 9067,-4406l0 15459 5759 -14 5742 -10349 2 10366 5750 3c0,-3032 206,-19636 -92,-21173l-5605 0 -5804 10456 -3 -10370c-8270,0 -11538,-688 -17019,3759 -1477,1198 -3250,3743 -4001,6329 -2451,8439 3205,16863 12028,17912 2481,295 16859,116 20574,116z"/>
  <path class="fil0" d="M101374 14906c-612,1005 -1248,1937 -1870,2900 -608,941 -1458,2009 -1939,3026l1780 -1c386,-763 2839,-4645 3308,-5068l4 5069 1437 0 3 -5078c410,406 3060,4482 3311,5078l1780 0c-703,-1410 -3566,-5073 -3796,-6095 830,-1213 3158,-4027 3637,-4991 -1854,0 -1409,-341 -3211,2174 -326,454 -530,744 -850,1186 -265,367 -624,744 -834,1053l-42 -4413 -1438 0 -4 4409c-547,-696 -1126,-1396 -1645,-2122 -1867,-2611 -1315,-2287 -3280,-2287 700,1460 3200,3988 3649,5160z"/>
  <path class="fil0" d="M111864 17063l-59 -7254 -1437 -46 0 11413c573,-397 2484,-3028 3115,-3791 719,-871 2447,-3307 3155,-3837l28 7216 1436 73 -2 -11459c-552,470 -1077,1262 -1507,1800l-4729 5885z"/>
  <path class="fil0" d="M130685 17108l-14 -7362 -1441 0 1 11364 914 -957c290,-373 416,-534 743,-947 490,-619 1060,-1318 1575,-1983 524,-674 1005,-1297 1489,-1900 306,-381 438,-507 766,-925 198,-253 619,-719 766,-934l46 7368 1433 0 3 -11397 -483 466c-1280,1451 -4926,6387 -5798,7207z"/>
  <path class="fil0" d="M81100 17062l-1 -7316 -1439 0 15 11447c943,-905 4416,-5577 5732,-7145 37,-45 216,-250 248,-284 196,-203 84,-117 297,-278l4 7326 1440 -26 -2 -11393c-1019,1126 -5905,7448 -6294,7669z"/>
  <path class="fil0" d="M147185 17029l-6 -7251 -1351 -34 -85 11451c917,-768 5392,-6985 6287,-7679l12 7273 1438 13 -1 -11418c-1076,1253 -2038,2419 -3075,3756 -507,653 -974,1239 -1487,1905 -426,553 -1138,1628 -1732,1984z"/>
  <path class="fil0" d="M48257 15906c1433,1 2689,84 2672,1712 -16,1607 -1203,1631 -2672,1633l0 -3345zm-2 -4580c1250,22 1922,236 1937,1548 16,1403 -581,1612 -1937,1641l0 -3189zm-1438 9496c2578,41 4617,323 5377,-2063 547,-1717 -82,-3343 -1376,-3807l479 -807c485,-980 309,-2462 -282,-3281 -891,-1234 -2498,-1160 -4198,-1103l0 11061z"/>
  <path class="fil0" d="M57955 14769c-1503,154 -2731,-66 -2667,-1719 63,-1645 1044,-1813 2667,-1688l0 3407zm-1995 1493l-2637 4552 1781 13c304,-764 2187,-4269 2851,-4394l2 4399 1431 0 7 -11086c-2596,0 -4401,-315 -5275,1805 -378,914 -362,2144 -39,3033 417,1148 940,1129 1879,1678z"/>
  <polygon class="fil0" points="120240,20158 120243,20832 121677,20832 121679,15674 125655,15668 125655,20751 127092,20846 127096,9747 125655,9746 125655,13984 121679,14093 121679,9746 120241,9746 "/>
  <polygon class="fil0" points="94940,14084 90974,14084 90972,9812 89531,9761 89531,20794 90970,20818 90972,15668 94946,15668 94947,20799 96385,20814 96381,9769 95019,9750 "/>
  <polygon class="fil0" points="155614,20772 157055,20833 157059,15669 161039,15669 161032,20777 162471,20830 162467,9758 161092,9755 161026,14083 157060,14083 157043,9756 155674,9757 "/>
  <path class="fil0" d="M61557 11008l810 1166c389,-324 806,-853 1405,-992 2224,-517 2379,1748 1519,2561 -562,531 -1213,409 -2026,475l0 1515c1001,68 1996,-51 2599,611 1164,1275 13,3815 -2289,2972 -860,-315 -1099,-893 -1514,-1654 -165,80 -475,234 -637,337 -402,254 -336,210 -553,465 697,1922 2991,3541 5388,2010 1953,-1248 2137,-4557 -150,-5680 395,-587 991,-1113 1036,-2260 44,-1118 -414,-1953 -981,-2419 -646,-531 -1678,-723 -2628,-490 -1063,261 -1381,802 -1979,1383z"/>
  <path class="fil0" d="M70942 19227l-44 -3405c1463,-98 2758,100 2810,1634 57,1656 -1285,1861 -2766,1771zm-1487 1439l3 166c2691,0 5163,201 5628,-2558 210,-1243 -196,-2606 -808,-3229 -738,-751 -2031,-759 -3371,-864l-12 -4435 -1436 0 -4 10920z"/>
  <path class="fil0" d="M45080 20289l53 -1991c-1002,652 -2103,1758 -3894,826 -2667,-1387 -2488,-6107 -292,-7534 580,-377 1389,-565 2286,-416 1022,169 1258,699 1893,1058l8 -1958c-1670,-761 -3271,-1260 -5113,47 -1206,855 -2152,2532 -2233,4751 -153,4218 3274,7470 7292,5217z"/>
  <path class="fil0" d="M140542 14682l0 -3283c1350,-232 2368,258 2359,1644 -9,1398 -1022,1861 -2359,1639zm-1439 5984l1436 166 12 -4463c2323,-239 3693,-760 3786,-3163 143,-3726 -2802,-3460 -5234,-3460l0 10920z"/>
  <path class="fil0" d="M14339 21166l9 -1404c-7617,-328 -7613,-10908 -1,-11236l-4 -1404c-9440,387 -9441,13657 -4,14044z"/>
  <polygon class="fil0" points="169276,11328 169276,9745 164658,9752 164605,20759 166046,20842 166050,11328 "/>
  <path class="fil0" d="M14347 18355c0,-2366 -263,-762 -1914,-2106 -1382,-1125 -1372,-3873 872,-4697 1150,-422 1042,52 1042,-1619 -5710,354 -5710,8069 0,8422z"/>
 </g>
</svg>
