<?xml version="1.0" encoding="UTF-8"?>
<!DOCTYPE svg PUBLIC "-//W3C//DTD SVG 1.1//EN" "http://www.w3.org/Graphics/SVG/1.1/DTD/svg11.dtd">
<!-- Creator: CorelDRAW X8 -->
<svg xmlns="http://www.w3.org/2000/svg" xml:space="preserve" width="37px" height="41px" version="1.1" style="shape-rendering:geometricPrecision; text-rendering:geometricPrecision; image-rendering:optimizeQuality; fill-rule:evenodd; clip-rule:evenodd"
viewBox="0 0 1112 1205"
 xmlns:xlink="http://www.w3.org/1999/xlink">
 <defs>
  <style type="text/css">
   <![CDATA[
    .fil2 {fill:url(#id0)}
    .fil1 {fill:url(#id1)}
    .fil3 {fill:url(#id2)}
    .fil0 {fill:url(#id3)}
   ]]>
  </style>
  <linearGradient id="id0" gradientUnits="userSpaceOnUse" x1="732.501" y1="202.88" x2="732.501" y2="700.516">
   <stop offset="0" style="stop-opacity:1; stop-color:#F4D113"/>
   <stop offset="0.341176" style="stop-opacity:1; stop-color:#F4D014"/>
   <stop offset="1" style="stop-opacity:1; stop-color:#FCB922"/>
  </linearGradient>
  <linearGradient id="id1" gradientUnits="userSpaceOnUse" xlink:href="#id0" x1="846.698" y1="38.8099" x2="846.698" y2="709.186">
  </linearGradient>
  <linearGradient id="id2" gradientUnits="userSpaceOnUse" xlink:href="#id0" x1="615.128" y1="360.184" x2="615.128" y2="684.498">
  </linearGradient>
  <linearGradient id="id3" gradientUnits="userSpaceOnUse" xlink:href="#id0" x1="449.145" y1="40.1749" x2="449.145" y2="1205.35">
  </linearGradient>
 </defs>
 <g id="Слой_x0020_1">
  <metadata id="CorelCorpID_0Corel-Layer"/>
  <g id="_783068343360">
   <g id="_357583599856">
    <g id="_997307818448">
     <g id="_1050921882752">
      <g id="_197398534688">
       <g id="_568457234896">
        <path class="fil0" d="M0 270c0,118 20,197 59,296 20,59 59,138 79,197l99 119c39,59 59,99 118,138l138 99 60 39c79,40 157,59 256,40 20,-20 40,-40 59,-40 99,-59 119,-138 40,-217 -40,-39 -138,-118 -198,-118 -39,0 -78,19 -98,59l-40 39c-19,20 -39,0 -59,-39 -20,0 -20,0 -20,0 -19,-20 -39,-40 -39,-59 -40,-40 -59,-79 -99,-119 -19,-20 -19,-39 -39,-59 -20,-39 -99,-197 -99,-217 0,-20 40,-40 40,-40 157,-59 157,-78 118,-197 0,-39 -39,-138 -59,-158 -59,-79 -178,0 -237,59 -40,40 -79,119 -79,178l0 0 0 0 0 0 0 0z"/>
        <path class="fil1" d="M612 73c0,79 98,19 256,177 20,0 20,0 20,0 0,20 20,20 40,60 19,19 19,39 39,59 39,79 39,158 39,237 0,19 -19,39 -19,59 19,59 98,59 118,0 20,-158 0,-316 -99,-434l-39 -40c-39,-59 -118,-118 -197,-158 -40,0 -119,-39 -138,0 -20,0 -20,20 -20,40l0 0 0 0 0 0 0 0 0 0z"/>
        <path class="fil2" d="M553 231c0,98 98,39 197,157 59,60 79,139 79,218 -20,19 -20,19 -20,39 0,59 99,79 119,20 19,-79 0,-178 -20,-237 -40,-79 -99,-158 -158,-197 -40,-20 -138,-60 -178,-40 0,20 -19,20 -19,40l0 0 0 0 0 0 0 0z"/>
        <path class="fil3" d="M493 408c0,59 60,59 99,79 20,20 40,40 40,99 0,0 -20,79 59,98 79,0 79,-138 19,-217 -19,-59 -98,-118 -157,-118 -40,0 -60,39 -60,59l0 0 0 0 0 0 0 0z"/>
       </g>
      </g>
     </g>
    </g>
   </g>
  </g>
 </g>
</svg>
