<?xml version="1.0" encoding="UTF-8"?>
<!DOCTYPE svg PUBLIC "-//W3C//DTD SVG 1.1//EN" "http://www.w3.org/Graphics/SVG/1.1/DTD/svg11.dtd">
<!-- Creator: CorelDRAW X8 -->
<svg xmlns="http://www.w3.org/2000/svg" xml:space="preserve" width="4904px" height="2360px" version="1.1" style="shape-rendering:geometricPrecision; text-rendering:geometricPrecision; image-rendering:optimizeQuality; fill-rule:evenodd; clip-rule:evenodd"
viewBox="0 0 448353 215724"
 xmlns:xlink="http://www.w3.org/1999/xlink">
 <defs>
  <style type="text/css">
   <![CDATA[
    .fil1 {fill:#0078C1}
    .fil0 {fill:#0079C1}
   ]]>
  </style>
 </defs>
 <g id="Слой_x0020_1">
  <metadata id="CorelCorpID_0Corel-Layer"/>
  <g id="_782950141728">
   <path class="fil0" d="M0 139801c0,20451 7278,39511 21427,53615 8842,8814 16592,13474 27873,17838 22890,8856 50630,4001 69931,-10504 1671,-1256 9904,-7719 9904,-9524l0 -50283 -54473 0 0 23237c3529,-2363 4477,-3964 9887,-5350 8580,-2197 16510,1301 21789,7958 4939,6230 5334,16474 637,23610 -6631,10077 -20367,15684 -33456,15684 -26938,0 -49561,-28800 -37173,-58505 6101,-14630 21564,-24918 38316,-24918l0 -56378c-19411,0 -38648,7983 -52282,21618 -7353,7353 -10474,11710 -15401,21550 -3662,7314 -6979,19525 -6979,30352z"/>
   <path class="fil1" d="M389690 215605l15237 0 0 -46473c1028,1480 1940,9077 2222,11111 568,4097 1273,7944 1914,11798 659,3959 1268,7982 1905,11809l1958 11755 12190 0 1851 -11481c658,-3959 1268,-7982 1905,-11809 301,-1813 3123,-21570 4243,-23183l0 46473 15238 0 0 -74662 -19809 0c-143,1727 -809,4604 -1176,6443l-7671 41849c-271,1465 5,1975 -1057,2753 0,-2260 -526,-4089 -922,-6315 -410,-2298 -757,-4047 -1203,-6416 -832,-4424 -1694,-8626 -2395,-12843 -698,-4197 -1492,-8475 -2301,-12555l-2321 -12916 -19808 0 0 74662z"/>
   <path class="fil1" d="M95613 105898c0,-7516 1483,-11893 3567,-18146 681,-2042 1740,-3341 2147,-5091 1765,1294 3551,7726 4268,10589 2729,10887 2484,22234 -1707,32732l-2075 4401c-455,708 -151,271 -486,656 -800,-3433 -5714,-10127 -5714,-25141zm-8380 -14856l-381 0c0,-4748 -2133,-17788 -1372,-22686 562,-3616 246,-7711 764,-11443 2174,-15652 6163,-28019 13051,-41803 732,-1463 1225,-3193 2413,-4063 315,1353 953,1948 1528,3043 3545,6751 7489,15766 9656,23104 3406,11532 6113,30820 4331,44602 -314,2420 -1040,6626 -1040,9246l-381 0c0,-11640 -1358,-22990 -3970,-32218 -2479,-8761 -3934,-12094 -7129,-19917 -676,-1655 -2639,-4812 -2995,-6147 -2694,1974 -9059,20733 -10366,25822 -1276,4967 -2318,9420 -2999,15285 -612,5274 -1110,11291 -1110,17175zm-6857 -26665c0,18586 1029,26899 6619,43663 3043,9124 4454,11108 8235,18430 2088,4045 4649,7166 6097,9902 4688,-3139 13240,-23532 15093,-29094 1870,-5611 3561,-11412 4611,-17483 4701,-27175 954,-51449 -11196,-75828 -1248,-2503 -7021,-12878 -8508,-13967 -5439,10278 -9588,14658 -14235,28429 -2057,6099 -3339,9953 -4593,16739 -1086,5873 -2123,12571 -2123,19209z"/>
   <polygon class="fil0" points="256746,215605 271983,215605 271983,150467 276554,150467 276554,215605 291791,215605 291791,140943 256746,140943 "/>
   <path class="fil1" d="M360739 204177c0,-7781 -596,-49137 381,-53329 2181,-522 789,-615 3428,0 977,4192 381,45548 381,53329 0,2302 -4190,2302 -4190,0zm-15237 -51425l0 51045c0,6603 3360,11808 9904,11808 4500,0 15745,577 18992,-816l2890 -2062c1599,-1651 2878,-4683 2878,-7788l0 -52568c0,-6638 -3686,-11428 -10285,-11428l-14094 0c-6723,0 -10285,5062 -10285,11809z"/>
   <path class="fil1" d="M186274 150467l2009 18561c308,2259 630,6654 651,9253 21,2609 559,6616 768,9136l-5714 0c0,-9923 2286,-26632 2286,-36950zm-19046 65138l14856 0c0,-6864 1143,-12944 1143,-19808l6856 0 766 9900c-6,2350 337,2967 384,4949 52,2148 338,3361 374,4959l14856 0c-822,-3529 -1436,-13943 -2012,-18557 -1379,-11032 -2426,-26486 -3918,-37223 -438,-3149 -732,-6246 -940,-9345 -95,-1426 -305,-3162 -532,-4801 -250,-1798 -239,-3199 -597,-4736l-23618 0c0,4739 -3411,30834 -3809,37331 -377,6156 -1497,12369 -1918,18653 -378,5633 -1891,13879 -1891,18678z"/>
   <path class="fil1" d="M212558 153514l0 11428 15237 0c0,-3907 -435,-10590 381,-14094 2181,-522 789,-615 3428,0 843,3616 381,14282 381,18665 0,4550 -6524,3428 -11808,3428l0 8381c2817,0 11808,-645 11808,3047l0 19808c0,2302 -4190,2302 -4190,0l0 -14856 -15237 0c0,10809 -2337,26284 9904,26284l14856 0c5898,0 9904,-4792 9904,-10666l0 -19046c0,-2631 -1125,-5297 -2553,-6589 -1782,-1612 -4072,-2172 -7351,-2172l0 -762c5855,0 9904,-3079 9904,-9143l0 -14856c0,-6638 -3686,-11428 -10285,-11428l-14094 0c-7467,0 -10285,5585 -10285,12571z"/>
   <path class="fil1" d="M316170 182084l0 -31617 2286 0c1234,0 2286,1655 2286,3047l0 25522c0,2630 -1908,3048 -4572,3048zm-14856 33521l14856 0 0 -25141c10273,0 19809,1457 19809,-12951l0 -23999c0,-7241 -3131,-12571 -10285,-12571l-24380 0 0 74662z"/>
   <polygon class="fil1" points="138277,215605 153514,215605 153514,150467 166847,150467 166847,140943 138277,140943 "/>
  </g>
 </g>
</svg>
